<svg version="1.1" id="レイヤー_1" xmlns="http://www.w3.org/2000/svg" x="0" y="0" viewBox="0 0 165 57" style="enable-background:new 0 0 165 57" xml:space="preserve"><style>.st0{fill:#fff}</style><path class="st0" d="M46.6 8.1c.2.5.2 2-1.2 3.2-1.3 1.1-2.6 1.6-3.4 1.1-.6-.4-1-1.4.2-3.2 0 0 .2-.3.3-.1 0 0-.1.3-.2.4 0 .1-.8 1.8 0 2.1.3.1 1.2-.1 2.1-.9.8-.8 1.9-2 1-2.9-.8-.8-2.4 0-3.7.5-.5.2-1.1.5-1.7.9 0 .6 0 1.2.1 1.6.1.6-.1 1.6-.2 1.8-.1.2-.4.5-.5.5-.1 0-.3 0-.4-.3-.1-.3-.4-.7-.6-1-.3-.3-1-.6-1-.6-.5.3-.7.5-.9.5-.8 0-1.4-1.4-.5-1.6.1 0 .4.1.6.2.7-.2 1.7-.8 2.8-1.3V6.3c-.6.2-1.2.4-1.3.4-.3.1-.9 0-1.2-.2-.5-.3-.9-.7-.9-.8-.1-.1-.1-.2-.1-.2 0-.1.4.1.5.1.2.1.8.2 1.4.2.3 0 1-.2 1.5-.4v-.5c0-.5 0-1.2-.2-1.7s-.7-.6-1-.8c-.1 0-.2-.1-.2-.1 0-.1.2-.2.3-.2.6-.2 1.4.1 1.7.3.4.3.3.9.2 1v.3c.1.1.2.3.4.4.3.2.6.4.8.4.2 0 .6 0 .6.4 0 .3-.1.4-.4.5-.1 0-.8.3-1.5.5v2.5c.5-.3 1-.5 1.4-.7 1-.3 4.2-1.7 5.2.4zm-7.3 1.6c-.6.4-1.1.8-1.6 1.2.5.3 1.2.6 1.3.7.2 0 .2 0 .3-.2V9.7zm.7-4.6c.1-.1.2-.1.3-.1.2-.2.2-.2 0-.4-.1-.1-.2-.2-.2-.3V5c-.1 0-.1 0-.1.1zm8.5 1.2c-.3.2-.7.1-.8-.1-.4-.5-.8-.8-1.4-1-.6-.1-1.2.5-1.2.5h-.2v-.2c.5-.6.9-1 1.9-1.1.9-.1 1.5.5 1.7.8.2.3.3.9 0 1.1zM55.8.9c.1-.2.2-.4.4-.4s1.1.8 1.1 1c-.1.1-.3.3-.6.3v1.5c0 1.5 0 2 .1 2.9-.1.2-.6.4-.9.4-.1 0-.2-.2-.2-.3v-.5h-3.2v4.8c0 1.9.1 2.6.1 3.8-.1.2-.5.5-.9.5-.2 0-.4-.2-.4-.3.1-1.4.1-2.1.2-4.2V3.9c0-1.1-.1-2.4-.2-3.3l1.2.6h3l.3-.3zm-.1.8h-3.2v1.6h3.2V1.7zm-3.2 3.6h3.2V3.7h-3.2v1.6zm3.2 6.9v.5c0 .2-.5.4-.9.4-.1 0-.2-.2-.2-.3 0-.5.1-.8.1-1.5v-.9c0-.9 0-2.1-.2-2.9l1.3.5h3.5l.2-.3c.1-.1.2-.3.3-.3.2 0 1.1.7 1.1.9-.1.1-.3.2-.6.3v1.3c0 1.3 0 1.7.1 2.5-.1.2-.6.4-.9.4-.2 0-.2-.2-.2-.3 0-.1 0-.2.1-.3v-.3h-3.7v.3zm0-.7h3.7v-3h-3.7v3zm3.8-5.3c0 .1-.4.3-.8.3-.1 0-.2-.2-.2-.3 0-.5.1-.8.1-1.6v-1c0-1-.1-2.2-.2-3l1.2.6h3.2l.2-.3c.1-.2.2-.3.4-.3s1.2.8 1.2 1c-.1.1-.4.3-.7.3v11.4c0 .8-.2 1.3-1.6 1.5 0-.3-.1-.6-.3-.7-.2-.2-.6-.3-1.3-.4v-.2s1.5.1 1.9.1c.3 0 .4-.1.4-.4V5.8h-3.4v.4zm3.4-4.5h-3.4v1.6h3.4V1.7zm-3.4 3.6h3.4V3.7h-3.4v1.6zM68.1 3.4c.1-.2.9.1 1.3.4.3.3.4.6.4.9 0 .7-.7 2.4-.5 3.8.2 1.5 1.1 2.2 1.3 2.4.3.2.4.2.5.2.1 0 .2 0 .3-.3.2-1 .5-1.7.6-1.9.1-.2.2-.3.2-.3.1 0 0 .2 0 .4-.2 1-.1 1.9-.1 2.2 0 .3.3.8.3.9 0 .2 0 .4-.2.5-.2.1-1 0-2.1-1-.4-.4-1.4-1.5-1.6-3.2-.2-1.7.2-2.9.2-3.3 0-.4.1-.7 0-1-.1-.3-.3-.5-.5-.7-.1.1-.1.1-.1 0zm7.3 1.9c0-.1 0-.1.1-.1s1.5-.5 2.8.7c.6.6 1 1.4 1 1.8 0 .4-.1 1-.8.8-.3-.1-.4-.3-.4-.5-.1-.1-.6-2-1.4-2.4-.5-.2-1.1-.2-1.2-.2-.1 0-.1 0-.1-.1zM82.6 7.4l-.1-.2c1.7-1 3.7-2.8 5.1-4.5.6-.8 1.1-1.8 1.3-2.7l2 .6c0 .2-.2.3-.6.3 1.4 2 3.9 3.7 6.6 4.9V6c-.4.1-.8.4-.9.8-2.5-1.3-4.9-3.4-6-5.7-1.5 2.3-4.4 5-7.4 6.3zm3.7 6.6v.5c0 .2-.5.4-.9.4-.2 0-.3-.2-.3-.3 0-.6.1-.9.1-1.8v-1.1c0-1.1-.1-2.4-.2-3.3l1.4.6h6.5l.2-.3c.1-.2.2-.3.4-.3s1.2.8 1.2 1c-.1.1-.4.3-.6.3v1.6c0 1.6 0 2.1.1 3.1-.1.2-.7.4-1 .4-.2 0-.2-.2-.2-.3 0-.1 0-.2.1-.4v-.4h-6.7v.3zm2.1-7.5c-.7 0-1.4.1-2.1.2l-.4-.8c.7.1 1.4.1 2.1.1h3.3l.3-.5c.2-.2.3-.5.4-.5.2 0 1.3.9 1.3 1.2 0 .2-.2.2-.4.2h-4.5zm-2.1 6.7H93V9.4h-6.7v3.8zM105 14c0-.1.1-.1.2-.2 2-.5 3.3-1.8 3.9-2.4.9-1.1 1.9-3.5 0-4.9-1.6-1.2-4.4-.2-5.9 1.6-.1 2.8.1 3.7.3 4.4.2.9-.1 1.2-.4 1.3-.3 0-.6-.3-.7-.7-.1-.8-.4-1.8-.7-2.8-.4.6-.6 1.1-.7 1.3-.3.5-.6.6-.8.6-.2-.1-.3-.2-.3-.6.1-.4.8-1.4 1.5-2.1-.2-.6-.4-1.1-.7-1.7-.1-.2-.2-.4-.3-.5-.1-.1-.4-.4-.3-.6.1-.1.3-.2.5-.2.4 0 .9-.1 1.2-.2.3-.2.7-.5 1-.7 0-.7.1-1.1.2-1.5.1-.6.1-.9.1-1.3s-.1-.9-.5-1.3c-.1-.1-.3-.3-.2-.3.1-.1.4 0 .8.2.5.2.9.6.9 1.1 0 .5-.3.8-.4 1.5-.1.3-.1.7-.2 1.1l.1-.1c.3-.2.5-.1.8.1.3.2.1.8-.2 1.2-.1.1-.5.8-.5.8v.1c3.3-2.5 5.7-1.4 6.4-.8 1.4 1.2 1.8 3.5.1 5.4-1.5 1.6-4.1 2.3-5 2.5 0-.3-.2-.3-.2-.3zm-3.4-4.8.3-.3c.3-.4.6-.9.8-1.4 0-.4.1-.8.1-1.2-.6.5-.6.8-1.2.9-.2.1-.6.1-.8 0 .2.4.5 1.2.8 2zm1-.3c-.3.4-.5.7-.7 1.1.2.5.4.9.5 1.1.1.2.1 0 .1-.2s.1-1 .1-2zM128.3 5.7c0 .3-.3.5-.7.4-.4-.1-1.1-.2-1.9-.2h-1.6c-.1.9-.2 1.9-.4 2.6-.2.8-.6 1.6-1.3 1.6-.4 0-.4-.2-.4-.3-.1-.7-.9-1.6-1-1.6V8c0-.1.2 0 .3 0 .1 0 .8.5 1 .6.2.1.4 0 .5 0 .4-.4.6-1.5.7-2.6-1.1.1-2.4.4-4.2 1.1 0 1.4.1 3.2.3 4.2.1.6.5.9 1 1 .5.1 2.5 0 3.6-.3.5-.1 1.1-.1 1.2.4.1.5-.6.6-1 .7-.4.1-4.3.6-5.2-.8-.5-.7-.7-4.2-.7-5 0 0-.1 0-.1.1-1 .4-1.4.8-1.9.8-.7.1-1.2-.3-1.4-.7-.2-.4-.2-.8-.1-.9.1-.1.2 0 .3.1.1.1.5.4 1.1.3.2 0 1.1-.3 2.2-.6 0-1-.1-2.3-.3-2.5-.5-.6-.9-.5-.9-.6 0-.2.1-.3.3-.3.2 0 1.1-.2 1.6.4.2.1.2.6.2.8v2c1.3-.4 2.8-.8 4.2-.9 0-1.1 0-2.1-.1-2.3-.1-.6-.6-.8-.7-.9-.1-.1-.2-.1-.1-.3 0-.1.2-.1.4-.1.3 0 .8.1 1.1.3.2.2.5.4.4.8 0 .2-.1.4-.2.8v.1c.6.3 2.1 1.2 2.8 1.2.3 0 .6-.1.8 0 0 .3.3.5.2.8zm-3.6-1.2s-.2-.2-.4-.3c0 .3 0 .7-.1 1.2h.5c.2 0 .8 0 .8-.2s-.6-.6-.8-.7zM4.1 52.4C.8 49.5 0 45.7 0 42.5c0-2.2.8-6.2 3.8-9.1 2-2 5.1-3.6 10.2-3.6 1.3 0 3.2.1 4.9.4 1.3.2 2.3.3 3.6.5.2 0 .3.2.3.4 0 .3-.1.7-.2 1.9-.1 1.1-.1 2.9-.1 3.5 0 .5-.1.7-.3.7-.2 0-.3-.2-.3-.7 0-1.3-.5-2.7-1.4-3.4-1.2-1-3.8-1.9-6.7-1.9-4.5 0-6.5 1.3-7.7 2.4-2.4 2.3-3 5.3-3 8.7 0 6.4 4.9 12.3 12.1 12.3 2.5 0 4.5-.3 5.8-1.7.7-.7 1.1-2.2 1.2-2.8.1-.4.1-.5.3-.5.2 0 .2.2.2.5 0 .2-.4 3.1-.7 4.3-.2.6-.3.7-.9 1-1.3.5-3.9.8-6 .8-5-.2-8.4-1.4-11-3.8zM26.7 44.8c0-4.5 3.5-11.1 11.7-11.1 6.6 0 11.7 4 11.7 10.7 0 6.4-4.7 11.6-11.9 11.6-8.2-.1-11.5-6.2-11.5-11.2zm20.2.4c0-6.7-4.2-10.5-8.7-10.5-4.7 0-8.4 2.9-8.4 9.2 0 6.6 3.7 10.9 9.3 10.9 2.2 0 7.8-1.1 7.8-9.6zM56.3 35c0-1 .1-1.4.4-1.4.2 0 .8.7 1 .9.3.3 5 5.1 9.7 9.9 2.6 2.5 6 6 6.8 6.8l-.4-13.9c0-1.8-.2-2.4-1.1-2.6-.6-.1-1.1-.1-1.3-.1-.3 0-.4-.1-.4-.3 0-.2.3-.2.6-.2 1.4 0 2.8.1 3.1.1.3 0 1.4-.1 2.7-.1.4 0 .5 0 .5.2 0 .1-.1.2-.3.3-.2 0-.5 0-.8.1-.8.2-1 .5-1 2.5L75.7 54c0 1.7-.1 1.8-.3 1.8-.2 0-.6-.2-2.2-1.8-.1-.1-4.8-4.7-7.7-7.5-3.5-3.6-6.8-7.1-7.7-8l.4 13.1c.1 2.3.3 3.2 1.1 3.4.5.1 1.1.1 1.4.1s.4.1.4.2c0 .2-.2.2-.5.2-1.8 0-3-.1-3.2-.1-.2 0-1.5.1-2.9.1-.3 0-.5 0-.5-.2 0-.1.1-.2.5-.2.2 0 .6 0 1-.1.7-.2.9-1.1.9-3.6-.1-16-.1-10.8-.1-16.4zM91.8 47.3c0 2.6 0 5 .2 6.2.1.8.2 1.3 1 1.5.4.1 1 .1 1.3.1s.4.1.4.2c0 .2-.1.3-.4.3-1.7 0-3.7-.1-3.8-.1-.1 0-2.1.1-3 .1-.4 0-.5-.1-.5-.2s.1-.2.4-.2h.7c.6-.1.7-.5.9-1.6.1-1.2.1-3.6.1-6.1v-12h-4.2c-2.1 0-2.6.4-3.1 1.1-.3.5-.4.9-.5 1-.1.2-.2.3-.3.3-.1 0-.2-.1-.2-.3 0-.2.5-2.4.7-3.3.1-.4.2-.5.3-.5.2 0 .9.3 1.5.4 1.2.1 2.1.2 2.1.2h11c.9 0 1.9-.1 2.4-.2.4-.1.5-.1.6-.1.1 0 .2.2.2.3 0 .9-.1 3.1-.1 3.4 0 .3-.1.4-.2.4-.2 0-.2-.1-.2-.4v-.5c-.1-1.3-.6-1.7-4-1.7h-3.3v11.7zM107.3 47.4c-.2 0-.3.1-.3.3l-1.5 4.2c-.3.9-.6 1.8-.6 2.4 0 .6.4.9 1.1.9h.2c.3 0 .4.1.4.2 0 .2-.3.2-.5.2-.7 0-2.3-.1-2.6-.1-.3 0-1.8.1-3.2.1-.4 0-.5-.1-.5-.2s.1-.2.4-.2h.7c1.4-.1 2-1.2 2.6-2.6l6.7-17.7c.4-1 .5-1.1.7-1.1.2 0 .3.1.7 1.1.5 1.1 5 12.8 6.8 17 1.1 2.6 2.1 3.1 2.5 3.3.4.2.9.2 1.1.2.2 0 .4.1.4.2 0 .2-.1.2-.5.2-.3 0-2.8 0-5.1-.1-.6 0-.8-.1-.8-.2s.1-.2.2-.2c.1-.1.3-.2.1-.7l-2.6-6.7c-.1-.1-.1-.2-.3-.2h-6.1zm5.7-1.2c.1 0 .1-.1.1-.2l-2.6-7.4c-.2-.5-.2-.5-.4 0l-2.5 7.4c-.1.1 0 .2.1.2h5.3zM126.7 52.9c-2.8-2.5-3.6-5.8-3.6-8.5 0-1.9.7-5.2 3.4-7.7 1.8-1.7 4.5-3 9-3 1.5 0 2.8.1 4.4.4 1.1.2 2.1.3 2.9.4.3 0 .3.2.3.3 0 .3-.1.6-.2 1.6 0 .9 0 2.7-.1 3.1 0 .5-.1.6-.3.6-.2 0-.3-.2-.3-.6 0-1-.5-2.3-1.3-2.9-1-.9-3.4-1.7-5.9-1.7-3.7 0-5.4 1-6.4 1.9-2.2 2-2.7 4.4-2.7 7.3 0 5.6 4.5 10.5 10.4 10.5 2.3 0 4-.2 5.1-1.4.6-.6.9-1.5 1.1-2.4.1-.3.2-.5.4-.5s.2.2.2.5-.4 3-.7 3.7c-.2.5-.3.6-.8.8-1.2.5-3.4.7-5.3.7-4.2-.1-7.3-1.1-9.6-3.1zM156.7 47.3c0 2.6 0 5 .2 6.2.1.8.2 1.3 1 1.5.4.1 1 .1 1.3.1s.4.1.4.2c0 .2-.1.3-.4.3-1.7 0-3.7-.1-3.8-.1-.1 0-2.1.1-3 .1-.4 0-.5-.1-.5-.2s.1-.2.4-.2h.7c.6-.1.7-.5.9-1.6.1-1.2.1-3.6.1-6.1v-12h-4.2c-2.1 0-2.6.4-3.1 1.1-.3.5-.4.9-.5 1-.1.2-.2.3-.3.3-.1 0-.2-.1-.2-.3 0-.2.5-2.4.7-3.3.1-.4.2-.5.3-.5.2 0 .9.3 1.5.4 1.2.1 2.1.2 2.1.2h11c.9 0 1.9-.1 2.4-.2.4-.1.5-.1.6-.1.1 0 .2.2.2.3 0 .9-.1 3.1-.1 3.4 0 .3-.1.4-.2.4-.2 0-.2-.1-.2-.4v-.5c-.1-1.3-.6-1.7-4-1.7h-3.3v11.7z"/></svg>