<svg xmlns="http://www.w3.org/2000/svg" viewBox="0 0 307 104" style="enable-background:new 0 0 307 104" xml:space="preserve"><path style="fill:#fff" d="M0 0h307v104H0z"/><path style="fill:none;stroke:#2b2c28;stroke-width:1.005;stroke-miterlimit:10" d="M6.4 6.4h294.3v91.2H6.4z"/><path d="M90.5 53.2c.3.6.3 2.5-1.6 4.1-1.6 1.4-3.3 2-4.3 1.3-.7-.4-1.2-1.7.4-4 0 0 .3-.3.4-.2 0 .1-.1.4-.2.6-.1.1-.9 2.3 0 2.7.3.1 1.6-.1 2.6-1.1 1.1-1 2.4-2.6 1.3-3.7-1.1-1.1-3.2-.2-4.7.5-.7.3-1.4.7-2.2 1.2 0 .8.1 1.5.1 2 .1.8-.1 2.1-.3 2.3-.1.2-.5.6-.7.6-.1 0-.3 0-.5-.4s-.5-.9-.8-1.3c-.3-.4-1.2-.8-1.2-.8-.6.4-.9.7-1.2.7-1 0-1.7-1.8-.6-2 .1 0 .5.1.8.3.8-.2 2.2-1 3.5-1.7v-3.4c-.8.3-1.5.5-1.7.6-.4.1-1.2 0-1.5-.3-.5-.3-1-.8-1.1-.9-.1-.1-.2-.2-.1-.3.1-.1.5.1.7.2.3.1 1 .3 1.8.2.4 0 1.2-.3 1.9-.5v-.6c0-.6 0-1.5-.2-2.2-.2-.6-.9-.8-1.3-1-.1-.1-.3-.1-.3-.2s.2-.2.4-.3c.7-.3 1.7.1 2.1.4.4.3.3 1.1.3 1.3v.4c.1.2.3.4.5.5.4.3.7.4 1 .5.3 0 .7.1.7.5s-.1.5-.5.6c-.1.1-.9.3-1.8.7v3.2c.7-.3 1.3-.7 1.8-.9 1.2-.4 5.2-2.3 6.5.4zm-9.2 2-2.1 1.5c.7.4 1.5.8 1.7.8.2.1.3 0 .4-.2-.1-.1-.1-1 0-2.1zm.9-5.8c.2-.1.3-.1.3-.2.2-.2.3-.3 0-.5-.1-.1-.2-.3-.3-.4l-.1.9c.1 0 .1.1.1.2zm10.7 1.5c-.3.3-.9.1-1-.1-.5-.6-.9-1.1-1.7-1.2-.8-.2-1.5.6-1.6.7h-.2c-.1 0 0-.2.1-.3.6-.8 1.2-1.3 2.3-1.4 1.2-.1 1.9.6 2.2 1 .2.3.2 1-.1 1.3zM108.6 44.1c.2-.2.3-.4.4-.4.2 0 1.4 1 1.4 1.3-.1.1-.4.3-.7.4v1.9c0 1.9.1 2.5.1 3.6-.2.2-.8.5-1.2.5-.2 0-.2-.2-.2-.4 0-.1 0-.1.1-.3v-.4h-4.1v6.2c0 2.4.1 3.3.2 4.8-.2.3-.6.6-1.2.6-.2 0-.5-.2-.5-.4.1-1.7.2-2.6.2-5.3V48c0-1.4-.1-3.1-.3-4.2l1.6.8h3.8l.4-.5zm-.1 1h-4.1v2h4.1v-2zm-4.1 4.6h4.1v-2h-4.1v2zm4.1 8.7c0 .4 0 .5.1.6-.1.2-.6.5-1.1.5-.2 0-.3-.2-.3-.4.1-.7.1-1 .1-2V56c0-1.2-.1-2.7-.2-3.6l1.5.7h4.4l.3-.4c.2-.2.3-.4.4-.4.2 0 1.4.9 1.4 1.2-.1.1-.4.3-.7.4v1.7c0 1.6.1 2.2.1 3.2-.1.2-.8.5-1.2.5-.2 0-.3-.2-.3-.4 0-.1 0-.2.1-.4v-.4h-4.6v.3zm0-.9h4.6v-3.8h-4.6v3.8zm4.7-6.7c0 .1-.5.4-1.1.4-.2 0-.3-.2-.3-.4.1-.7.1-1 .1-2v-1.2c0-1.2-.1-2.7-.2-3.8l1.6.7h4l.3-.4c.2-.2.3-.4.4-.4.2 0 1.6 1 1.6 1.3-.1.2-.5.3-.8.4v14.5c0 1-.2 1.7-2 1.9-.1-.4-.2-.7-.4-.9-.3-.2-.8-.4-1.7-.5v-.3s1.9.1 2.3.1.5-.1.5-.5v-9.5h-4.3v.6zm4.3-5.7h-4.3v2h4.3v-2zm-4.3 4.6h4.3v-2h-4.3v2zM130.6 47.3c.1-.2 1.1.1 1.6.5.4.4.5.7.5 1.1 0 .8-.8 3-.6 4.8.3 1.9 1.4 2.8 1.7 3 .3.2.5.3.6.3.1 0 .2 0 .3-.4.3-1.3.6-2.2.7-2.4.1-.2.2-.4.3-.4.1 0 0 .3 0 .5-.3 1.3-.2 2.4-.1 2.8 0 .4.3 1 .4 1.2 0 .2 0 .5-.2.7-.3.2-1.3 0-2.7-1.2-.5-.5-1.7-1.9-2-4-.2-2.1.2-3.7.2-4.3 0-.5.1-.9 0-1.2-.1-.3-.4-.7-.7-.9v-.1zm9.2 2.4c0-.1 0-.1.2-.2.1 0 1.9-.7 3.6.8.8.8 1.2 1.8 1.2 2.3 0 .5-.2 1.2-1 1.1-.4-.1-.4-.4-.5-.6-.1-.2-.7-2.5-1.8-3.1-.6-.3-1.4-.2-1.5-.2-.2 0-.2 0-.2-.1zM155.4 52.4l-.1-.3c2.2-1.3 4.7-3.5 6.4-5.8.8-1.1 1.4-2.3 1.7-3.4l2.5.8c-.1.2-.3.3-.8.4 1.7 2.6 4.9 4.8 8.3 6.2v.3c-.5.1-1 .5-1.1 1.1-3.2-1.7-6.2-4.3-7.5-7.3-1.9 2.9-5.7 6.2-9.4 8zm4.7 8.3c0 .3 0 .5.1.6-.1.2-.6.5-1.2.5-.2 0-.3-.2-.3-.4.1-.8.1-1.2.1-2.3v-1.4c0-1.4-.1-3.1-.3-4.2l1.7.8h8.2l.3-.4c.2-.2.3-.4.5-.4s1.6 1 1.6 1.3c-.1.2-.4.3-.8.4v2c0 2 .1 2.7.1 3.9-.2.2-.8.5-1.3.5-.2 0-.3-.2-.3-.4 0-.1 0-.2.1-.5v-.4h-8.5v.4zm2.7-9.6c-.9 0-1.8.1-2.7.3l-.5-1c.9.1 1.8.1 2.7.2h4.2l.4-.6c.2-.3.4-.6.5-.6.2 0 1.6 1.2 1.6 1.5-.1.2-.2.3-.5.3H162.8zm-2.7 8.6h8.5v-4.8h-8.5v4.8zM190.1 60.7c0-.1.1-.2.3-.2 2.5-.6 4.2-2.2 5-3.1 1.1-1.4 2.4-4.4 0-6.2-2-1.5-5.5-.2-7.5 2.1-.1 3.5.2 4.8.3 5.6.2 1.2-.1 1.6-.4 1.6-.4 0-.7-.3-.8-.9-.1-1-.5-2.3-.9-3.6-.4.8-.8 1.4-.9 1.7-.4.7-.7.8-1 .7-.2-.1-.4-.3-.4-.8.1-.5 1.1-1.7 1.9-2.7-.3-.7-.5-1.4-.8-2.1-.1-.2-.3-.5-.4-.7-.1-.2-.5-.5-.4-.8.1-.2.4-.2.6-.2.5 0 1.1-.1 1.5-.3.4-.2.9-.6 1.3-.9.1-.9.1-1.3.2-1.9.1-.8.2-1.1.2-1.6s-.1-1.2-.6-1.6c-.2-.2-.4-.3-.3-.4.1-.1.6 0 1 .2.6.3 1.1.8 1.2 1.3 0 .6-.3 1.1-.6 1.9-.1.4-.2.8-.3 1.4l.1-.1c.4-.3.6-.1 1 .1.4.3.1 1-.3 1.6-.1.2-.6 1-.7 1 0 .1 0 .1.1.1 4.2-3.2 7.2-1.7 8.1-1 1.8 1.5 2.2 4.4.1 6.8-1.9 2.1-5.2 3-6.3 3.1 0-.1-.2 0-.3-.1zm-4.2-6.1c.1-.2.2-.3.3-.4.4-.5.8-1.2 1.1-1.8 0-.5.1-1 .1-1.6-.8.6-.8 1-1.5 1.2-.2.1-.8.1-1.1 0 .3.6.7 1.6 1.1 2.6zm1.3-.4c-.3.4-.6.9-.9 1.3.3.6.5 1.1.6 1.4.1.2.2 0 .1-.2 0-.2.1-1.2.2-2.5zM226.1 50.1c-.1.4-.3.7-.8.6-.5-.1-1.4-.2-2.4-.2h-2c-.1 1.2-.2 2.4-.5 3.3-.3 1-.7 2-1.6 2-.5 0-.5-.2-.5-.4-.1-.9-1.2-2-1.3-2.1-.1-.1-.2-.1-.1-.2 0-.1.2 0 .3 0 .1.1 1 .6 1.3.8.3.1.5 0 .6 0 .6-.5.8-1.9.9-3.3-1.4.1-3 .5-5.3 1.4 0 1.8.1 4.1.4 5.4.2.8.6 1.1 1.3 1.3.7.1 3.2 0 4.6-.3.6-.2 1.4-.1 1.5.6.1.7-.8.8-1.3.9-.5.1-5.4.8-6.6-1-.6-.9-.8-5.4-.8-6.3v-.1c-.1 0-.1 0-.2.1-1.2.5-1.8 1-2.4 1.1-.9.1-1.5-.3-1.8-.8-.3-.5-.2-1-.1-1.1.1-.2.2 0 .4.2.1.1.6.5 1.4.4.3 0 1.3-.4 2.7-.8-.1-1.2-.2-2.9-.4-3.1-.6-.8-1.1-.6-1.2-.8 0-.2.1-.3.4-.4.3-.1 1.3-.2 2.1.4.2.2.2.8.2 1v2.5c1.6-.5 3.5-1 5.3-1.2 0-1.4 0-2.6-.1-2.9-.1-.8-.7-1.1-.9-1.2-.1-.1-.3-.2-.1-.3.1-.1.3-.2.5-.2.3 0 1.1.1 1.4.4.3.2.6.6.5 1-.1.3-.1.6-.2 1v.1c.7.4 2.6 1.5 3.5 1.5.4 0 .7-.1 1 0 0 .1.3.3.3.7zm-4.6-1.4c-.1 0-.3-.2-.5-.4 0 .4 0 .9-.1 1.5h.6c.2 0 1 0 1-.2.1-.3-.7-.8-1-.9z"/></svg>