<svg version="1.1" id="レイヤー_1" xmlns="http://www.w3.org/2000/svg" x="0" y="0" viewBox="0 0 46 33" xml:space="preserve"><style>.st1{fill:#fff}.st3{fill:#231815}</style><path d="M30.3 8.2c3 1.5 4.9 3.6 4.9 5.8 0 3.7-3.6 4.8-4.9 4.8-1.3 0-4.9-1.1-4.9-4.8 0-2.2 1.8-4.3 4.9-5.8zM5.3 14c0-2.2 1.9-4.3 4.9-5.8 3 1.5 4.9 3.6 4.9 5.8 0 3.7-3.6 4.8-4.9 4.8-1.3 0-4.9-1-4.9-4.8zM.2 24.3V5.8c2.6 0 5.2.5 7.6 1.3-2.6 1.7-4.5 4-4.5 6.8 0 5.4 5 6.8 6.9 6.8 1.9 0 6.9-1.4 6.9-6.8 0-2.9-1.9-5.2-4.5-6.8 2.3-.9 5-1.3 7.6-1.3 2.6 0 5.2.5 7.6 1.3-2.6 1.7-4.5 4-4.5 6.8 0 5.4 5 6.8 6.9 6.8 1.9 0 6.9-1.4 6.9-6.8 0-2.9-1.9-5.2-4.5-6.8 2.3-.8 5-1.3 7.6-1.3v18.5H.2zM30.3 5.8c-3-1.3-6.6-2-10.1-2s-7 .7-10.1 2c-3-1.3-6.6-2-10-2V0h40.2v3.8c-3.4 0-7 .7-10 2z" fill="#d5142d"/><path class="st1" d="M40.3 31.4c0 .8-.7 1.5-1.5 1.5H1.7c-.8 0-1.5-.7-1.5-1.5v-3.9c0-.8.7-1.5 1.5-1.5h37.2c.8 0 1.5.6 1.5 1.5v3.9z"/><path d="M38.8 33H1.7c-1 0-1.7-.7-1.7-1.6v-3.9c0-.9.7-1.6 1.7-1.6h37.2c.9 0 1.6.7 1.6 1.6v3.9c0 .9-.8 1.6-1.7 1.6zM1.7 26.1c-.7 0-1.3.6-1.3 1.3v3.9c0 .7.6 1.3 1.3 1.3h37.2c.7 0 1.3-.6 1.3-1.3v-3.9c0-.7-.6-1.3-1.3-1.3H1.7z" fill="#221714"/><path class="st3" d="M5 28.3v.3H4v-.3h1zm-3.3 2c.2-.1.2-.1.6-.2v1.2c0 .1 0 .1-.1.1h-.5v.6h.6c.4 0 .4-.2.4-.4v-1.8c.3 0 .3 0 .5-.1v-.5c-.2.1-.3.1-.4.1v-1.1h.4l.3.3.2-.2v1.3h3.2v-.4H5.5v-.3h1v-.3h-1v-.3h1v-.4h-1v-.3h1.2v-.4h-1c0-.1.1-.3.2-.4l-.6-.1c0 .1-.1.4-.2.5h-.8c.1-.2.1-.3.2-.5h-.6c-.1.2-.2.7-.8 1.3v-.3h-.3v-1h-.6v1h-.6v.5h.6v1.3c-.3.1-.4.1-.6.2l.1.6zm2.4-2.7H5v.3H4l.1-.3zm.9 1.3v.3H4v-.3h1zm-1.8.9v.5H4c-.1.6-.2 1-1.2 1.3l.4.4c1-.3 1.3-.9 1.4-1.7h.8l-.2.6h.9c0 .5-.1.6-.3.6H5l.2.5H6c.5 0 .6-.3.7-1.6h-.8l.2-.6H3.2zM7.8 29.7v-.4h1.6v.4H7.8zm0 2h.6v-1.6h1.1V32h.5v-1.9h1.1v.9c0 .1 0 .2-.1.2h-.6l.1.6h.8c.3 0 .4-.3.4-.5V30h.6v-1.3h-5V30h.5v1.7zm2.2-2.5h1.7v.4H10v-.4zm-2.2-2.1h-.7v.5h.7v.8h3.9v-.8h.7v-.5h-.7v-.4h-.6v.4H10v-.4h-.5v.4H8.4v-.4h-.6v.4zm3.3.5v.4H10v-.4h1.1zm-1.6 0v.4H8.4v-.4h1.1zM14 30c-.3 0-.6-.3-.6-.6s.3-.6.6-.6.6.3.6.6-.3.6-.6.6zM18.2 27.7c.5 0 .8.1.8.8 0 .7-.3.8-.8.8h-1.6v-1.6h1.6zm-2.2-.6v4.6h.6V30h1.6c1 0 1.4-.4 1.4-1.4 0-.9-.3-1.4-1.3-1.4H16zM20.8 27.1V29h2.4v-1.9h.6v4.6h-.6v-2h-2.4v2h-.6v-4.6h.6zM27.3 28.5c0-.6-.1-.9-1.1-.9-.6 0-1 .1-1 .7 0 .4.2.5.6.6l1.2.1c.5.1 1.2.2 1.2 1.3 0 1.3-1 1.4-1.8 1.4-1.4 0-1.8-.4-1.8-1.6h.6c0 .7.1 1 1.2 1 .8 0 1.1-.2 1.1-.7 0-.5-.3-.6-.6-.7l-1.4-.1c-.3 0-.6-.2-.7-.4-.2-.3-.2-.6-.2-.8 0-.3.1-.8.4-1 .2-.2.6-.3 1.2-.3.8 0 1.1.1 1.3.2.4.3.5.7.5 1.2h-.7zM32.5 27.6c1.2 0 1.3.4 1.3 1.7 0 1.2 0 1.7-1.2 1.7s-1.3-.3-1.3-1.7c-.1-1.2 0-1.7 1.2-1.7zm0-.6c-.8 0-1.7.1-1.9 1.4-.1.3-.1.7-.1 1 0 2 .5 2.3 2 2.3 1.6 0 1.9-.7 1.9-2.3 0-1.9-.4-2.4-1.9-2.4zM35.7 27.1v4.6h-.6v-4.6h.6zm2.9 0l-2.1 2.2 2.3 2.3h-.9l-2.2-2.3 2.1-2.2h.8z"/><path class="st1" d="M45.6 22.2c0 1.1-.9 2.1-2 2.1s-2.1-.9-2.1-2.1c0-1.1.9-2.1 2.1-2.1 1.1 0 2 1 2 2.1z"/><path d="M41.4 22.2c0 1.2 1 2.1 2.1 2.1 1.2 0 2.1-1 2.1-2.1 0-1.2-1-2.1-2.1-2.1s-2.1.9-2.1 2.1z" fill="#fff" stroke="#221714" stroke-width=".363"/><path class="st3" d="M44.1 21.9c-.1.1-.2.1-.5.1H43v-.9h.6c.2 0 .3 0 .4.1.1.1.2.2.2.4 0 .1 0 .2-.1.3zm-.1.5c.2 0 .3-.1.4-.2.2-.2.2-.3.2-.5 0-.3-.1-.5-.3-.6-.2-.1-.4-.2-.7-.2h-.9v2.7h.3v-1.1h.6l.6 1.1h.4l-.6-1.2z"/></svg>