<svg xmlns="http://www.w3.org/2000/svg" viewBox="0 0 191 82" style="enable-background:new 0 0 191 82" xml:space="preserve"><path d="M67.5 47.6c.3-3.5 1.2-6.9 2.6-10.1.7-1.6 1.6-3.1 2.7-4.5s2.2-2.7 3.6-3.9c2.6-2.4 5.6-4.2 8.9-5.5 3.2-1.3 6.7-2 10.2-2.2 1.7-.1 3.5-.1 5.2.2 1.7.2 3.5.7 5.1 1.2 3.3 1.2 6.4 2.9 9.1 5.2 2.7 2.3 4.9 5 6.7 8 1.7 3 2.9 6.4 3.5 9.8.1.4 0 .7-.2.7s-.4-.2-.5-.6c-.5-3.4-1.6-6.7-3.3-9.6-1.7-3-4-5.6-6.6-7.8-2.7-2.1-5.7-3.8-8.9-4.9-3.2-1.1-6.6-1.6-10-1.6-1.7 0-3.4.2-5.1.5-1.7.4-3.3.9-4.9 1.6-3.1 1.4-6 3.3-8.4 5.7-1.2 1.2-2.3 2.5-3.3 3.8-1 1.4-1.9 2.8-2.7 4.3-.8 1.5-1.4 3.1-1.9 4.7s-.8 3.3-1 5c0 .4-.2.6-.4.6-.3.1-.4-.3-.4-.6zM63.5 45.8c.1 0 .1 0 .2-.1h.1s.1 0 .1.1c.1.1.3.2.4.2.2-.1.3 0 .4.1.1.1.3.1.4.1v.4c-.1-.1-.3-.1-.4-.1-.1 0-.3.1-.4-.1-.1-.1-.3 0-.4 0h-.2c-.1-.1-.1-.1-.2-.1v-.2c-.1-.2 0-.3 0-.3zM50.1 43.3c.5.1 1 .2 1.4.2.2 0 .5.1.7.1.2.1.5.1.7.2.9.3 1.8.7 2.8.7 1 0 1.9.3 2.9.5.9.2 1.9.4 2.9.4.1 0 .1.1.1.2s-.1.2-.1.2c-1-.2-1.9-.3-2.9-.4-1-.1-2-.2-2.9-.5-.9-.3-1.9-.4-2.9-.5-.2 0-.5-.1-.7-.1-.2 0-.5-.1-.7-.2-.5-.2-.9-.3-1.4-.4-.1 0-.1-.1 0-.3-.1 0 0-.1.1-.1zM44.9 42H45.5c.1 0 .1.1.2.1.2.2.5.4.8.3.3-.1.5.1.8.2.2.1.5.2.8.2v.3c0 .2-.1.3-.1.3-.2-.1-.5-.2-.8-.2-.3 0-.6.1-.8-.2-.2-.2-.5-.1-.8 0h-.2c-.1 0-.1 0-.2-.1s-.2-.2-.4-.2v-.3c0-.2.1-.4.1-.4zM55.2 39.7l1.2.3c.2 0 .4.1.6.2.2.1.4.1.6.2.8.3 1.5.7 2.3.8.8.1 1.6.4 2.4.7.8.3 1.6.5 2.4.7 0 0 .1.1 0 .2 0 .1-.1.2-.1.2-.8-.3-1.6-.5-2.4-.7-.8-.2-1.6-.3-2.4-.7-.8-.4-1.6-.5-2.4-.6-.2 0-.4-.1-.6-.1-.2 0-.4-.1-.6-.2-.4-.2-.8-.3-1.2-.5v-.3l.2-.2zM51.4 38.5h.4l.1.1c.1.2.2.4.4.3.2-.1.3 0 .5.1.1.1.3.2.5.1 0 0 0 .1-.1.2 0 .1-.1.2-.1.2-.1-.1-.3-.2-.5-.2s-.4.1-.5-.2c-.1-.2-.3-.1-.5 0h-.1s-.1 0-.1-.1c-.1-.1-.1-.2-.2-.2 0 0 0-.1.1-.3 0 .2.1 0 .1 0zM61.4 37.2c.2.1.4.1.6.1.1 0 .2 0 .3.1.1 0 .2.1.2.2.3.2.6.5 1 .6.4 0 .7.3 1.1.5.3.2.7.3 1.1.4v.2c0 .1-.1.2-.1.2-.3-.2-.7-.3-1.1-.4-.4-.1-.8-.2-1.1-.4-.3-.3-.7-.3-1.1-.4-.1 0-.2 0-.3-.1-.1 0-.2-.1-.3-.1-.1-.1-.3-.2-.5-.3 0 0 0-.1.1-.2 0-.3.1-.4.1-.4zM54.2 33.9c.2.1.5.2.7.2.1 0 .2.1.4.1.1.1.2.1.3.2.4.3.8.7 1.3.7.5.1.9.4 1.3.6.4.3.9.5 1.3.6v.2c-.1.1-.1.2-.1.2-.4-.3-.9-.5-1.3-.6-.5-.2-1-.3-1.3-.6-.4-.3-.9-.4-1.4-.5H55c-.1 0-.2-.1-.3-.2-.2-.2-.4-.3-.6-.4 0 0 0-.1.1-.3-.1-.1 0-.2 0-.2zM49.9 32c.1 0 .2.1.4 0h.2l.1.1c.2.2.3.5.6.4.3-.1.4.1.6.3.2.2.4.3.6.3 0 0 0 .1-.1.3-.1.1-.1.2-.1.2-.2-.2-.4-.3-.6-.3-.2 0-.5 0-.6-.3-.1-.2-.4-.2-.7-.1h-.2c-.1 0-.1 0-.1-.1l-.3-.3s0-.1.1-.3c0-.1.1-.2.1-.2zM67.9 34.9H68.2l.1.1c.1.1.2.3.3.3.2 0 .3.1.4.2.1.1.2.2.4.2 0 0 0 .1-.1.2 0 .1-.1.2-.1.2-.1-.1-.2-.2-.4-.2-.1 0-.3 0-.4-.2-.1-.2-.3-.1-.4-.1h-.1s-.1 0-.1-.1-.1-.1-.1-.2c0 0 0-.1.1-.2 0-.2.1-.2.1-.2zM56.2 27.8c.4.3.8.5 1.3.7.2.1.4.2.6.4.2.1.4.3.6.4.8.6 1.5 1.3 2.4 1.7.9.4 1.7 1 2.5 1.5s1.7 1 2.6 1.4v.2c0 .1-.1.2-.2.1-.8-.5-1.7-1-2.6-1.4-.9-.4-1.8-.8-2.5-1.5-.8-.6-1.7-1-2.5-1.4-.2-.1-.4-.2-.6-.4-.2-.1-.4-.3-.6-.4l-1.2-.9s0-.2.1-.3c-.1-.1 0-.1.1-.1zM51.8 24.8c.1.1.2.1.4.1.1 0 .1 0 .2.1.1 0 .1.1.1.2.2.2.3.6.6.6s.5.2.7.4c.2.2.4.4.7.4 0 0 0 .1-.1.2l-.2.2c-.2-.2-.4-.4-.7-.5-.3-.1-.6-.1-.7-.4-.1-.3-.5-.3-.8-.3-.1 0-.1 0-.2-.1-.1 0-.1-.1-.1-.1-.1-.2-.2-.3-.3-.3 0 0 .1-.1.1-.3.2-.1.2-.2.3-.2zM62.2 26.3c.3.3.7.5 1.1.7.2.1.4.2.5.4.2.1.3.3.5.4.6.6 1.2 1.2 1.9 1.6.7.4 1.3 1 2 1.5.6.5 1.3 1 2 1.5v.2c-.1.1-.1.1-.2.1-.6-.5-1.3-1-2-1.5s-1.4-.9-2-1.5c-.6-.6-1.3-1-2.1-1.4-.2-.1-.4-.2-.5-.3-.2-.1-.3-.2-.5-.4-.3-.3-.6-.6-.9-.8 0 0 0-.1.1-.2 0-.3.1-.4.1-.3zM59 23.8c.1.1.2.1.3.1h.1l.1.1c.1.2.1.4.3.4.2 0 .3.2.4.3.1.2.2.3.4.3 0 0-.1.1-.1.2l-.2.2c-.1-.2-.2-.3-.4-.3-.2-.1-.4-.1-.4-.3 0-.2-.3-.2-.5-.2h-.1l-.1-.1c0-.1-.1-.2-.1-.3 0 0 .1-.1.1-.2.2-.1.2-.2.2-.2zM68.9 26c.1.1.3.3.5.3.1 0 .2.1.2.2l.2.2c.2.3.4.7.8.9.4.2.6.5.8.8.2.3.5.6.8.8 0 0 0 .1-.1.2s-.1.1-.2.1c-.2-.3-.5-.6-.8-.8-.3-.2-.7-.4-.8-.8-.2-.3-.6-.5-.9-.7-.1-.1-.2-.1-.2-.2l-.2-.2c-.1-.2-.2-.3-.3-.5 0 0 0-.1.1-.2l.1-.1zM63.3 20.5c.2.2.4.3.6.4.1.1.2.1.3.2.1.1.2.2.2.3.3.4.5.9 1 1.1.5.2.7.7 1 1 .3.4.7.7 1.1 1 0 0 0 .1-.1.2s-.2.2-.2.1c-.3-.4-.6-.7-1-1.1-.4-.3-.8-.6-1.1-1-.3-.4-.7-.7-1.1-.9-.1-.1-.2-.1-.3-.2-.1-.1-.2-.2-.2-.3-.1-.2-.3-.4-.5-.6 0 0 0-.1.1-.2.1 0 .2-.1.2 0zM60 17.1c.1.1.2.1.3.1.1 0 .1 0 .2.1 0 0 .1.1.1.2.1.2.1.5.4.6.3 0 .4.3.5.5.1.2.3.4.5.5l-.2.2-.2.2c-.1-.2-.3-.4-.5-.5-.2-.1-.5-.2-.5-.5-.1-.3-.4-.3-.6-.4-.1 0-.1 0-.2-.1-.1 0-.1-.1-.1-.2s-.1-.3-.2-.3l.2-.2c.2-.1.3-.2.3-.2zM75.8 26.1c0 .1.1.1.2.1 0 0 .1 0 .1.1v.1c0 .2 0 .3.2.4.2 0 .2.2.3.3.1.1.1.2.3.3 0 0 0 .1-.1.1l-.1.1c0-.1-.1-.3-.3-.3-.1-.1-.3-.1-.3-.3 0-.2-.2-.2-.3-.3 0 0-.1 0-.1-.1v-.1c0-.1 0-.2-.1-.2l.1-.1c0-.1.1-.1.1-.1zM67.3 15.4c.3.4.6.8 1 1.1.2.2.3.4.5.6.1.2.3.4.4.6.5.8 1 1.7 1.7 2.4s1.2 1.5 1.8 2.3c.6.8 1.2 1.5 1.9 2.2 0 0 0 .1-.1.2s-.2.1-.2.1c-.6-.8-1.3-1.5-1.9-2.2-.7-.7-1.4-1.4-1.9-2.3-.5-.8-1.2-1.5-1.9-2.2-.2-.2-.3-.4-.5-.6-.2-.2-.3-.4-.4-.6-.2-.4-.5-.9-.8-1.2 0 0 0-.1.2-.2 0-.2.1-.2.2-.2zM64.1 11.1c.1.1.2.2.3.2.1 0 .1.1.2.1 0 .1.1.1.1.2.1.3.1.6.4.7.3.1.4.4.5.7.1.3.3.5.5.6l-.2.2-.2.2c-.1-.3-.3-.5-.5-.7-.2-.2-.5-.3-.5-.7 0-.3-.3-.4-.6-.6-.1 0-.1-.1-.2-.1s-.1-.1-.1-.2c0-.2-.1-.3-.1-.4l.2-.2c.1.1.2 0 .2 0zM73.5 16.1c.2.4.5.7.8 1 .1.2.3.3.4.5.1.2.2.4.3.5.4.7.7 1.5 1.2 2.2.6.6.9 1.4 1.3 2.1.4.7.8 1.4 1.3 2.1 0 0 0 .1-.1.2s-.2.1-.2 0c-.4-.7-.8-1.4-1.3-2.1-.5-.7-1-1.3-1.3-2.1-.3-.8-.9-1.4-1.4-2-.1-.2-.3-.3-.4-.5-.1-.2-.2-.3-.3-.5-.2-.4-.4-.8-.6-1.1 0 0 0-.1.2-.2-.1-.1.1-.2.1-.1zM71.3 12.7c0 .1.1.1.2.1s.1 0 .1.1v.1c0 .2-.1.4.2.5.2.1.2.3.3.4 0 .2.1.3.3.4 0 0-.1.1-.2.1-.1.1-.2.1-.2.1 0-.2-.1-.3-.3-.4-.1-.1-.3-.2-.3-.4s-.2-.3-.4-.4c0 0-.1 0-.1-.1v-.4l.2-.2c.1.1.2 0 .2.1zM79.8 18.1c.1.2.2.3.3.5.1.1.1.2.2.2 0 .1.1.2.1.3.1.4.1.8.4 1.1.3.3.4.7.5 1 .1.4.3.7.5 1l-.1.1c-.1.1-.2.1-.2.1-.1-.4-.3-.7-.5-1-.2-.3-.5-.6-.5-1-.1-.4-.4-.7-.6-1-.1-.1-.1-.2-.2-.2-.1-.1-.1-.2-.1-.3 0-.2-.1-.4-.2-.6 0 0 .1-.1.2-.1.1-.1.2-.1.2-.1zM76.5 11c.1.2.2.4.4.6.1.1.2.2.2.3 0 .1.1.2.1.4.1.5.2 1 .5 1.4.4.4.5.9.6 1.3.1.5.4.9.6 1.3 0 0-.1.1-.2.1-.1.1-.2.1-.2.1-.1-.5-.4-.9-.6-1.3-.3-.4-.6-.8-.6-1.3-.1-.5-.4-.9-.8-1.3-.1-.1-.1-.2-.2-.3-.1-.1-.1-.2-.1-.3 0-.3-.1-.5-.2-.7l.2-.2c.2-.1.3-.2.3-.1zM74.5 6.7c0 .1.1.2.3.3.1 0 .1.1.1.1v.2c0 .3-.1.5.2.7.3.1.3.4.3.6 0 .2.1.4.3.6 0 0-.1.1-.2.1-.1.1-.3.1-.3.1 0-.2-.1-.5-.3-.6-.2-.2-.4-.3-.3-.6 0-.3-.2-.4-.4-.6l-.1-.1s-.1-.1 0-.2v-.4s.1-.1.3-.1c0-.1.1-.1.1-.1zM86.3 20.5c0 .1.1.1.2.2l.1.1v.1c0 .2-.1.3.1.4.2.1.1.2.1.4 0 .1.1.3.2.4 0 0-.1 0-.2.1-.1 0-.2.1-.2.1 0-.2 0-.3-.1-.4-.1-.1-.2-.2-.1-.4 0-.2-.1-.3-.2-.4l-.1-.1V20.7s.1 0 .2-.1c-.1 0 0-.1 0-.1zM82 7.6c.1.5.3.9.5 1.4.1.2.2.5.2.7.1.2.1.5.2.7.2 1 .3 1.9.7 2.8.4.9.7 1.8.9 2.8.3.9.6 1.8 1 2.7 0 0 0 .1-.1.2h-.2c-.3-.9-.7-1.8-1.1-2.7-.4-.9-.8-1.8-1-2.8-.2-1-.6-1.8-1-2.7-.1-.2-.2-.5-.3-.7-.1-.2-.1-.5-.2-.7-.1-.5-.2-1-.3-1.4l.2-.2c.3-.2.5-.2.5-.1zM80.5 2.5c0 .1.1.3.2.4.1.1.1.1.1.2v.2c0 .3-.2.6.1.8.3.2.2.5.2.8 0 .3.1.5.2.8 0 0-.1.1-.3.1-.1 0-.3.1-.3.1 0-.3-.1-.5-.2-.8-.1-.2-.3-.5-.2-.8.1-.3-.2-.5-.4-.7 0-.1-.1-.1-.1-.2v-.2c.1-.2.1-.3 0-.4 0 0 .1-.1.3-.1.3-.2.4-.3.4-.2zM87.6 10.4c.1.4.2.8.4 1.2.1.2.1.4.2.6 0 .2.1.4.1.6.1.8.1 1.7.4 2.5.3.8.4 1.6.5 2.4.1.8.3 1.6.5 2.4 0 0-.1.1-.2.1h-.2c-.1-.8-.3-1.6-.5-2.4-.2-.8-.5-1.6-.5-2.4-.1-.8-.4-1.6-.7-2.4-.1-.2-.1-.4-.2-.6-.1-.2-.1-.4-.1-.6 0-.4-.1-.8-.2-1.2 0 0 .1-.1.2-.1.1-.2.3-.2.3-.1zM86.7 6.4c0 .1.1.2.2.2l.1.1v.1c-.1.2-.2.4 0 .5.2.1.1.3.1.5s0 .3.1.5c0 0-.1 0-.2.1h-.3c0-.2 0-.3-.1-.5s-.2-.3-.1-.5-.1-.3-.2-.5l-.1-.1v-.1c.1-.1.1-.2.1-.3 0 0 .1 0 .3-.1 0 .1.1.1.1.1zM92.8 14.5c0 .2.1.4.1.6 0 .1.1.2.1.3v.3c0 .4-.2.8 0 1.2.2.4.1.8.1 1.1 0 .4 0 .8.1 1.1 0 0-.1 0-.2.1h-.2c0-.4 0-.8-.1-1.1-.1-.4-.2-.7-.1-1.1.1-.4-.1-.8-.2-1.1 0-.1-.1-.2-.1-.3v-.3c.1-.2.1-.4 0-.6 0 0 .1 0 .2-.1.2-.1.3-.1.3-.1zM92.2 6.6c0 .2.1.5.2.7 0 .1.1.2.1.4v.4c-.1.5-.2 1 0 1.5s.1 1 .1 1.5 0 1 .1 1.5c0 0-.1.1-.2.1h-.2c0-.5 0-1-.1-1.5s-.2-1-.1-1.5-.1-1-.3-1.5c0-.1-.1-.2-.1-.4v-.4c.1-.3.1-.5 0-.7 0 0 .1-.1.3-.1h.2zM91.8 1.9c0 .1.1.2.2.3v.4c-.1.2-.3.5-.1.7.2.2.1.5 0 .7-.1.2 0 .5.1.7h-.6c.1-.2 0-.5 0-.7-.1-.2-.2-.4-.1-.7.1-.2-.1-.5-.2-.7 0-.1-.1-.1-.1-.2v-.2c.1-.1.1-.2.1-.4 0 0 .1 0 .3-.1.2.2.4.2.4.2zM98 19c0 .1 0 .1.1.2v.2c-.1.1-.2.3-.1.4.1.1 0 .3 0 .4v.4h-.4c.1-.1.1-.3 0-.4 0-.1-.1-.3 0-.4.1-.1 0-.3-.1-.4v-.2c.1-.1.1-.1.1-.2h.4zM98.5 5.4v2.2c0 .2-.1.5-.1.7-.2 1-.4 1.9-.3 2.9.1 1 0 1.9-.1 2.9s-.1 1.9 0 2.9c0 .1-.1.1-.2.1s-.2 0-.2-.1v-2.9c0-1-.1-2 0-2.9.2-1 .1-1.9 0-2.9v-.7c0-.2 0-.5.1-.7.1-.5.2-1 .2-1.4 0-.1.1-.1.3-.1.1-.1.3-.1.3 0zM98.9 0c0 .1 0 .3.1.4v.2c0 .1 0 .1-.1.2-.1.3-.4.5-.2.8.2.3 0 .5-.1.8-.1.3-.1.5 0 .8H98c.1-.3.1-.5.1-.8 0-.3-.1-.6.1-.8.2-.3 0-.5-.1-.8V.6c0-.1 0-.1.1-.2s.2-.3.2-.4h.5zM102.8 9.9c-.1.4-.1.8-.1 1.2 0 .2 0 .4-.1.6 0 .2-.1.4-.1.6-.2.8-.5 1.6-.5 2.4 0 .8-.2 1.6-.3 2.5-.2.8-.3 1.6-.3 2.5 0 0-.1.1-.2.1s-.2-.1-.2-.1c.2-.8.3-1.6.3-2.5.1-.8.1-1.7.3-2.5.2-.8.2-1.6.2-2.5v-.6c0-.2.1-.4.1-.6l.3-1.2s.1-.1.3 0c.2 0 .3.1.3.1zM103.3 5.9c0 .1 0 .2.1.3v.1s0 .1-.1.1c-.1.2-.3.3-.2.5.1.2 0 .3-.1.5v.5h-.5c.1-.2.1-.3.1-.5s-.1-.4.1-.5c.2-.1 0-.3-.1-.5v-.1s0-.1.1-.1c.1-.1.1-.2.2-.2h.3c0-.1.1-.1.1-.1zM106.2 15.6c-.1.2-.1.4-.1.6v.3c0 .1-.1.2-.1.3-.2.3-.4.7-.4 1.1 0 .4-.1.8-.3 1.1-.1.4-.2.7-.3 1.1h-.2c-.1 0-.2-.1-.2-.1.1-.4.2-.7.3-1.1 0-.4.1-.8.3-1.1.2-.3.2-.8.2-1.1v-.3c0-.1 0-.2.1-.3.1-.2.2-.3.2-.5h.2c.3-.1.3 0 .3 0zM108.4 8c-.1.2-.1.5-.1.7 0 .1 0 .3-.1.4 0 .1-.1.2-.1.3-.2.5-.5.9-.5 1.4 0 .5-.2 1-.4 1.4-.2.5-.3.9-.4 1.4h-.2c-.1 0-.2-.1-.2-.1.2-.5.3-.9.4-1.4.1-.5.1-1 .4-1.4.3-.4.2-1 .3-1.5v-.4c0-.1.1-.2.1-.3.1-.2.2-.4.3-.7h.3l.2.2zM109.6 3.4V4c0 .1-.1.1-.1.2-.2.2-.4.4-.3.6.1.3-.1.5-.2.7-.1.2-.2.4-.2.7h-.3c-.1 0-.3-.1-.3-.1.1-.2.2-.4.2-.7 0-.2-.1-.5.2-.7.2-.2.1-.5 0-.7v-.2c0-.1 0-.1.1-.2s.2-.2.2-.3c0 0 .1 0 .3.1h.4zM109.6 21.6V21.9s0 .1-.1.1c-.1.1-.3.2-.2.4.1.2-.1.3-.1.4-.1.1-.1.2-.1.4h-.2c-.1 0-.2-.1-.2-.1.1-.1.2-.2.2-.4 0-.1 0-.3.1-.4.1-.1.1-.3.1-.4v-.1s0-.1.1-.1.1-.1.2-.2h.2c-.1.1 0 .1 0 .1zM114.7 9c-.2.4-.4.9-.5 1.4-.1.2-.2.5-.3.7l-.3.6c-.5.8-1 1.7-1.3 2.6-.2 1-.7 1.8-1.1 2.7-.4.9-.7 1.8-1 2.7 0 0-.1.1-.2 0-.1 0-.2-.1-.2-.1.4-.9.7-1.8 1-2.8.3-.9.6-1.9 1.1-2.7.5-.9.7-1.8 1-2.7.1-.2.2-.5.2-.7.1-.2.2-.4.3-.7.3-.4.5-.8.7-1.3h.3c.2.1.3.2.3.3zM116.9 4.1c-.1.1-.1.3 0 .4v.2c0 .1-.1.1-.1.2-.2.2-.5.4-.5.7.1.3-.2.5-.3.7-.2.2-.3.5-.3.7 0 0-.1 0-.3-.1-.1-.1-.3-.1-.3-.1.2-.2.3-.5.3-.7.1-.3.1-.6.3-.7.3-.2.2-.5.2-.8v-.2c0-.1.1-.1.1-.2l.3-.3s.1 0 .3.1c.2 0 .3.1.3.1zM117.2 14.7c-.2.4-.4.7-.5 1.1l-.3.6c-.1.2-.2.4-.3.5-.5.7-1 1.3-1.3 2.1-.3.8-.7 1.5-1.2 2.2-.4.7-.8 1.4-1.2 2.2h-.2c-.1 0-.2-.1-.1-.2.4-.7.8-1.4 1.2-2.2.3-.8.7-1.5 1.2-2.2.5-.7.8-1.5 1.1-2.2.1-.2.2-.4.2-.6.1-.2.2-.4.3-.5.3-.3.5-.7.7-1h.3c0 .1.1.2.1.2zM119.1 11.2c0 .1-.1.2 0 .3v.1l-.1.1c-.2.1-.4.2-.4.4.1.2-.1.3-.2.5-.1.1-.2.3-.2.5 0 0-.1 0-.2-.1s-.2-.1-.2-.1c.2-.1.2-.3.3-.4 0-.2 0-.4.2-.4.2-.1.1-.3.1-.5v-.1s0-.1.1-.1.2-.1.2-.2c0 0 .1 0 .2.1.1-.2.2-.1.2-.1zM118.5 21.2c-.1.2-.2.3-.3.5 0 .1-.1.2-.1.3l-.2.2c-.3.3-.6.5-.7.9-.1.4-.4.7-.6.9-.3.3-.5.6-.6 1 0 0-.1 0-.2-.1s-.2-.1-.1-.1c.3-.3.5-.6.6-1 .2-.3.3-.7.6-1 .3-.3.4-.6.6-1 0-.1.1-.2.1-.3 0-.1.1-.2.2-.2.2-.1.3-.3.4-.4 0 0 .1 0 .2.1 0 .2.1.2.1.2zM123.1 14.9c-.1.2-.3.4-.3.7 0 .1-.1.2-.2.3l-.3.3c-.4.3-.8.6-1 1.1-.2.5-.5.8-.9 1.2l-.9 1.2s-.1 0-.2-.1l-.2-.2.9-1.2c.2-.4.4-.9.9-1.2.4-.3.5-.8.7-1.3.1-.1.1-.2.2-.3.1-.1.1-.2.2-.3.2-.2.4-.3.5-.5 0 0 .1 0 .2.1.3.1.4.1.4.2zM125.8 11c-.1.1-.1.2-.1.4 0 .1 0 .1-.1.2l-.1.1c-.2.1-.5.2-.5.5s-.2.4-.4.6c-.2.1-.3.3-.4.6 0 0-.1 0-.2-.1l-.2-.2c.2-.1.3-.3.4-.6.1-.2.1-.5.4-.6.3-.1.2-.4.3-.6 0-.1 0-.1.1-.2 0-.1.1-.1.1-.1.1 0 .2-.1.3-.2 0 0 .1.1.2.1s.2.1.2.1zM119.5 28.1c0 .1-.1.1-.1.2v.1s-.1 0-.1.1c-.1.1-.3.1-.3.3 0 .2-.1.2-.3.3l-.3.3s-.1 0-.1-.1l-.1-.1.3-.3c.1-.1.1-.3.3-.3.2 0 .2-.2.2-.4v-.1s0-.1.1-.1.2-.1.2-.1.1 0 .2.1c-.1 0 0 .1 0 .1zM128.7 18c-.3.3-.7.7-.9 1.1-.1.2-.3.4-.5.5-.2.2-.4.3-.5.5-.7.6-1.5 1.2-2.1 2-.5.8-1.3 1.5-1.9 2.2-.7.7-1.3 1.4-1.9 2.2h-.2c-.1-.1-.1-.2-.1-.2.7-.7 1.3-1.5 1.9-2.3.6-.8 1.2-1.6 1.9-2.2.8-.6 1.3-1.4 1.9-2.2.2-.2.3-.4.5-.6.2-.2.3-.4.5-.5.4-.3.8-.6 1.1-1 0 0 .2 0 .3.1v.4zM132.5 14.2c-.1.1-.2.2-.2.4 0 .1-.1.1-.1.2-.1 0-.1.1-.2.1-.3.1-.6.2-.7.5-.1.3-.3.4-.6.6-.2.1-.4.3-.6.6l-.2-.2-.2-.2c.3-.1.4-.3.6-.6.1-.2.2-.5.6-.6.3-.1.4-.4.5-.7 0-.1.1-.1.1-.2s.1-.1.2-.1c.2 0 .3-.1.4-.2l.2.2.2.2zM129 24.2l-.9.9c-.1.2-.3.3-.4.4-.2.1-.3.3-.5.4-.7.5-1.4.9-1.9 1.6-.5.7-1.2 1.1-1.9 1.6s-1.3 1.1-1.9 1.6c0 0-.1 0-.2-.1s-.1-.2-.1-.2c.7-.5 1.3-1.1 1.9-1.6.6-.6 1.1-1.2 1.9-1.7.7-.5 1.2-1.1 1.8-1.7.1-.2.3-.3.4-.4.1-.1.3-.3.5-.4.4-.2.7-.5 1-.7 0 0 .1 0 .2.1s.1.2.1.2zM132 21.5c-.1.1-.1.1-.1.3 0 .1 0 .1-.1.1h-.1c-.2 0-.4 0-.5.2 0 .2-.2.3-.4.3-.2.1-.3.2-.4.3l-.2-.2-.2-.2c.2-.1.3-.2.4-.3.1-.2.1-.4.4-.3.2 0 .2-.2.3-.4 0 0 0-.1.1-.1l.1-.1c.1 0 .2 0 .3-.1l.2.2c.2.2.2.3.2.3zM128 30.8c-.2.1-.3.2-.4.4l-.2.2c-.1 0-.2.1-.3.1-.4.1-.8.3-1 .6-.2.3-.6.5-.9.7-.3.2-.7.4-.9.7 0 0-.1 0-.1-.1s-.1-.2-.1-.2c.3-.2.7-.4.9-.7.3-.3.5-.6.9-.7.4-.1.6-.5.9-.8l.2-.2c.1-.1.2-.1.3-.1.2-.1.4-.1.5-.2l.2.2v.1zM134.5 26.4c-.2.1-.4.3-.5.5-.1.1-.2.2-.3.2-.1.1-.2.1-.3.2-.5.2-1 .3-1.3.7-.3.4-.8.6-1.2.8-.4.2-.9.5-1.2.8l-.2-.2c-.1-.1-.1-.2-.1-.2.4-.2.9-.5 1.2-.8.4-.3.7-.7 1.2-.8.5-.2.8-.6 1.1-.9l.3-.3c.1-.1.2-.1.3-.2.3-.1.5-.2.7-.3l.2.2c.1.2.1.3.1.3zM138.4 23.7c-.1.1-.2.2-.2.3 0 .1-.1.1-.1.1-.1 0-.1 0-.2.1-.3 0-.6 0-.6.3-.1.3-.3.3-.6.4-.2.1-.4.2-.6.4l-.2-.2c-.1-.1-.2-.2-.1-.2.2-.1.4-.2.6-.4.2-.2.3-.4.6-.4s.4-.3.5-.5c0-.1.1-.1.1-.1s.1-.1.2-.1.3 0 .4-.1l.2.2v.2zM126.6 37.5c-.1 0-.1.1-.1.2 0 0 0 .1-.1.1h-.1c-.2 0-.3 0-.4.1-.1.2-.2.2-.4.2-.1 0-.3.1-.4.2l-.1-.1c-.1-.1-.1-.2-.1-.2.2 0 .3-.1.4-.2.1-.1.2-.2.4-.2s.2-.2.3-.3c0 0 0-.1.1-.1H126.4s.1.1.1.2l.1.1zM138.7 31.2c-.4.2-.9.4-1.3.7-.2.1-.4.3-.6.3-.2.1-.4.2-.7.3-.9.3-1.9.6-2.7 1.2-.8.6-1.7.9-2.6 1.4-.9.4-1.7.9-2.5 1.5 0 0-.1 0-.2-.1s-.1-.2 0-.2c.9-.5 1.7-.9 2.5-1.5.8-.5 1.6-1.1 2.6-1.4.9-.3 1.7-.9 2.6-1.4.2-.1.4-.3.6-.4.2-.1.4-.2.7-.3.5-.1.9-.3 1.4-.5l.2.2c0 .1.1.2 0 .2zM143.5 29c-.1.1-.2.1-.3.3 0 .1-.1.1-.2.1h-.2c-.3 0-.6-.1-.8.2-.2.3-.5.3-.7.3-.3 0-.5.2-.7.4 0 0-.1-.1-.1-.2-.1-.1-.1-.3-.1-.3.3 0 .5-.2.7-.3.2-.2.4-.4.7-.3.3 0 .5-.3.7-.5 0-.1.1-.1.2-.1s.1-.1.2 0c.2 0 .3 0 .4-.1 0 0 .1.1.2.3 0 .1.1.2 0 .2zM136.9 37.2c-.4.1-.8.3-1.1.5l-.6.3c-.2.1-.4.1-.6.2-.8.2-1.6.4-2.4.8-.7.4-1.5.6-2.3.9-.8.2-1.6.5-2.3.9 0 0-.1 0-.1-.1v-.2c.8-.2 1.6-.6 2.3-.9.8-.3 1.5-.7 2.3-.9.8-.2 1.5-.6 2.3-1l.6-.3c.2-.1.4-.2.6-.2.4-.1.8-.2 1.2-.4l.2.2c-.1.1-.1.2-.1.2zM140.6 35.8c-.1 0-.1.1-.2.2 0 .1-.1.1-.1.1h-.1c-.2 0-.4-.1-.5.1-.1.2-.3.2-.5.2s-.3.1-.5.2c0 0-.1-.1-.1-.2-.1-.1-.1-.2-.1-.3.2 0 .3 0 .5-.2.1-.1.3-.3.5-.2.2.1.3-.2.4-.3l.1-.1h.1c.1.1.2.1.3 0 0 0 .1.1.1.2.1.1.1.3.1.3zM133.6 43c-.2 0-.4.1-.5.2-.1.1-.2.1-.3.1h-.3c-.4 0-.8 0-1.1.2-.3.2-.7.2-1.1.3-.4.1-.8.2-1.1.3 0 0-.1-.1-.1-.2v-.2c.4-.1.8-.2 1.1-.3.4-.1.7-.3 1.1-.3.4 0 .7-.2 1.1-.4.1 0 .2-.1.3-.1H133.6s.1.1.1.2-.1.2-.1.2zM141.3 41.2c-.2.1-.5.2-.7.3-.1.1-.2.1-.4.1h-.4c-.5 0-1 0-1.5.2-.4.3-.9.3-1.4.3-.5.1-1 .2-1.4.4 0 0-.1-.1-.1-.2v-.2c.5 0 1-.2 1.4-.3.5-.2.9-.4 1.4-.4.5 0 .9-.3 1.4-.5.1-.1.2-.1.3-.1.1 0 .2-.1.4-.1.3 0 .5 0 .7-.1 0 0 .1.1.1.2.2.2.2.4.2.4zM145.9 40c-.1 0-.2.1-.3.2 0 .1-.1.1-.2.1h-.2c-.3-.1-.5-.2-.7 0-.2.2-.4.2-.7.2-.2 0-.5 0-.7.2 0 0-.1-.1-.1-.3s-.1-.3-.1-.3c.2 0 .5 0 .7-.2.2-.1.4-.3.7-.2.3.1.4-.1.6-.3 0 0 .1-.1.2-.1h.2c.1.1.3.1.4 0 0 0 .1.1.1.3 0 .3.1.4.1.4z"/><path d="M83.1 34.9h.6c.2 0 .4 0 .4.3v2.1s-.7.2-1.9.2-2.9-.7-2.9-2.5 1.7-2.6 3-2.6c.6 0 1.3 0 1.3.3v.6c-.5-.4-.7-.5-1.4-.5s-2 .5-2 2 1.8 2.5 3.2 1.9v-1.2c0-.1 0-.6-.3-.6M92.3 37.4h1.6c-.4-.2-.6-.7-.7-1-.1-.4-1.3-3.1-1.4-3.4-.1-.4-.3-.4-.4-.4h-.9c.4.1.2.4.1.7-.1.2-1.6 3.9-1.6 3.9-.5-.1-1.8-2-1.8-2 1.7-.5 1.5-2.5-.2-2.5h-2c.4.1.4.5.4.8v3.3c0 .5-.1.6-.4.7h1.4c-.4-.2-.3-.6-.3-.8V33h.8c.4 0 .7.5.7.8 0 .5-.4.8-.9.9-.4.2-.2.5 0 .8.2.3.8 1.1 1.1 1.5.3.4.6.4.8.4h1.3c-.5-.2-.2-.5-.2-.7.1-.2.4-1 .4-1H92s.2.6.4 1.1c.3.5.1.5-.1.6m-2-2.3.7-1.9.8 1.9h-1.5zM108 37.4h1.6c-.4-.2-.6-.7-.7-1-.1-.4-1.3-3.1-1.4-3.4-.1-.4-.3-.4-.4-.4H106c.4.1.2.4.1.7-.1.2-1.6 3.9-1.6 3.9-.1.2-.2.2-.3.3h1.3c-.5-.2-.2-.5-.2-.7.1-.2.4-1 .4-1h1.9s.2.6.4 1.1c.4.4.2.4 0 .5m-2-2.3.7-1.9.8 1.9H106zM102.5 37.5c.2-.2.3-.3.3-.8v-3.3c0-.3 0-.6-.3-.7h1.4c-.1.1-.3.3-.3.6v3.4c0 .3-.1.7.3.8h-1.4zM95 33.7v3c0 .3 0 .7.4.8h-1.3c.2-.2.3-.3.3-.8v-3.3c0-.3 0-.6-.4-.7h1l3 3.7v-3c0-.2 0-.6-.4-.7h1.3c-.2.1-.4.2-.4.7v4.4s-.4.1-1-.7c-.4-.8-2.5-3.4-2.5-3.4"/><path d="M103.6 41.2c-3.9-3.3-5.4-7.1-.1-12.4.2-.2.3-.1.2.1-2.4 2.7-5 6.9-.1 12.1.2.1.1.3 0 .2M110.6 37.4c-.4 0-.7-.3-.7-.7 0-.4.3-.7.7-.7.4 0 .7.3.7.7 0 .4-.3.7-.7.7m0-1.2c-.3 0-.6.3-.6.6s.3.6.6.6.6-.3.6-.6c0-.4-.3-.6-.6-.6"/><path d="M110.8 37.1c-.1 0-.1 0 0 0v-.2c0-.1 0-.1-.1-.1h-.2v.3h-.1v-.7h.3c.1 0 .2.1.2.2v.1s-.1 0-.1.1c.1 0 .1 0 .1.2v.1h-.1zm-.2-.6h-.2v.2h.2c.1 0 .1 0 0-.2.1.1.1 0 0 0M67.2 74.7c0-1-.1-2.2-.2-3 1.6.4 1.6.6 1.4.8l-.2.2v4.9c0 1.7.1 2.3.1 3.4-.1.2-.5.4-.9.4-.2 0-.2-.1-.2-.3 0-.2 0-.3.1-.7v-.5h-8.7v.5c0 .5 0 .6.1.8-.1.2-.4.4-.8.4-.2 0-.3-.1-.3-.3.1-1.2.1-1.9.2-3.7v-2.8c0-1-.1-2.2-.2-3 1.6.4 1.6.6 1.4.7l-.2.2v6.7h3.9v-7.7c0-1-.1-2.2-.2-3 1.6.5 1.6.6 1.4.8l-.2.2v9.8h3.9v-4.8zM82.3 77.5c.2-.2.3-.4.4-.4.2 0 1.1.8 1.1 1 0 .2-.2.2-.4.2h-4.3v2.3H83l.3-.4c.2-.2.3-.4.4-.4.2 0 1.2.8 1.2 1.1 0 .1-.2.2-.3.2h-9.8c-.7 0-1.4.1-2.2.2l-.4-.7c.6.1 1.3.1 1.9.1h4v-2.3H76c-.7 0-1.4.1-2.2.2l-.4-.7c.6.1 1.3.1 1.9.1H78c0-.7 0-1.5-.1-2 1.5.4 1.5.6 1.3.7l-.2.1V78h3l.3-.5zm1.4-7.7c.1-.2.3-.4.4-.4.2 0 1 .9 1 1.1-.1.1-.3.1-.5.1-.4.4-1 1-1.5 1.3H83c.2.2.4.3.6.5 0 .2-.2.2-.4.2h-4.8c-.6.8-1.3 1.8-1.9 2.4 1.5-.1 3.4-.2 5.4-.3-.5-.5-1.2-1.1-1.7-1.4l.1-.1c4.1 1.5 3.8 3.8 2.8 3.2-.2-.4-.5-.9-1-1.3-1.9.3-4.4.7-7.7 1-.1.2-.2.3-.4.3l-.5-1.2c.6 0 1.4 0 2.4-.1.5-.7 1-1.6 1.3-2.4h-1c-.6 0-1.2.1-1.8.2l-.4-.8c.6.1 1.3.1 1.9.1h5.8l.6-.7s.2.2.5.4c.2-.4.4-.9.6-1.4h-9.1c0 .8-.3 1.5-.6 1.7-.3.3-.8.3-1 0-.1-.3 0-.6.3-.8.5-.3.9-1.3.8-2.2h.2c.1.3.1.6.2.8h4c0-.6 0-1.3-.1-1.9 1.5.4 1.5.6 1.3.7l-.2.2v1h4.2l.3-.2zM98.3 79.4v1h-7.1v-.7l3.4-3.7c1.3-1.4 1.8-2.3 1.8-3.7 0-1.3-.8-2.4-2.2-2.4-.5 0-.9.1-1.4.3l-.4 1c-.2.5-.4.7-.7.7-.2 0-.5-.1-.6-.4.4-1.4 1.8-2.1 3.5-2.1 2.1 0 3.2 1.2 3.2 2.9 0 1.3-.8 2.4-2.4 3.9l-3.2 3.2h6.1zM106.7 70.3c-.7 0-1.4.1-2.2.2l-.4-.7c.6.1 1.3.1 1.9.1h8.5l.3-.5c.2-.2.3-.5.4-.5.2 0 1.3 1 1.3 1.2 0 .1-.2.2-.4.2H111V80c0 .8-.2 1.4-1.7 1.5 0-.3-.2-.6-.4-.7-.3-.2-.7-.3-1.6-.4v-.2s1.9.1 2.3.1c.3 0 .4-.1.4-.3v-9.6h-3.3zM123 80.6v.4c0 .2-.4.5-.8.5-.2 0-.3-.1-.3-.3.1-1.2.1-1.9.2-3.7v-5.6c0-1-.1-2.2-.2-3l1.2.6h6.4l.2-.3c.1-.2.2-.3.3-.3.2 0 1.2.8 1.2 1-.1.1-.4.3-.7.3v7.5c0 1.7.1 2.3.1 3.4-.1.2-.6.4-.9.4-.1 0-.2-.1-.2-.3 0-.1 0-.2.1-.4v-.4H123v.2zm6.6-10.7H123v3h6.6v-3zm0 3.4H123v3.1h6.6v-3.1zm-6.6 6.6h6.6v-3.1H123v3.1z"/><path d="M185.1 51.1c1.7-2.3 2.8-5 2.8-7 0-2.9-2-4.5-4.5-4.5-3.1 0-8.5 3.6-8.5 8.5v.2l-.6.6c-1.9-.3-3.9-.5-6-.8.7-1 1.3-2 1.3-2.8 0-1.5-3-2-4.8-2.9 1.3-1.7 2.2-3.5 2.2-4.9 0-.4-1.4-1.6-2.2-1.6-1.3 0-4 1.9-4 4.1 0 1.3 1.7 2 3.1 2.6-1.3 1.7-2.9 3.5-4.1 4.8-2.4-.2-5-.3-7.6-.5-.3-.9-1.1-2-1.8-2-.5 0-1.4.7-2.5 1.7-1.8-.1-3.6-.2-5.5-.2.8-1.1 1.3-2 1.3-2.5 0-1.6-1.5-3.3-2.3-3.3-.3 0-.5.1-.5.4 0 1.1-1.4 3.1-2.9 5.2-2.8-.1-5.6-.1-8.6-.2-.4-.9-1-1.6-1.6-1.6-.4 0-1.5.7-2.8 1.5h-2.4c.6-.9 1.1-1.8 1.1-2.6 0-1.9-2-3.3-3-3.3-.8 0-4.2 3.1-7.1 5.9h-1.7c.5-.8.9-1.5.9-1.7 0-1.5-1.2-3-2-3-.2 0-.4.2-.6.5-.8 1.5-1.7 2.9-2.6 4.3-3.1 0-6.1.1-9.3.2-.4-.4-.8-.7-1-.7-.2 0-.7.3-1.2.7-2 .1-4.1.1-6.2.2 2.5-2.3 5.5-4.1 8.1-4.1.4 0 1 .5 1 .9 0 .7-.3.9-.3 1.1s.3.6.5.6.5-.6.5-1.5c0-1.3-2.2-3.3-4.5-3.3-3.1 0-7.3 3.1-10.1 6.5-2.4.1-4.9.2-7.5.3-.3-1.4-1.2-2.6-1.9-2.6-.6 0-3 1.6-4.9 2.9-.5 0-.9.1-1.4.1 1-1.3 2.2-2.9 2.2-4.1 0-1.9-2-3.3-3-3.3s-6.3 5-9.3 8.1c-.3 0-.6 0-.9.1 1-1.6 2.3-3.5 2.3-3.9 0-1.5-1.2-3-2-3-.2 0-.4.2-.6.5-1.2 2.3-2.9 4.7-4.2 6.7l-.1.1c-2.5.2-4.9.4-7.3.7.4-.5.8-1 .8-1.2 0-.9-1.6-2.4-2.1-2.4s-1.8 1.2-3.6 2.9l-1.4 1.4c-2 .2-4 .5-6 .7 2.5-3.9 7.6-8.2 11.6-8.2.4 0 1 .5 1 .9 0 .7-.3.9-.3 1.1s.3.6.5.6.5-.6.5-1.5c0-1.3-2.2-3.3-4.5-3.3-4.4 0-11.1 6.3-12.6 11-3.6.5-7 1.1-10.1 1.7 1.9-4.1 3.4-8.2 4.5-11.2 1.3-3.6 2.3-4.9 3.8-5.9.2-.2.4-.3.4-.5 0-.3-.5-1.1-.9-1.1-1.3 0-3.7 4.4-6.6 8-3 3.6-7.5 6.2-8.7 6.2-.4 0-.6-.2-.6-.5 0-2 5.9-8.9 5.9-10.4 0-1.1-1.9-2.7-2.6-2.7-.3 0-.5.1-.5.4 0 2.4-5.6 8-5.6 10.6 0 2.4 1.9 3.5 2.8 3.5 1.6 0 6.2-3 8.4-5.3 0 0-1.6 4.4-4 9.3-2.5.5-5.3 1.4-7.9 2.6-1.6.7-2.8 1.4-3.7 2.1-3 2.1-5.2 4.7-5.2 7.6 0 1.9 1.6 3.8 4.4 3.8 6.5 0 11.5-7.6 15.3-15.4l.2-.4c2.9-.6 6.3-1.2 10.3-1.7-.1.3-.1.6-.1 1 0 1.8 2 3.4 3.4 3.4 1.1 0 4.2-3 6.9-5.6.4 0 .9-.1 1.3-.1v.8c0 2.2 1.6 3.5 3.5 3.5 2.3 0 5.9-3 7.8-4.8-.6 1-.9 1.9-.9 2.7 0 1.5 1.3 2.6 1.8 2.6.6 0 1-1.1 2.7-3.1.5-.6 1.6-1.8 3-3.2 1.7-.1 3.5-.3 5.3-.4-.5.9-.8 1.6-.8 2 0 .8 1.1 2.1 1.8 2.1.3 0 1.4-1.3 2.8-2.6.6-.6 1.4-1.3 2.3-1.9 1.1-.1 2.1-.1 3.2-.2-1.2 1.6-2.7 3.6-2.7 5.2 0 1.8 1.8 3.3 3.1 3.3 1.9 0 5.9-3.5 8.2-5.8-.3.8-.5 1.6-.5 2.3 0 1.8 2 3.4 3.4 3.4s5.4-4.2 8.3-7.1c0 0-.2 1-.2 2.1 0 2.2 1.6 3.5 3.5 3.5 2.3 0 5.9-3 7.8-4.8-.6 1-.9 1.9-.9 2.7 0 1.5 1.3 2.6 1.8 2.6.6 0 1-1.1 2.7-3.1.7-.9 2.9-3.2 5.1-5.4h4.3c-1 1.6-1.9 3.1-1.9 3.8 0 .8 1.1 2.1 1.8 2.1.3 0 1.4-1.3 2.8-2.6 1.1-1.1 2.9-2.4 4.3-3.3h2c-1.1 1.6-3.6 4.4-3.6 6.3 0 1.8 1.8 3.3 3.1 3.3 2.2 0 7.1-4.6 9.2-6.7-.6 1.2-1.1 2.4-1.1 3.5 0 2.2 2.1 3.4 3.3 3.4 1.9 0 8.8-8.7 9.7-8.7.2 0 .2.1.2.2 0 .8-.6 1.8-.6 3.3 0 2 1.5 2.7 2.7 2.7 3.1 0 7.9-4.3 8.9-5.2.1 0 .1-.1.2-.2.2-.2.5-.5.6-.7l.1-.1c.3 0 .5 0 .8.1 1 .1 1.9.2 2.8.2-.6 1.1-1 2.3-1 3.6 0 1.6 1.9 3.1 3.6 3.1 2.2 0 6.4-3.9 8.2-5.6h.3c-.2.7-.3 1.3-.3 2.1 0 2.7 2.5 4.1 3.9 4.1 2.2 0 4.5-1.8 6.4-4.1 4.2 1.3 5.2 2.6 5.3 3.6 0 .2.2.4.4.4s.4-.2.4-.4c.2-1.5-1.7-2.9-5.3-4.1zM3 68.1c-1.1 0-2.3-.8-2.3-2.4 0-3.7 3.6-7 8.5-9.1 1.6-.7 3.9-1.3 6.8-2.1C12.7 61 8 68.1 3 68.1zm179.8-27.7c2.3 0 3.4 1.5 3.4 3.4 0 2-.9 4.7-2.4 6.9-1.7-.5-3.8-1-6.2-1.4 1.4-2 3.5-3.6 5.3-4.7.3-.2.8-.4.8-.8 0-.6-1.2-2.2-1.9-2.2-.8 0-1.7.7-2.7 1.5-1.2 1-2.5 2.2-3.4 3.7.7-3.7 4.9-6.4 7.1-6.4zm-19.3.4c0-2.1 1.7-3.3 2.3-3.3.2 0 .3.1.3.3 0 1.3-.8 2.8-1.7 4.3-.6-.3-.9-.8-.9-1.3zm-130 14.6c-.5 0-.8-.3-.8-.8 0-.9.4-2 1-3.1 1.8-.2 3.6-.5 5.6-.7-2.5 2.3-5 4.6-5.8 4.6zm7.7-5.5.6-.6s0 .2-.1.5c-.2 0-.3 0-.5.1zm3.4 2.6c0-.8.5-1.7 1.1-2.4 2.3-.2 4.7-.4 7.1-.7-1.8 1.6-5 4.2-6.9 4.2-.7 0-1.3-.3-1.3-1.1zm12.5-2.1c.1-.2.4-.7.8-1.4h.6l-1.4 1.4zm3.2-2.2c3.2-3.2 7.3-6.9 8.5-6.9.1 0 .2.1.2.2 0 .9-2.2 4-3.7 6.4-1.7 0-3.3.1-5 .3zm7.8 1.3c0-.2.3-.6.7-1.1.3 0 .6 0 .9-.1-.9.7-1.6 1.2-1.6 1.2zm3.9-2.1c1.5-1 2.8-1.7 3.2-1.7.1 0 .2.1.2.2 0 .3-.3.8-.8 1.4-.8 0-1.7.1-2.6.1zm2.8 8c-.4 0-.6-.2-.6-.6 0-2.4 3.6-4.7 3.6-6.5v-.4c2.2-.1 4.5-.2 6.7-.3-.5.6-.9 1.3-1.2 1.9-2.1 2-6.4 5.9-8.5 5.9zm18.9-6.8c-2.8 2.8-7 6.8-8.1 6.8-.5 0-.8-.3-.8-.8 0-1.9 1.7-4.8 4.2-7.3 2-.1 4.1-.1 6.2-.2-.4.5-.9.9-1.5 1.5zm4.4 5c-.7 0-1.3-.3-1.3-1.1 0-1.8 2.6-3.7 2.6-4.4 0-.3-.2-.7-.4-1 2.7-.1 5.4-.1 8.1-.2-.4.6-.7 1.1-1.1 1.6-1.3 1.4-5.5 5.1-7.9 5.1zm11.1-3.2c.2-.5 1.3-2.1 2.2-3.6h1.4c-1.9 2-3.6 3.6-3.6 3.6zm5.4-4.3c2.7-2.5 5.4-4.8 6.3-4.8.1 0 .2.1.2.2 0 .7-1.3 2.6-2.5 4.6h-4zm5.7 3.4c0-.3 1-1.4 1.9-2.6h1.8c-1.9 1.2-3.7 2.6-3.7 2.6zm6.1-3.4c.5-.3.9-.4 1-.4.1 0 .2.1.2.2v.2h-1.2zm10.4 2s-6.9 7.3-9.8 7.3c-.4 0-.6-.2-.6-.6 0-2.4 3.6-4.7 3.6-6.5 0-.5-.1-1-.2-1.4 2.6 0 5.2.1 7.8.2-.3.3-.5.6-.8 1zm1.4 7.4c-.3 0-.5-.3-.5-.6 0-1.8 2.5-5.2 4.3-7.8 1.8.1 3.5.1 5.3.2-3.3 3.2-7.6 8.2-9.1 8.2zm12.2-3c0-1.4 1.7-3.7 1.9-4.9 2.4.1 4.7.3 6.9.4l-.1.1s-5.3 5-8 5c-.5 0-.7-.2-.7-.6zm10.3-5.1h-.2c1.2-1.3 2.7-3 4-4.6.6.3 1 .6 1 1.2 0 1-.9 2.2-1.7 3.7-.9-.1-2-.2-3.1-.3zm6.1 6.8c-.8 0-1.2-.6-1.2-1.3 0-1.2 1.1-2.6 2.2-4 2.1.2 4.1.5 5.8.7-2 1.7-5.3 4.6-6.8 4.6zm10.8.9c-1 0-1.6-.9-1.6-1.9 0-.5.2-1.6.4-2 .7.8 1.9 1.5 2.3 1.5.2 0 .3-.2.3-.3 0-.2-.2-.2-.5-.4-.7-.4-1.4-.9-1.7-1.4.1-.2.2-.3.3-.5 2.5.4 4.6.9 6.2 1.3-1.5 2.1-3.5 3.7-5.7 3.7z"/></svg>