<?xml version="1.0" encoding="utf-8"?>
<!-- Generator: Adobe Illustrator 27.0.0, SVG Export Plug-In . SVG Version: 6.00 Build 0)  -->
<svg version="1.1" id="レイヤー_1" xmlns="http://www.w3.org/2000/svg" xmlns:xlink="http://www.w3.org/1999/xlink" x="0px"
	 y="0px" viewBox="0 0 162 57" style="enable-background:new 0 0 162 57;" xml:space="preserve">
<style type="text/css">
	.st0{fill:url(#SVGID_1_);}
	.st1{fill:#FFFFFF;}
</style>
<g>
	<linearGradient id="SVGID_1_" gradientUnits="userSpaceOnUse" x1="0" y1="28.5" x2="162" y2="28.5">
		<stop  offset="0" style="stop-color:#232221"/>
		<stop  offset="0.5018" style="stop-color:#3E3A35"/>
		<stop  offset="1" style="stop-color:#232221"/>
	</linearGradient>
	<rect class="st0" width="162" height="57"/>
	<g>
		<path class="st1" d="M60.7,22.2c0.1-0.2,0.3-0.4,0.4-0.4c0.2,0,1.2,0.9,1.2,1.1c-0.1,0.1-0.4,0.3-0.7,0.3v4.3
			c0,1.9,0.1,2.5,0.1,3.7c-0.1,0.2-0.6,0.4-1,0.4c-0.2,0-0.2-0.2-0.2-0.3c0-0.1,0-0.1,0-0.2v-0.3H59v0v3.7c0,0.2,0.1,0.3,0.6,0.3
			h1.5c0.7,0,1.2,0,1.5,0c0.2,0,0.2-0.1,0.3-0.2c0.1-0.3,0.3-1.2,0.5-2.2h0.2l0,2.2c0.4,0.1,0.4,0.2,0.4,0.4c0,0.5-0.4,0.7-2.9,0.7
			h-1.7c-1.2,0-1.5-0.2-1.5-1v-4h-1.7c-0.5,3.2-2.2,4.6-6.1,5.3l-0.1-0.3c3.4-1,4.7-2.3,5.1-5.1h-1.4v0.6c0,0.1-0.4,0.3-0.8,0.3
			c-0.2,0-0.3-0.2-0.3-0.3c0.1-1.4,0.1-2,0.2-4.1v-2.2c0-1.1-0.1-2.4-0.2-3.3l1.3,0.6h6.5L60.7,22.2z M60.6,23.1h-6.8v2.1h6.8V23.1z
			 M60.6,27.8v-2.1h-6.8v2.1H60.6z M53.8,28.2v2.2h6.8v-2.2H53.8z"/>
		<path class="st1" d="M75.8,26.9c0.2-0.2,0.3-0.4,0.4-0.4c0.2,0,1.1,1,1.1,1.2c-0.1,0.1-0.3,0.1-0.7,0.2C76,28.4,74.9,29,74,29.4
			l0.1,0c0,0.2-0.2,0.3-0.5,0.4V31h4.2l0.4-0.5c0.2-0.3,0.4-0.5,0.5-0.5c0.2,0,1.4,1,1.4,1.2c0,0.2-0.2,0.3-0.4,0.3h-6v3.2
			c0,0.9-0.2,1.4-1.8,1.6c-0.1-0.3-0.2-0.6-0.4-0.8c-0.3-0.2-0.7-0.3-1.6-0.4v-0.2c0,0,2,0.1,2.4,0.1c0.3,0,0.4-0.1,0.4-0.3v-3.1
			h-3.8c-0.8,0-1.6,0.1-2.4,0.2L66,30.8c0.7,0.1,1.4,0.1,2.1,0.1h4.5c0-0.6,0-1.3-0.1-1.8l1,0.2c0.6-0.5,1.3-1.1,1.8-1.6h-3.9
			c-0.8,0-1.6,0.1-2.4,0.2l-0.4-0.8c0.7,0.1,1.4,0.1,2.1,0.1h4.8L75.8,26.9z M78.5,24.7c0.2-0.2,0.3-0.4,0.4-0.4
			c0.2,0,1.2,1,1.2,1.2c-0.1,0.1-0.3,0.1-0.6,0.2c-0.5,0.6-1.4,1.3-2.1,1.8l-0.2-0.1c0.3-0.5,0.7-1.3,0.9-1.9H68.1
			c0,1.1-0.4,1.8-0.8,2.2c-0.4,0.3-0.9,0.3-1.1,0c-0.1-0.3,0-0.7,0.4-0.9c0.7-0.4,1.2-1.6,1.1-2.8l0.3,0c0.1,0.4,0.2,0.7,0.2,1h6.8
			c0.1-0.2,0.2-0.3,0.4-0.5c0.6-0.9,1.1-2.1,1.3-3c1.7,0.7,1.7,0.8,1.4,0.9l-0.3,0.1c-0.6,0.8-1.4,1.8-2.3,2.5h2.8L78.5,24.7z
			 M68.5,21.9c3.1,1.2,2.3,3.5,1.3,2.7c-0.1-0.9-0.8-2-1.4-2.6L68.5,21.9z M71.9,21.6c3,1.5,2,3.8,1,2.9c0-0.9-0.6-2-1.2-2.7
			L71.9,21.6z"/>
		<path class="st1" d="M92.8,22.4c0.2-0.2,0.3-0.4,0.5-0.4c0.2,0,1.1,1,1.1,1.3c-0.1,0.1-0.3,0.1-0.7,0.2c-1,0.7-2.9,1.6-4.3,2.2
			c1.3,0.8,1.4,1.8,1.1,2.1h3.7l0.3-0.3c0.2-0.2,0.3-0.3,0.4-0.3c0.2,0,1.1,1,1.1,1.2c-0.1,0.1-0.3,0.2-0.6,0.2
			c-0.8,1-2.5,2.4-3.7,3.3l-0.2-0.1c0.8-0.9,1.8-2.3,2.5-3.3h-4.6v6.5c0,0.8-0.2,1.4-1.9,1.6c0-0.3-0.2-0.6-0.4-0.8
			c-0.3-0.2-0.8-0.3-1.7-0.4v-0.2c0,0,2.2,0.2,2.6,0.2c0.3,0,0.4-0.1,0.4-0.3v-6.4h-3.8c-0.8,0-1.6,0.1-2.4,0.2l-0.4-0.8
			c0.7,0.1,1.4,0.1,2.1,0.1h6c-0.5-0.8-1.9-2.1-3.8-3l0.1-0.3c1.3,0.3,2.2,0.6,2.9,1c1-0.6,2.2-1.4,3-2.2h-5.8
			c-0.8,0-1.6,0.1-2.4,0.2l-0.4-0.8c0.7,0.1,1.4,0.1,2.1,0.1h6.8L92.8,22.4z"/>
		<path class="st1" d="M100,31l-0.3,0.1c-0.4,1.4-1,2.8-1.7,3.8l-0.2-0.1c0.1-0.3,0.3-0.7,0.4-1.1c0.3-1,0.6-2.5,0.6-3.4l0.9,0.3
			C100.3,30.6,100.3,30.8,100,31z M102.7,28.2c-0.3-0.4-0.5-0.9-0.8-1.2l0.2-0.1c2.9,1.6,2.1,3.7,1.1,2.9c0-0.4-0.2-0.8-0.4-1.2
			c-0.4,0.1-0.8,0.2-1.3,0.3V32c0,1.9,0.1,2.5,0.1,3.7c-0.1,0.2-0.5,0.4-0.9,0.4c-0.2,0-0.3-0.2-0.3-0.3c0.1-1.4,0.1-2.1,0.2-4.1V29
			c-0.6,0.1-1.2,0.3-2,0.4c-0.1,0.2-0.2,0.3-0.4,0.3l-0.3-1.2c0.4,0,0.9,0,1.6-0.1c0.4-0.6,0.8-1.4,1.2-2.1c0.5-0.9,1-2.1,1.2-3
			c1.6,0.7,1.6,0.8,1.3,0.9l-0.3,0.1c-0.7,1.2-1.9,2.8-3,4C100.8,28.3,101.7,28.2,102.7,28.2z M99.4,24.6c0.4-1,0.8-2.2,0.9-3.1
			c1.7,0.6,1.7,0.8,1.4,0.9l-0.3,0.1c-0.5,0.8-1.1,1.7-1.7,2.4c1.2,1,0.7,2.1-0.1,1.6c-0.2-0.7-1-1.6-1.6-2.2l0.1-0.1
			C98.7,24.3,99.1,24.5,99.4,24.6C99.4,24.7,99.4,24.7,99.4,24.6z M102.3,30.3c2.7,1.9,1.7,4,0.8,3.1c-0.1-1-0.6-2.2-1.1-3
			L102.3,30.3z M110.1,25.1l0.3-0.3c0.1-0.2,0.3-0.3,0.4-0.3c0.2,0,1.1,0.8,1.1,1c-0.1,0.1-0.3,0.2-0.6,0.3c-0.1,5-0.5,8.8-1.2,9.8
			c-0.5,0.5-1.1,0.8-1.9,0.8c0-0.3-0.1-0.6-0.3-0.8c-0.3-0.2-1.1-0.4-1.8-0.5l0-0.3c0.8,0.1,2.2,0.2,2.6,0.2c0.4,0,0.5-0.1,0.7-0.2
			c0.6-0.6,0.9-4.4,1-9.1h-4.7c-0.5,1-1,1.9-1.6,2.5l-0.2-0.2c0.4-0.8,0.8-1.7,1.2-2.8c0.3-1,0.6-2.5,0.7-3.4
			c1.8,0.5,1.8,0.7,1.5,0.8l-0.3,0.1c-0.3,0.9-0.6,1.7-0.9,2.5H110.1z M105.7,27.7c3.5,1.8,2.5,4.4,1.4,3.5
			c-0.1-1.1-0.9-2.5-1.6-3.4L105.7,27.7z"/>
	</g>
</g>
</svg>
