<?xml version="1.0" encoding="utf-8"?>
<!-- Generator: Adobe Illustrator 27.0.0, SVG Export Plug-In . SVG Version: 6.00 Build 0)  -->
<svg version="1.1" id="レイヤー_1" xmlns="http://www.w3.org/2000/svg" xmlns:xlink="http://www.w3.org/1999/xlink" x="0px"
	 y="0px" viewBox="0 0 162 57" style="enable-background:new 0 0 162 57;" xml:space="preserve">
<style type="text/css">
	.st0{fill:url(#SVGID_1_);}
	.st1{fill:#FFFFFF;}
</style>
<g>
	<linearGradient id="SVGID_1_" gradientUnits="userSpaceOnUse" x1="0" y1="28.5" x2="162" y2="28.5">
		<stop  offset="0" style="stop-color:#232221"/>
		<stop  offset="0.5018" style="stop-color:#3E3A35"/>
		<stop  offset="1" style="stop-color:#232221"/>
	</linearGradient>
	<rect class="st0" width="162" height="57"/>
	<g>
		<path class="st1" d="M53.1,26.3c0.9-0.2,2.9-0.7,5-1.2l0,0.2c-0.9,0.5-2.2,1.1-4,2c-0.1,0.2-0.2,0.3-0.3,0.4L53.5,27L53.1,26.3z
			 M59.3,34.8l-0.4,0c-1.3,0.6-3.4,1.2-5.4,1.4l-0.1-0.3c0.7-0.2,1.5-0.5,2.3-0.8c1-0.4,2-1,2.6-1.6l0.7,0.7
			C59.7,34.6,59.7,34.8,59.3,34.8z M54.2,21.9c3.7,0.6,3.2,3,2,2.4c-0.4-0.7-1.4-1.7-2.2-2.2L54.2,21.9z M63.6,27.1
			c0.1-0.2,0.2-0.4,0.4-0.4c0.2,0,1.1,0.8,1.1,1c-0.1,0.1-0.3,0.2-0.6,0.3v1.9c0,1.9,0.1,2.5,0.1,3.6c-0.1,0.2-0.6,0.4-1,0.4h-0.2
			v-0.6h-6.6v0.5c0,0.1-0.4,0.3-0.8,0.3c-0.2,0-0.3-0.2-0.3-0.3c0.1-0.8,0.1-1.2,0.1-2.4v-1.4c0-1.1-0.1-2.4-0.2-3.3l1.3,0.6h6.4
			L63.6,27.1z M63.5,27.9h-6.6v1.3h6.6V27.9z M63.5,31v-1.3h-6.6V31H63.5z M56.8,32.9h6.6v-1.4h-6.6V32.9z M65.3,22.8
			c0.1-0.2,0.3-0.4,0.4-0.4c0.2,0,1,1,1,1.2c-0.1,0.1-0.3,0.1-0.6,0.2c-0.4,0.4-1.2,1-1.7,1.4L64.1,25c0.2-0.4,0.6-0.9,0.8-1.4h-2.7
			c0.5,1.4,1.7,2.5,4.8,3.1l0,0.2c-0.5,0.1-0.8,0.2-0.9,0.8c-2.7-0.7-3.7-2.1-4.1-3.7c-0.6,1.9-2.2,2.7-4.8,3.2l-0.1-0.3
			c2.3-0.6,3.5-1.5,3.9-3.3h-1.7c-0.6,0.6-1.3,1.1-2,1.4l-0.2-0.2c0.2-0.1,0.4-0.3,0.5-0.5c0.7-0.7,1.4-2,1.5-2.9
			c1.8,0.5,1.8,0.7,1.5,0.7l-0.3,0c-0.2,0.3-0.4,0.6-0.7,0.9H65L65.3,22.8z M61,34c7.1,0.5,5.3,2.8,4.1,2c-0.8-0.6-2.3-1.3-4.2-1.7
			L61,34z"/>
		<path class="st1" d="M74.3,27.3c0.2-0.2,0.3-0.4,0.4-0.4c0.2,0,1.2,0.8,1.2,1.1c0,0.2-0.2,0.3-0.4,0.3h-2.6v1.1
			c3.5,1,2.9,3.4,1.8,2.7c-0.2-0.8-1.1-1.8-1.8-2.4V32c0,1.9,0.1,2.5,0.1,3.7c-0.1,0.2-0.5,0.5-0.9,0.5c-0.2,0-0.3-0.2-0.3-0.3
			c0.1-1.3,0.1-1.9,0.2-3.9v-2.1c-0.7,1.5-1.7,2.8-2.9,3.9l-0.2-0.2c1.2-1.5,2.1-3.4,2.6-5.4h-0.8c-0.5,0-1,0.1-1.4,0.2l-0.4-0.8
			c0.7,0.1,1.4,0.1,2.1,0.1h1v-2.8c0-1.1-0.1-2.4-0.2-3.3c1.7,0.5,1.7,0.7,1.4,0.9l-0.3,0.2v5H74L74.3,27.3z M69.3,23
			c2.6,2,1.6,4.1,0.7,3.2c0-1-0.5-2.3-0.9-3.1L69.3,23z M75.5,23.7l-0.3,0.1c-0.5,1-1.1,2.1-1.6,2.8l-0.3-0.1c0-0.1,0.1-0.3,0.1-0.4
			c0.3-1,0.6-2.4,0.6-3.3l0.9,0.4C75.8,23.4,75.8,23.5,75.5,23.7z M81.4,30.9l0.2-0.6c0.1-0.3,0.2-0.6,0.4-0.6
			c0.2,0,1.3,0.7,1.3,0.9c0,0.2-0.1,0.3-0.3,0.3l-2,0.4v1.4c0,1.4,0,1.9,0.1,2.8c-0.1,0.2-0.5,0.5-0.9,0.5c-0.2,0-0.3-0.2-0.3-0.3
			c0.1-0.9,0.1-1.3,0.1-2.7v-1.5l-4.4,1l-0.2-0.4l4.6-1v-6.4c0-1.1-0.1-2.4-0.2-3.3c1.7,0.5,1.7,0.7,1.5,0.9l-0.3,0.2V31L81.4,30.9z
			 M76.1,26.9c3.5,0.7,3,3.1,1.9,2.4c-0.3-0.8-1.2-1.8-2-2.3L76.1,26.9z M76.5,23.2c3.4,0.9,2.8,3.2,1.7,2.5
			c-0.2-0.8-1.1-1.8-1.9-2.4L76.5,23.2z"/>
		<path class="st1" d="M86.7,25.2c-0.6,0-1.1,0.1-1.7,0.2l-0.4-0.8c0.7,0.1,1.4,0.1,2.1,0.1h2.2l0.3-0.4c0.2-0.2,0.3-0.4,0.4-0.4
			c0.2,0,1.2,0.9,1.2,1.1c0,0.2-0.2,0.2-0.4,0.2h-2.8H86.7z M88.4,22.3c0.2-0.2,0.3-0.4,0.4-0.4c0.2,0,1.2,0.8,1.2,1.1
			c0,0.2-0.2,0.3-0.4,0.3h-1.5c-0.8,0-1.6,0.1-2.4,0.2l-0.4-0.8c0.6,0.1,1.3,0.1,1.9,0.1h0.9L88.4,22.3z M86.4,35.1
			c0,0.4,0,0.5,0.1,0.7c-0.1,0.2-0.4,0.4-0.8,0.4c-0.1,0-0.2-0.2-0.2-0.3c0-0.5,0.1-0.8,0.1-1.6v-1c0-1-0.1-2.2-0.2-3l1.2,0.6h2.1
			l0.2-0.3c0.1-0.1,0.2-0.3,0.4-0.3c0.2,0,1.1,0.7,1.1,0.9c-0.1,0.1-0.3,0.3-0.6,0.3v1.3c0,1.3,0,1.7,0.1,2.4
			c-0.1,0.2-0.6,0.4-0.9,0.4c-0.1,0-0.2-0.2-0.2-0.3c0-0.1,0-0.1,0-0.2v-0.3h-2.3V35.1z M88.6,26.4c0.2-0.2,0.3-0.4,0.4-0.4
			c0.2,0,1,0.7,1,1c0,0.2-0.2,0.3-0.4,0.3h-1.6c-0.8,0-1.6,0.1-2.4,0.2l-0.4-0.8c0.7,0.1,1.4,0.1,2.1,0.1h1L88.6,26.4z M88.6,28.4
			c0.2-0.2,0.3-0.4,0.4-0.4c0.2,0,1,0.8,1,1c0,0.2-0.2,0.3-0.4,0.3h-1.6c-0.8,0-1.6,0.1-2.4,0.2l-0.4-0.8c0.7,0.1,1.4,0.1,2.1,0.1h1
			L88.6,28.4z M86.4,34.3h2.3v-3h-2.3V34.3z M96.7,24.6c0.2-0.2,0.3-0.4,0.4-0.4c0.2,0,1.2,0.8,1.2,1c0,0.2-0.2,0.3-0.4,0.3H95v1.4
			h2l0.3-0.4c0.2-0.2,0.3-0.4,0.4-0.4c0.2,0,1.2,0.9,1.2,1.1c0,0.2-0.2,0.3-0.4,0.3h-5.5c-0.8,0-1.6,0.1-2.4,0.2l-0.4-0.8
			c0.7,0.1,1.4,0.1,2.1,0.1H94v-1.4h-0.9c-0.5,0-1.1,0.1-1.6,0.2l-0.4-0.8c0.6,0.1,1.3,0.1,1.9,0.1H94v-1.3h-1
			c-0.7,0-1.3,0.1-1.9,0.2l-0.4-0.8c0.7,0.1,1.4,0.1,2.1,0.1H94c0-0.5,0-1.1-0.1-1.6c1.6,0.5,1.6,0.7,1.4,0.8L95,22.7v0.6h1.7
			l0.3-0.4c0.2-0.2,0.3-0.4,0.4-0.4c0.2,0,1.2,0.9,1.2,1.1c0,0.2-0.2,0.3-0.4,0.3H95V25h1.4L96.7,24.6z M92.5,34
			c0,0.9,0,1.3,0.1,1.8c-0.1,0.2-0.5,0.4-0.9,0.4c-0.1,0-0.3-0.2-0.3-0.3c0.1-1,0.1-1.5,0.1-3v-1.7c0-1.1-0.1-2.4-0.2-3.3l1.2,0.6
			h3.9l0.2-0.3c0.1-0.2,0.2-0.3,0.3-0.3c0.2,0,1.2,0.7,1.2,1c-0.1,0.1-0.4,0.2-0.7,0.3v5.6c0,0.8-0.1,1.3-1.4,1.5
			c0-0.3-0.1-0.6-0.3-0.8c-0.2-0.2-0.5-0.3-1-0.4v-0.3c0,0,1.2,0.1,1.4,0.1c0.3,0,0.3-0.1,0.3-0.3V33h-4.1V34z M96.6,29h-4.1v1.5
			h4.1V29z M92.5,32.6h4.1V31h-4.1V32.6z"/>
		<path class="st1" d="M112.8,24.5c0.2-0.2,0.3-0.5,0.4-0.5c0.2,0,1.3,0.9,1.3,1.2c0,0.2-0.2,0.3-0.4,0.3h-5.9v0.9
			c0.4,1.3,0.8,2.4,1.5,3.3c0.2-0.3,0.5-0.5,0.7-0.8c0.7-0.8,1.3-2,1.6-2.8c1.6,1,1.6,1.1,1.3,1.1l-0.3,0c-0.7,0.8-1.9,1.9-3,2.8
			c1.3,1.8,2.9,2.9,4.6,3.6l0,0.2c-0.4,0.1-0.7,0.4-0.9,0.9c-2.4-1.5-4.3-3.5-5.3-7.4v7.3c0,0.9-0.2,1.4-1.7,1.6
			c0-0.3-0.1-0.6-0.4-0.8c-0.3-0.2-0.7-0.3-1.5-0.4v-0.3c0,0,1.8,0.2,2.1,0.2c0.3,0,0.4-0.1,0.4-0.4v-4.3c-1.1,1-2.7,2.2-4.7,3.8
			c0,0.2-0.1,0.4-0.2,0.4l-1-1.2c1-0.5,3.5-1.9,6-3.4v-4.3h-3.5c-0.8,0-1.6,0.1-2.4,0.2l-0.4-0.8c0.7,0.1,1.4,0.1,2.1,0.1h4.2v-0.1
			c0-1.1-0.1-2.4-0.2-3.3c1.8,0.5,1.8,0.7,1.5,0.8l-0.3,0.2V25h4.2L112.8,24.5z M102.9,26.5c3.7,1.5,2.9,4,1.8,3.2
			c-0.2-1-1.2-2.3-1.9-3.1L102.9,26.5z M109.6,22.2c3.3,0.6,2.8,2.9,1.7,2.3c-0.3-0.8-1.1-1.7-1.8-2.2L109.6,22.2z"/>
	</g>
</g>
</svg>
