<svg xmlns="http://www.w3.org/2000/svg" viewBox="0 0 307 104" style="enable-background:new 0 0 307 104" xml:space="preserve"><path style="fill:#fff" d="M0 0h307v104H0z"/><path style="fill:none;stroke:#2b2c28;stroke-width:1.005;stroke-miterlimit:10" d="M6.4 6.4h294.3v91.2H6.4z"/><path d="M102.3 49.2c1.1-.2 3.7-.9 6.3-1.6l.1.3c-1.2.6-2.8 1.5-5.1 2.5-.1.2-.2.4-.4.5l-.4-.9-.5-.8zm7.8 10.8h-.5c-1.6.8-4.3 1.5-6.8 1.9l-.1-.3c.9-.2 1.9-.6 2.9-1 1.2-.5 2.5-1.3 3.3-2.1l.9.9c.7.4.7.6.3.6zm-6.5-16.5c4.7.8 4 3.8 2.6 3-.5-1-1.8-2.2-2.7-2.8l.1-.2zm11.9 6.7c.2-.2.3-.5.5-.5s1.4 1 1.4 1.3c-.1.1-.4.3-.7.4v2.4c0 2.4.1 3.2.2 4.6-.2.2-.8.5-1.2.5h-.2v-.8H107v.6c0 .1-.5.4-1.1.4-.2 0-.3-.2-.3-.4.1-1 .1-1.5.1-3.1V54c0-1.4-.1-3.1-.3-4.2l1.6.8h8.1l.4-.4zm-.1 1H107v1.7h8.4v-1.7zm0 4v-1.7H107v1.7h8.4zm-8.4 2.4h8.4v-1.7H107v1.7zm10.7-12.9c.2-.2.3-.5.5-.5s1.3 1.2 1.3 1.5c-.1.2-.4.2-.7.2-.5.5-1.5 1.3-2.2 1.7l-.3-.1c.3-.5.7-1.2 1-1.8h-3.4c.6 1.8 2.1 3.2 6.1 3.9v.2c-.6.1-1 .3-1.1 1-3.5-.9-4.7-2.7-5.2-4.7-.8 2.4-2.8 3.5-6.1 4l-.1-.3c3-.8 4.4-2 5-4.2h-2.1c-.7.7-1.6 1.4-2.6 1.9l-.2-.2c.2-.2.5-.4.7-.6.9-1 1.8-2.6 1.9-3.7 2.2.7 2.2.9 1.9.9l-.3.1c-.2.4-.5.8-.8 1.1h6.5l.2-.4zm-5.5 14.4c9 .6 6.8 3.6 5.3 2.5-1.1-.8-2.9-1.6-5.3-2.2v-.3zM135.5 50.4c.2-.3.3-.6.5-.6s1.5 1.1 1.5 1.4c0 .2-.2.3-.5.3h-3.3v1.4c4.5 1.3 3.7 4.3 2.3 3.4-.3-1-1.4-2.3-2.3-3.1v3.2c0 2.4.1 3.3.2 4.8-.2.3-.7.6-1.1.6-.2 0-.4-.2-.4-.4.1-1.6.2-2.5.2-5v-2.7c-.9 1.9-2.1 3.6-3.6 4.9l-.2-.3c1.5-1.9 2.6-4.4 3.3-6.9H131c-.6 0-1.2.1-1.8.3l-.5-1c.9.1 1.8.1 2.7.2h1.3v-3.6c0-1.4-.1-3.1-.3-4.2 2.2.7 2.2.9 1.8 1.1l-.3.2v6.4h1.5l.1-.4zm-6.3-5.4c3.3 2.5 2 5.2.9 4 0-1.3-.6-2.9-1.2-3.9l.3-.1zm8 .8-.3.1c-.6 1.2-1.4 2.6-2.1 3.6l-.3-.2c.1-.2.1-.3.2-.5.4-1.3.7-3.1.8-4.2l1.2.5c.8.3.8.5.5.7zm7.3 9.3.3-.7c.2-.4.3-.8.4-.8.2 0 1.7.9 1.7 1.2 0 .2-.2.4-.4.4l-2.5.6v1.9c0 1.8.1 2.4.1 3.6-.1.3-.7.6-1.1.6-.3 0-.4-.2-.4-.4.1-1.1.1-1.7.2-3.4v-1.9l-5.6 1.3-.2-.5 5.9-1.3v-8.1c0-1.4-.1-3.1-.3-4.2 2.2.7 2.2.9 1.9 1.1l-.3.2v10.7l.3-.3zm-6.6-5.2c4.5.9 3.8 3.9 2.4 3.1-.4-1-1.6-2.3-2.6-2.9l.2-.2zm.4-4.7c4.3 1.1 3.5 4.1 2.2 3.2-.3-1-1.5-2.3-2.4-3l.2-.2zM157.8 47.8c-.7 0-1.4.1-2.1.3l-.5-1c.9.1 1.8.1 2.7.2h2.8l.4-.5c.2-.3.4-.6.5-.6.2 0 1.5 1.1 1.5 1.4 0 .2-.2.3-.5.3h-4.8zm2.2-3.7c.2-.3.3-.5.5-.5s1.5 1.1 1.5 1.4c0 .2-.2.3-.5.3h-1.9c-1.1 0-2 .1-3 .3l-.5-1.1c.8.1 1.6.1 2.5.2h1.2l.2-.6zm-2.6 16.4c0 .5 0 .6.1.8-.1.2-.6.5-1.1.5-.2 0-.3-.2-.3-.4.1-.7.1-1 .1-2.1V58c0-1.3-.1-2.8-.2-3.8l1.5.7h2.7l.3-.4c.2-.2.3-.4.4-.4.2 0 1.4.9 1.4 1.2-.1.2-.4.3-.8.4v1.6c0 1.6.1 2.2.1 3.1-.1.2-.7.5-1.2.5-.2 0-.2-.2-.2-.4 0-.1 0-.1.1-.3V60h-3v.5zm2.8-11.2c.2-.2.3-.5.5-.5s1.3 1 1.3 1.3c0 .2-.2.3-.5.3h-2c-1.1 0-2 .1-3 .3l-.5-1c.9.1 1.7.1 2.6.2h1.2l.4-.6zm0 2.6c.2-.2.3-.5.5-.5s1.3 1 1.3 1.3c0 .2-.2.3-.5.3h-2c-1.1 0-2 .1-3 .3l-.5-1c.9.1 1.7.1 2.6.2h1.2l.4-.6zm-2.8 7.5h3v-3.8h-3v3.8zm13-12.4c.2-.3.3-.5.5-.5s1.5 1 1.5 1.3c-.1.2-.2.3-.5.3h-3.6v1.8h2.5l.4-.6c.2-.3.4-.6.5-.6.2 0 1.5 1.1 1.5 1.4-.1.2-.2.3-.5.3h-7c-1.1 0-2 .1-3 .3l-.5-1.1c.9.1 1.8.1 2.7.2h2V48h-1.1c-.7 0-1.4.1-2 .3l-.5-1c.8.1 1.6.1 2.5.2h1.2v-1.7h-1.3c-.8 0-1.6.1-2.4.3l-.5-1.1c.9.1 1.8.1 2.7.2h1.6c0-.6 0-1.4-.1-2 2.1.6 2.1.8 1.7 1.1l-.3.2v.7h2.2l.4-.5c.2-.3.4-.6.5-.6.2 0 1.5 1.1 1.5 1.4-.1.2-.2.3-.5.3h-4.1v1.7h1.7l.3-.5zm-5.2 12c0 1.2 0 1.6.1 2.3-.1.2-.6.6-1.1.6-.2 0-.3-.2-.3-.4.1-1.3.1-1.9.2-3.8v-2.1c0-1.4-.1-3.1-.3-4.2l1.6.8h5l.3-.4c.2-.2.3-.4.4-.4.2 0 1.6 1 1.6 1.3-.1.2-.4.3-.8.4V60c0 1-.2 1.7-1.8 1.9-.1-.4-.1-.8-.4-1-.2-.2-.6-.4-1.3-.5v-.3s1.5.1 1.8.1c.3 0 .4-.1.4-.4v-2.1h-5.2V59zm5.2-6.4h-5.2v1.9h5.2v-1.9zm-5.2 4.6h5.2v-2h-5.2v2zM197.4 46.9c.2-.3.4-.6.6-.6.2 0 1.6 1.2 1.6 1.5 0 .2-.2.3-.5.3h-7.5v1.2c.4 1.7 1.1 3.1 1.8 4.3.3-.3.6-.7.9-1.1.8-1.1 1.6-2.5 2-3.6 2 1.2 2 1.4 1.6 1.5h-.4c-.9 1-2.4 2.5-3.9 3.5 1.6 2.3 3.7 3.7 5.8 4.6v.2c-.5.1-.9.5-1.2 1.2-3-1.9-5.4-4.5-6.7-9.5v9.3c0 1.1-.2 1.8-2.2 2-.1-.4-.2-.8-.5-1-.3-.2-.9-.4-1.8-.6v-.3s2.2.2 2.7.2c.4 0 .5-.1.5-.5v-5.6c-1.5 1.2-3.4 2.9-6 4.8 0 .2-.1.5-.3.6l-1.3-1.5c1.3-.6 4.4-2.4 7.6-4.4v-5.5h-4.4c-1.1 0-2 .1-3 .3l-.5-1.1c.9.1 1.8.1 2.7.2h5.3v-.1c0-1.4-.1-3.1-.3-4.2 2.2.7 2.2.9 1.9 1.1l-.3.2v3h5.3l.5-.4zm-12.6 2.5c4.7 1.9 3.7 5.2 2.2 4.1-.3-1.3-1.5-2.9-2.4-3.9l.2-.2zm8.4-5.5c4.2.8 3.5 3.8 2.2 2.9-.3-1-1.4-2.1-2.3-2.8l.1-.1z"/></svg>