<svg xmlns="http://www.w3.org/2000/svg" viewBox="0 0 307 104" style="enable-background:new 0 0 307 104" xml:space="preserve"><path style="fill:#fff" d="M0 0h307v104H0z"/><path style="fill:none;stroke:#2b2c28;stroke-width:1.005;stroke-miterlimit:10" d="M6.4 6.4h294.3v91.2H6.4z"/><path d="m61.1 51.8-.1-.3c2.1-1.2 4.5-3.2 6.2-5.2.8-1 1.5-2.2 1.7-3.3l2.6.8c-.1.2-.3.3-.8.4 1.7 2.4 5 4.6 8.2 5.8v.3c-.6.1-1.1.7-1.2 1.2-3.1-1.5-6-4.3-7.3-7.1-1.8 2.8-5.6 5.9-9.3 7.4zm13.3 7.3c-.8-1.1-1.7-2.2-2.5-2.9l.2-.2c6.3 2.9 5.4 6.9 3.7 5.7-.2-.7-.6-1.4-1.1-2.1-2.7.5-6.2 1-11 1.7-.1.2-.3.4-.5.4l-.8-1.8c.7 0 1.8-.1 3.1-.1.7-1.5 1.5-3.7 2-5.3h-2.2c-1.1 0-2 .1-3 .3l-.5-1c.9.1 1.8.1 2.7.2h10.7l.4-.6c.2-.3.4-.7.6-.7.2 0 1.8 1.2 1.8 1.5 0 .2-.2.3-.5.3h-8.2c-.8 1.7-2 3.8-3 5.2 2.3-.2 5.1-.4 8.1-.6zm-6.2-8.3c-.9 0-1.8.1-2.7.3L65 50c.9.1 1.8.1 2.7.2H72l.4-.6c.2-.3.4-.6.6-.6.2 0 1.7 1.2 1.7 1.5-.1.2-.2.3-.5.3h-6zM95.5 59.5H95c-1.6 1-4.1 2-6.9 2.3l-.1-.2c1.1-.3 2.1-.7 3.1-1.2 1.2-.6 2.3-1.4 3-2.3l1 .8c.8.3.8.5.4.6zm6.5-10.4c.2-.2.3-.5.5-.5s1.5 1.1 1.5 1.4c-.1.2-.4.3-.8.4v2.8c0 2.4.1 3.3.2 4.8-.2.2-.8.5-1.2.5h-.2v-.8H91.5v.7c0 .1-.5.5-1.1.5-.2 0-.4-.2-.4-.4.1-1.2.1-1.7.2-3.5v-2c0-1.4-.1-3.1-.3-4.2l1.6.8h10.1l.4-.5zm-.8-5.3c.2-.2.3-.5.5-.5s1.5 1 1.5 1.3c-.1.2-.5.3-.8.4v1.1c0 1.1 0 1.4.1 2-.1.2-.7.5-1.2.5h-.2v-.7h-8.9v.5c0 .1-.6.4-1.1.4-.2 0-.3-.2-.3-.4.1-.4.1-.7.1-1.3v-.9c0-.9 0-2-.2-2.7l1.5.7h8.5l.5-.4zm.7 6.4H91.5v1.9h10.4v-1.9zm0 4.4v-2H91.5v2h10.4zm-10.4 2.6h10.4v-2H91.5v2zm9.6-12.4h-8.9v2.5h8.9v-2.5zm-2.9 13.9c6.9.5 7.4 3.4 5.8 3.2-1.3-1-4.1-2.4-6-2.9l.2-.3zM121 45.3h-1.5c-.9 0-1.8.1-2.7.3l-.5-1.1c.9.1 1.8.1 2.7.2h2l.4-.4c.2-.2.4-.4.5-.4.2 0 1.4 1 1.4 1.3-.2.2-.4.2-.8.2-1.5 3.3-4.2 6.4-8.2 8.2l-.2-.3c1.7-1 3.2-2.4 4.4-3.9-.2 0-.4 0-.6-.1-.3-1-1.3-2.1-2.2-2.7l.2-.2c2.4.5 3.2 1.6 3.2 2.3.7-1 1.4-2.2 1.9-3.4zm8.3 15.5.4-.7c.2-.3.4-.7.6-.7.2 0 1.7 1.3 1.7 1.6-.1.2-.2.3-.5.3H118c-1.1 0-2 .1-3 .3l-.5-1c.9.1 1.8.1 2.7.2h7.2c.5-1.2 1-2.8 1.1-3.9 2.2.8 2.2 1 1.8 1.1l-.3.1c-.5.8-1.2 1.8-2 2.7h4.3zm-2.1-9c.2-.2.3-.4.5-.4s1.4 1 1.4 1.3c-.1.1-.4.3-.7.3v1.2c0 1.2 0 1.6.1 2.4-.1.2-.8.5-1.2.5h-.2v-.8h-7.7v.6c0 .1-.5.4-1.1.4-.2 0-.3-.2-.3-.4.1-.5.1-.8.1-1.5v-1c0-1-.1-2.2-.2-3l1.5.8h7.4l.4-.4zm-7.7 5.3c3.5 1.6 2.2 4.3 1 3.2 0-1-.6-2.3-1.2-3.1l.2-.1zm-.1-1.4h7.7v-2.9h-7.7v2.9zm2.7-5.4c-.6 0-1.3.1-1.9.3l-.5-1.1c.9.1 1.8.1 2.7.2h2.1l.4-.5c.2-.3.4-.5.5-.5.2 0 1.5 1.1 1.5 1.4-.1.2-.2.3-.5.3H122.1zm10.4 1.8-.1.2c-.5.1-1 .4-1.2 1.1-3.6-2-6.3-5.3-7.5-10l.3-.2c.4 1.4 1.1 2.6 1.9 3.7.9-.9 1.9-2.2 2.3-3.1 1.7 1.2 1.7 1.4 1.4 1.4h-.4c-.7.6-1.9 1.4-3.1 2.1.5.6 1 1.2 1.6 1.8 1-.9 2-2.1 2.5-3.1 1.7 1.2 1.7 1.4 1.4 1.4h-.4c-.7.6-2 1.4-3.1 2 1.4 1.2 2.9 2.1 4.4 2.7zM147.4 47.8c-.4-.9-1.2-2.1-2.3-3.2-.9 2-2.4 4.4-4.2 5.9l-.3-.2c.7-.9 1.4-2.1 2-3.3.6-1.2 1.1-2.8 1.2-3.9l2.1.8c0 .2-.2.3-.7.4 4.7 2 3.3 4.4 2.2 3.5zm-.7 4c.2-.3.3-.6.5-.6s1.4 1.1 1.4 1.4c-.1.2-.2.3-.5.3h-2.8v5.9c1-.3 2-.7 3.1-1.1l.1.3c-1.4.8-3.4 1.9-6.2 3.2-.1.2-.2.4-.4.5l-1-1.6c.7-.2 1.8-.5 3.2-1v-6.2h-1c-.6 0-1.1.1-1.7.3l-.5-1c.7.1 1.4.1 2.1.2h1v-2.6h-.5c-.3 0-.6.1-.8.3l-.5-1c.8.1 1.5.1 2.3.2h1.1l.3-.5c.2-.3.3-.5.5-.5s1.4 1 1.4 1.3c-.1.2-.2.3-.5.3h-2.1v2.6h1l.5-.7zM142 54c2.5 2.8 1.2 5.2.3 4.1.1-1.3-.2-2.9-.6-4l.3-.1zm6.1.7-.3.2c-.4 1.1-.9 2.3-1.5 3.2l-.3-.1c.3-1.3.5-3 .4-4.1l1.1.4c.9 0 .9.2.6.4zm9.1-4.8c.2-.3.3-.5.5-.5s1.3 1.1 1.3 1.4c0 .2-.2.3-.5.3H154v.4c.2 1.5.6 2.7 1.2 3.7.8-1 1.6-2.4 1.9-3.4 1.8 1 1.8 1.2 1.4 1.3h-.4c-.6.7-1.7 1.6-2.7 2.4 1 1.8 2.3 2.9 3.7 3.7v.2c-.4.1-.8.5-1 1.1-2-1.7-3.3-3.8-4-7.7v7.1c0 1-.2 1.8-1.8 1.9 0-.4-.1-.7-.3-.9-.2-.2-.6-.4-1.3-.5v-.3s1.5.1 1.8.1c.3 0 .4-.1.4-.4V56l-3.8 3.8c0 .2-.1.5-.2.6l-1.2-1.3c.9-.5 3.1-2 5.2-3.5V51h-1.5c-.9 0-1.8.1-2.6.3l-.5-1c.9.1 1.8.1 2.7.2h4.6V48h-2.2c-1.1 0-2 .1-3 .3l-.5-1c.9.1 1.8.1 2.7.2h3.1v-2.3h-2.6c-1.1 0-2 .1-3 .3l-.5-1.1c.9.1 1.8.1 2.7.2h3.4l.3-.4c.2-.2.3-.4.4-.4.2 0 1.4.9 1.4 1.2-.1.1-.4.3-.7.4v5.1h.2l-.1-.6zm-8 2.2c3.6 1.6 2.5 4 1.4 3.1-.2-.9-1-2.2-1.7-3l.3-.1zM175.4 43l.3.4c-2.3 1.9-4.4 4.8-4.4 9.1s2.1 7.2 4.4 9.1l-.3.4c-2.7-1.7-5.4-4.6-5.4-9.5 0-4.8 2.7-7.7 5.4-9.5zM198.9 50.3c.2-.3.4-.6.5-.6.2 0 1.6 1.2 1.6 1.5 0 .2-.2.3-.5.3h-2.9v4.2h.8l.4-.6c.2-.3.4-.6.5-.6.2 0 1.5 1.2 1.5 1.5-.1.2-.2.3-.5.3h-13.8c-1.1 0-2 .1-3 .3l-.5-1c.7.1 1.4.1 2.1.2h1v-4.2h-1c-.6 0-1.2.1-1.8.3l-.5-1c.7.1 1.5.1 2.3.2h1.1v-3.8c-.9 1-1.9 1.8-2.8 2.4l-.2-.2c.6-.6 1.3-1.4 1.9-2.3.8-1.1 1.6-2.9 1.9-4 2.1 1 2.1 1.2 1.7 1.3l-.4.1c-.3.6-.7 1.1-1.1 1.6l.3.2h10.3l.4-.6c.2-.3.4-.6.6-.6.2 0 1.6 1.2 1.6 1.5 0 .2-.2.3-.5.3h-2.4v4h.9l.5-.7zm-12.4 6.8c.4 2.5-.7 3.9-1.6 4.5-.5.4-1.3.4-1.5-.1-.2-.4.1-.8.5-1.1 1-.4 2.2-1.7 2.3-3.4l.3.1zm.9-10.4V51h2.1v-4.2h-2.1zm0 4.8v4.2h2.1v-4.2h-2.1zm1.6 5.8c2.9 2.6 1.5 5.3.4 4.1.1-1.3-.2-2.9-.7-4l.3-.1zm4-10.6h-2.3V51h2.3v-4.3zm0 4.8h-2.3v4.2h2.3v-4.2zm-.4 5.8c3.9 2.2 2.8 5.2 1.6 4.1-.1-1.3-1.1-2.9-1.9-3.9l.3-.2zm3.8-10.6h-2.2V51h2.2v-4.3zm0 9v-4.2h-2.2v4.2h2.2zm0 1.3c5.5 2 4.6 5.7 3.1 4.6-.4-1.5-2-3.4-3.4-4.5l.3-.1zM215 50.4c.2-.3.3-.6.5-.6s1.5 1.1 1.5 1.4c0 .2-.2.3-.5.3h-3.3v1.4c4.5 1.3 3.7 4.3 2.3 3.4-.3-1-1.4-2.3-2.3-3.1v3.2c0 2.4.1 3.3.2 4.8-.2.3-.7.6-1.1.6-.2 0-.4-.2-.4-.4.1-1.6.2-2.5.2-5v-2.7c-.9 1.9-2.1 3.6-3.6 4.9l-.2-.3c1.5-1.9 2.6-4.4 3.3-6.9h-1.1c-.6 0-1.2.1-1.8.3l-.5-1c.9.1 1.8.1 2.7.2h1.3v-3.6c0-1.4-.1-3.1-.3-4.2 2.2.7 2.2.9 1.8 1.1l-.3.2v6.4h1.5l.1-.4zm-6.3-5.4c3.3 2.5 2 5.2.9 4 0-1.3-.6-2.9-1.2-3.9l.3-.1zm7.9.8-.3.1c-.6 1.2-1.4 2.6-2.1 3.6l-.3-.2c.1-.2.1-.3.2-.5.4-1.3.7-3.1.8-4.2l1.2.5c.8.3.8.5.5.7zm7.4 9.3.3-.7c.2-.4.3-.8.4-.8.2 0 1.7.9 1.7 1.2 0 .2-.2.4-.4.4l-2.5.6v1.9c0 1.8.1 2.4.1 3.6-.1.3-.7.6-1.1.6-.3 0-.4-.2-.4-.4.1-1.1.1-1.7.2-3.4v-1.9l-5.6 1.3-.2-.5 5.9-1.3v-8.1c0-1.4-.1-3.1-.3-4.2 2.2.7 2.2.9 1.9 1.1l-.3.2v10.7l.3-.3zm-6.7-5.2c4.5.9 3.8 3.9 2.4 3.1-.4-1-1.6-2.3-2.6-2.9l.2-.2zm.5-4.7c4.3 1.1 3.5 4.1 2.2 3.2-.3-1-1.5-2.3-2.4-3l.2-.2zM233.7 43c2.7 1.7 5.4 4.6 5.4 9.5s-2.7 7.8-5.4 9.5l-.3-.4c2.3-1.9 4.4-4.8 4.4-9.1s-2.1-7.2-4.4-9.1l.3-.4z"/></svg>