<?xml version="1.0" encoding="UTF-8"?>
<svg id="_レイヤー_2" data-name="レイヤー 2" xmlns="http://www.w3.org/2000/svg" xmlns:xlink="http://www.w3.org/1999/xlink" viewBox="0 0 281.34 113.47">
  <defs>
    <style>
      .cls-1 {
        fill: #e50012;
      }

      .cls-2 {
        fill: url(#_名称未設定グラデーション_80);
      }

      .cls-3 {
        fill: #1d2087;
      }
    </style>
    <linearGradient id="_名称未設定グラデーション_80" data-name="名称未設定グラデーション 80" x1="0" y1="81.6" x2="281.34" y2="81.6" gradientUnits="userSpaceOnUse">
      <stop offset="0" stop-color="#236999"/>
      <stop offset=".18" stop-color="#2a9ac7"/>
      <stop offset=".25" stop-color="#2eaeda"/>
      <stop offset=".38" stop-color="#247ca9"/>
      <stop offset=".45" stop-color="#1f6390"/>
      <stop offset=".82" stop-color="#3382a8"/>
    </linearGradient>
  </defs>
  <g id="_レイヤー_1-2" data-name="レイヤー 1">
    <g>
      <path class="cls-2" d="m33.07,77.21c0,.61-.93,1.47-2.8,2.59-1.42.81-2.66,1.42-3.7,1.83-.88.34-2.7.86-5.44,1.57-.61.17-1.52.41-2.74.71h-.71c-4.85,0-9.32-2.08-13.41-6.25-.68-.64-1.15-1.34-1.42-2.08-1.9-4.84-2.85-9.53-2.85-14.07,0-3.79.67-7.14,1.98-10.06,1.63.61,2.68,1.51,3.15,2.69-.07.85-.34,2.25-.81,4.22-.41,1.79-.61,3.21-.61,4.26,0,1.39.42,2.96,1.27,4.73l18.8-16.56c.74.04,1.45.22,2.12.56.92.48,1.39.92,1.42,1.32v1.88l-10.35,8.79c-4.1,3.42-7.82,6.25-11.17,8.48-.1.54-.15.94-.15,1.22,0,1.01.66,2.13,1.98,3.35.1.07.6.51,1.52,1.32.54.44.97.85,1.27,1.22,1.93.51,3.81.76,5.64.76,2.41,0,5.1-.44,8.07-1.32,2.61-.88,5.2-1.76,7.77-2.64.78.68,1.17,1.17,1.17,1.47m62.1-7.93c-1.15-2.51-2.97-4.64-5.48-6.4-2.34-1.69-5.01-2.9-8.03-3.65.68-2.23,1.32-4.27,1.93-6.09-.77-1.56-1.74-2.5-2.89-2.84v.97c0,2.98-1.08,5.01-3.25,6.09-1.35.64-3.74,1.07-7.16,1.27-3.52.23-5.89.62-7.11,1.16.13,2.2,1.06,3.3,2.79,3.3.71,0,1.76-.13,3.15-.41,1.39-.27,2.43-.41,3.1-.41,1.22,0,2.33.38,3.36,1.12l-5.44,16.86c.17.81.57,1.58,1.22,2.31.65.73,1.32,1.08,2.03,1.04h.11c1.55-6.81,3.89-13.61,7-20.41.41-.03.71-.05.91-.05,1.83,0,3.67.58,5.53,1.73.98.61,2.54,1.81,4.67,3.61-.72,6.63-3.32,10.81-7.82,12.54l-.05.1v.25c0,.48.28,1.01.86,1.63.47.44.95.87,1.42,1.32,2.78-1.15,5.01-3.2,6.7-6.14,1.59-2.75,2.41-5.71,2.44-8.89m40.3,1.72c-.85-8.7-1.27-14.17-1.27-16.4,0-.34.02-.87.05-1.58.04-.71.05-1.23.05-1.57,0-.04-.03-.15-.1-.36-.27-.74-.82-1.11-1.63-1.11-.14,0-.27.02-.41.04l-.45,6.56c-.14,1.93-.2,2.94-.2,3.05,0,5.31,1.32,9.11,3.96,11.37m15.84-17.83c-.68-1.35-1.44-2.03-2.29-2.04-.13,0-.27.04-.4.11-1.59,9.07-3.34,19.82-5.23,32.24.54.34.96.51,1.27.51.3,0,.77-.18,1.37-.55,2.57-9.48,4.33-19.57,5.28-30.27m68.38,5.23c-2.64-4.71-7.75-7.06-15.33-7.06-3.15,0-5.49.2-7.01.61-.1.04-.25.1-.46.2-1.49.54-2.62.9-3.4,1.06-1.66.48-2.79.92-3.41,1.33-1.01.64-1.5,1.62-1.47,2.94.81,1.12,1.67,1.68,2.59,1.68.68,0,1.91-.53,3.7-1.6,1.8-1.07,3.17-1.6,4.09-1.6.93,0,2.32-.11,4.17-.33,1.85-.21,3.22-.33,4.13-.33,3.42,0,5.86,1.01,7.32,3.05-1.96,2.64-4.45,4.93-7.46,6.85-3.56,2.07-6.26,3.61-8.12,4.62,1.11,2.27,3.65,4.75,7.61,7.47.04.04,1.66,1.08,4.88,3.15,1.96,1.29,3.54,2.42,4.72,3.4h1.27v-.1c.04-1.79-1-3.49-3.09-5.08-1.8-1.15-3.59-2.3-5.39-3.46-1.42-1.08-2.49-2.29-3.2-3.65,1.01-.91,2.37-1.96,4.07-3.15,2.94-2.07,4.86-3.49,5.74-4.27,2.1-1.86,3.45-3.77,4.06-5.74m61.65,6.4c-.31-.75-.83-1.12-1.58-1.12-.34,0-.84.08-1.52.23-.68.15-1.19.23-1.52.23-.17,0-.32-.02-.46-.05-1.04.34-1.91.51-2.59.51-2.13,0-3.2-1.69-3.2-5.08,0-.47.03-1.17.08-2.08.06-.92.08-1.59.08-2.03,0-.98-.07-1.74-.21-2.29.31-.58.83-.86,1.57-.86.21,0,.5.02.89.07.39.05.69.07.89.07.48,0,.71-.23.71-.71v-.46c-.78-1.02-1.88-1.53-3.3-1.53s-3.5.61-6.24,1.83c-2,.95-4.01,1.91-6.04,2.89-1.63.71-2.71,1.61-3.25,2.69.51.72,1.16,1.07,1.98,1.07.5,0,1.2-.18,2.08-.56,1.35-.68,2.71-1.37,4.06-2.08,1.66-.81,3.06-1.25,4.22-1.32.24,1.72.44,2.96.61,3.71.34,1.49.5,2.66.5,3.5,0,.92-.18,1.83-.56,2.74-.98-.1-1.69-.15-2.13-.15-1.49,0-3.26.18-5.33.56-3.25.61-4.96.92-5.13.92-.03.17-.05.31-.05.41,0,.68.29,1.29.87,1.83.88,0,2.24-.13,4.06-.39,1.83-.25,3.22-.38,4.17-.38,1.66,0,3.19.32,4.62.96l.72,14.27c.03.38.21.75.53,1.14.32.39.66.57.99.54h.1c.1-.74.16-1.69.16-2.85,0-.91-.06-2.29-.18-4.11-.12-1.83-.18-3.2-.18-4.12,0-2.2.24-4.12.72-5.78.74-.44,1.74-.66,3-.66.27,0,.68.02,1.24.05.55.03.97.05,1.24.05,1.73,0,2.86-.56,3.41-1.67M57.32,113.19l-.13.12v-.12s0-.09,0-.09c-.09-.39-.17-.7-.25-.92-.09-.48-.16-1.02-.21-1.65-.06-1.29-.12-2.58-.16-3.87-.13-1.46-.44-2.71-.96-3.75-.18-.49-.31-.87-.39-1.14-.18-.51-.33-.76-.46-.76s-.24.14-.37.44c.04.13.26.78.67,1.94.29.78.43,1.44.43,1.99,0,.19-.02.39-.06.6-.58.41-1.27.62-2.07.62-.31,0-.78-.03-1.39-.11-.61-.07-1.08-.11-1.39-.11-.47,0-.92.08-1.39.23-.31-1.28-.51-2.23-.62-2.84-.2-1.07-.5-1.88-.89-2.45h-.16c-.17,0-.3.04-.35.12.59,1.5.88,3.74.88,6.72,0,2.58,0,3.82-.01,3.7.16.4.29.73.39.97.18.39.36.59.53.59.05,0,.1,0,.16-.02-.19-.53-.29-1.28-.29-2.23,0-.22,0-.56.01-1.01.02-.45.02-.79.02-1.01,0-.28-.01-.53-.03-.77.66-.53,1.49-.8,2.5-.8.32,0,.8.04,1.44.1.64.07,1.12.1,1.44.1.52,0,1.02-.09,1.49-.27l.65,4.46c.18.34.3.61.37.8.13.28.29.42.5.41h.07Zm11.74-.04c.04-.23.05-.42.05-.55-.66-1.15-.99-2.59-.99-4.31,0-.68.06-1.68.18-3.01.13-1.32.19-2.32.19-2.98,0-.15-.1-.36-.3-.62-.19-.26-.39-.44-.58-.53-.39,1.72-.58,3.5-.58,5.33,0,1.61.15,3.12.46,4.54.09.36.2.74.33,1.15.13.42.24.68.29.79.18.29.39.44.66.44.15,0,.25-.07.28-.23m10.36-12.27c-.39,1.29-.58,2.76-.58,4.41,0,1.22.2,3.4.58,6.56.11.25.21.5.3.76.14.3.32.48.54.55l.02-.05c.12-.25.18-.38.18-.39,0-.37-.08-.91-.24-1.62-.16-.71-.24-1.25-.24-1.62,0-.24.03-.5.09-.8,1.16.34,2,.6,2.51.76.9.27,1.7.41,2.4.41.42,0,.83-.04,1.2-.14,0-.05.01-.12.03-.23.02-.1.02-.19.02-.23,0-.11-.02-.19-.07-.25-1.95-.15-3.07-.26-3.38-.32-1.3-.25-2.35-.79-3.14-1.64,1.44-1.31,2.69-1.99,3.77-2.04.14-.12.31-.17.51-.17.16,0,.37.04.63.13.26.09.47.13.61.13.18,0,.26-.16.26-.48v-.16c-.47-.27-1.01-.41-1.61-.41-1.05,0-2.33.52-3.84,1.53-.19-.39-.29-.8-.29-1.23s.06-.89.2-1.46c.1-.49.22-.97.34-1.45-.13-.11-.25-.23-.37-.35-.15-.14-.3-.22-.43-.22m24.55,6.31c-.24.05-.62.13-1.14.27.06.59.29,1.28.71,2.06.24.4.56.98.96,1.76-.08.09-.18.14-.28.14-.23,0-.4-.16-.5-.48-.13-.39-.34-.81-.64-1.24-.26-.38-.52-.76-.78-1.14-.16-.26-.31-.55-.43-.85l-3.18.33c-1.03,2.13-1.6,3.94-1.72,5.43h-.08c-.1,0-.26-.1-.45-.3l-.12-.1v-.13c0-.54.12-1.24.36-2.08.14-.46.33-1.2.57-2.22-.61-.08-1.01-.35-1.21-.8.06-.2.28-.32.66-.39.32-.06.52-.1.6-.13.22-.07.4-.17.54-.32.6-1.97.9-2.96.9-2.97.39-1.12.81-2.04,1.28-2.81.17.08.41.23.71.46-.19.32-.28.66-.28,1.03,0,.41.13.9.39,1.46.25.45.49.9.72,1.35.18.35.32.65.41.93.17.11.35.16.55.16.24,0,.56-.08.98-.23.38-.14.67-.22.85-.22.29,0,.45.23.46.7-.2.14-.48.25-.85.33m-4.18-3.15l-.74,2.73c.18.04.33.05.42.05.14,0,.35-.04.64-.12.27-.07.5-.11.66-.11.07,0,.21.03.45.07-.28-.84-.75-1.71-1.42-2.62m25.83,1.71c0-.72-.28-1.33-.85-1.82-.37-.32-.95-.65-1.77-.99-.18-.08-.34-.15-.44-.2-.35-.14-.74-.21-1.17-.21-1.09,0-2.31.59-3.66,1.76-.55.49-.97.87-1.28,1.14-.04-.82-.17-1.64-.39-2.48-.26-.93-.46-1.63-.6-2.09-.1-.07-.17-.11-.25-.11-.07,0-.15.08-.24.25-.1.2-.17.35-.21.44.42,1.01.71,2.18.87,3.5.1.81.16,2.02.19,3.63.02,1.62.08,2.81.16,3.6.06.48.26.73.57.73.06,0,.11-.01.16-.05.04-.27.05-.58.05-.91,0-.35-.03-.87-.09-1.56-.06-.68-.08-1.21-.08-1.57,0-1.09.24-1.97.72-2.65.2-.25.36-.42.47-.53l.57-.62c.98-.93,2.06-1.4,3.25-1.4.33,0,.66.04.99.13.41.25.81.49,1.21.73.43.29.7.66.83,1.14-.78.34-1.87.7-3.28,1.05-1.41.36-2.43.67-3.06.92l-.26.78c.21.34.56.68,1.03,1.03.41.28.81.56,1.21.84.27.21.48.44.67.69.35.5.69,1,1.04,1.49.46.62.93.93,1.42.93.12,0,.24-.02.35-.06.01-.04.02-.07.02-.11,0-.13-.05-.39-.16-.76-.46-.32-.94-.79-1.44-1.4-.42-.52-.83-1.05-1.25-1.58-.33-.37-.71-.7-1.15-1.01.24-.12.38-.18.45-.21.47-.23.91-.41,1.33-.51.78-.16,1.55-.32,2.33-.48.88-.27,1.46-.76,1.76-1.46m11.84,7.39c.04-.23.05-.41.05-.55-.67-1.15-.99-2.59-.99-4.31,0-.68.06-1.69.19-3.01.12-1.33.18-2.32.18-2.99,0-.15-.1-.36-.29-.62-.2-.26-.39-.44-.58-.53-.39,1.72-.58,3.49-.58,5.33,0,1.6.15,3.11.46,4.54.08.35.19.74.33,1.15.14.42.23.68.29.79.18.3.39.44.66.44.15,0,.25-.08.29-.24m26.62-1.17c.31,0,.46-.24.46-.71-.81-1.48-1.38-3.7-1.74-6.65-.19-.26-.35-.62-.48-1.08-.11-.39-.21-.79-.3-1.18-.26-.83-.76-1.26-1.49-1.3-.76.79-1.44,1.91-2.04,3.36-.5,1.23-.99,2.46-1.49,3.68-.43.91-.94,1.73-1.54,2.45-.55-.84-1.09-1.9-1.62-3.19-.67-1.66-1.11-2.69-1.31-3.1-.6-1.19-1.19-1.78-1.78-1.76h-.04c-.56.69-1.08,1.68-1.56,2.99-.59,1.62-1.02,2.67-1.26,3.13-.18.3-.31.52-.41.66-.15.32-.23.78-.23,1.37,0,.97.28,1.77.84,2.4.04.02.07.02.1.02.11,0,.29-.11.57-.34-.11-.43-.16-.86-.16-1.3,0-.98.28-2.06.82-3.24.7-1.36,1.24-2.39,1.63-3.07.68.44,1.23,1.22,1.63,2.34.01.06.15.5.41,1.31.17.52.32.94.48,1.26.16.16.35.4.54.75.14.27.28.55.42.83.37.66.74.98,1.1.98.2,0,.41-.06.66-.19.41-.62.8-1.36,1.17-2.23.17-.41.46-1.2.89-2.36.76-2.1,1.57-3.68,2.42-4.75.43.7.77,1.48.99,2.33.24,1.14.47,2.28.72,3.42.31,1.34.77,2.38,1.37,3.13.09.02.18.04.24.04m18.2-4.79c-.23.05-.62.14-1.14.27.06.59.3,1.28.71,2.06.24.4.56.99.96,1.76-.08.09-.18.14-.29.14-.22,0-.39-.16-.5-.48-.13-.39-.34-.8-.64-1.24-.26-.38-.52-.76-.78-1.13-.17-.26-.31-.55-.43-.85l-3.18.34c-1.03,2.13-1.6,3.94-1.72,5.42h-.07c-.11,0-.26-.1-.45-.3l-.13-.11v-.12c0-.54.12-1.24.36-2.08.14-.47.33-1.2.57-2.22-.6-.08-1.01-.35-1.21-.8.06-.19.28-.32.66-.39.32-.06.52-.1.6-.13.21-.07.39-.18.53-.32.6-1.97.91-2.95.91-2.96.39-1.12.82-2.05,1.28-2.81.16.08.4.23.71.46-.19.32-.29.66-.29,1.03,0,.42.14.9.39,1.46.25.45.5.9.73,1.35.18.35.31.65.41.93.17.1.35.16.55.16.24,0,.56-.08.98-.23.38-.14.67-.21.86-.21.29,0,.45.23.45.69-.2.14-.48.26-.85.34m-4.18-3.14l-.75,2.72c.2.03.33.05.43.06.15,0,.36-.04.64-.12.28-.08.5-.12.66-.12.07,0,.22.02.45.08-.28-.84-.76-1.72-1.43-2.62m20.39,8.64c1.66,0,3.01-.34,4.07-1.03-.08-.16-.16-.32-.25-.48-.08-.17-.18-.29-.3-.37-.4.02-1.14.12-2.24.3-.94.15-1.69.23-2.26.23-1.45,0-2.58-.43-3.41-1.3-.08-.42-.12-.83-.12-1.23,0-1.02.26-2.01.8-2.99.51-.94,1.19-1.71,2.04-2.31.29-.22.56-.32.84-.32.29,0,.69.19,1.19.57.45.35.8.5,1.05.49h.05c.1-.09.14-.16.14-.25,0-.07-.02-.15-.07-.25-.12-.17-.23-.34-.35-.53-.12-.19-.18-.36-.18-.52v-.07c-.57-.56-1.36-.83-2.37-.82-.18.01-.38.07-.61.18-1.69.77-2.85,2.01-3.46,3.73-.22.64-.34,1.32-.34,2.03,0,1.47.46,2.73,1.37,3.79.13.15.28.27.46.34,1.23.53,2.55.8,3.94.8m23.87.5l-.13.12v-.21c-.1-.39-.18-.7-.25-.93-.1-.47-.17-1.02-.21-1.65-.06-1.29-.12-2.58-.16-3.87-.13-1.46-.45-2.7-.96-3.75-.18-.49-.31-.86-.39-1.14-.18-.5-.34-.76-.46-.76-.12,0-.24.15-.38.45.04.13.26.77.67,1.94.29.79.43,1.44.43,1.99,0,.19-.02.39-.05.6-.58.41-1.28.62-2.08.62-.31,0-.77-.04-1.38-.11-.62-.08-1.08-.11-1.39-.11-.45,0-.92.08-1.38.23-.31-1.28-.52-2.23-.62-2.84-.2-1.07-.5-1.89-.89-2.46h-.16c-.17,0-.29.04-.35.12.59,1.49.89,3.73.89,6.72,0,2.58,0,3.81-.02,3.7.16.4.29.73.39.98.18.39.36.59.54.59.04,0,.1,0,.16-.01-.19-.54-.28-1.28-.28-2.23,0-.22,0-.56.01-1.01.01-.45.02-.79.02-1.02,0-.27-.02-.53-.04-.76.66-.53,1.5-.8,2.51-.8.32,0,.8.03,1.44.1.64.06,1.12.1,1.44.1.52,0,1.02-.09,1.49-.27l.66,4.46c.18.35.3.61.37.8.13.29.29.42.49.41h.08Zm11.75-.04c.04-.23.05-.42.05-.55-.66-1.15-1-2.59-1-4.32,0-.67.06-1.67.19-3,.12-1.33.18-2.32.18-2.98,0-.15-.09-.37-.29-.62-.2-.26-.39-.44-.58-.53-.39,1.72-.58,3.49-.58,5.33,0,1.6.16,3.11.46,4.54.08.35.19.74.33,1.16.14.41.24.67.29.78.18.29.4.45.66.45.16,0,.25-.08.29-.23"/>
      <g>
        <g>
          <path d="m131.02,14.52c-.01.82-.36,1.38-.72,1.63-.3.23-.78.25-.93-.05-.09-.29.07-.56.33-.72.52-.29.99-1.06.93-1.96h.24c.08.25.11.49.13.72h3.47c0-.48-.03-1.03-.08-1.44,1.35.4,1.35.53,1.14.68l-.2.15v.62h3.81l.23-.29c.12-.15.21-.29.32-.29.16,0,.95.78.95.98-.11.11-.24.12-.48.15-.32.44-.83,1.05-1.26,1.4l-.16-.09c.15-.37.32-.99.45-1.47h-8.19Zm.45,10.05c0,.09-.34.29-.69.29-.13,0-.21-.13-.21-.26.04-.46.05-.7.08-1.42v-.85c0-.85-.05-1.89-.16-2.58l1.07.49h6.71l.2-.26c.11-.13.19-.26.29-.26.16,0,.99.61.99.81-.09.11-.28.23-.54.28v1.26c.03,1.26.04,1.67.09,2.44-.09.15-.52.33-.78.33-.12,0-.17-.13-.17-.26.03-.07.03-.09.05-.2v-.24h-6.94v.45Zm2.16-8.61c-.69.01-1.32.08-1.99.19l-.34-.66c.58.07,1.17.09,1.76.11h4.04l.24-.33c.13-.17.24-.34.34-.34.16,0,.97.64.97.83-.03.15-.15.21-.32.21h-4.7Zm.86,4.66h-3.02v1.35h3.02v-1.35Zm-3.02,1.72v1.38h3.02v-1.38h-3.02Zm5.96-5.67c.11-.15.19-.29.29-.29.16,0,.93.65.93.85-.07.09-.25.2-.46.24v.64c.03.64.03.85.07,1.19-.08.15-.52.33-.77.33h-.13v-.54h-4.79v.37c0,.08-.36.26-.69.26-.12,0-.19-.13-.19-.26.04-.26.04-.4.07-.79v-.53c0-.54-.03-1.19-.09-1.64l.97.46h4.62l.19-.28Zm-4.87,2.03h4.79v-1.36h-4.79v1.36Zm5.85,1.92h-3.09v1.35h3.09v-1.35Zm-3.09,3.1h3.09v-1.38h-3.09v1.38Z"/>
          <path d="m151.75,23.42c.16-.21.28-.42.38-.42.16,0,1.17.82,1.17,1.02-.04.15-.16.21-.34.21h-7.63c-.69.01-1.32.08-1.99.19l-.34-.68c.58.07,1.17.09,1.76.11h2.97v-6.04h-3.11c-.69.01-1.32.08-1.99.19l-.34-.68c.58.07,1.17.09,1.76.11h3.68v-1.81c0-.9-.05-1.99-.17-2.72,1.51.42,1.51.56,1.28.7l-.21.15v3.68h3.52l.29-.42c.16-.21.29-.42.4-.42.16,0,1.17.83,1.17,1.03-.04.15-.16.2-.34.2h-5.03v6.04h2.83l.29-.42Z"/>
          <path d="m164.37,13.21c.12-.16.21-.32.32-.32.16,0,.98.72.98.91-.09.11-.29.21-.56.28v3.58c.03,1.59.05,2.12.11,3.11-.12.15-.5.36-.79.36-.13,0-.17-.13-.17-.26.03-.05.01-.09.04-.19v-.24h-1.27v3.13c0,.2.05.24.53.24h1.28c.57,0,1.03,0,1.21-.01.16-.01.2-.05.25-.19.11-.24.24-.99.38-1.8h.19l.03,1.87c.29.09.33.2.33.37,0,.4-.37.56-2.4.56h-1.4c-1.01,0-1.21-.2-1.21-.86v-3.3h-1.44c-.4,2.68-1.84,3.84-5.09,4.42l-.05-.21c2.79-.79,3.89-1.93,4.2-4.21h-1.17v.53c0,.09-.33.29-.69.29-.15,0-.28-.13-.28-.26.07-1.14.11-1.71.13-3.42v-1.84c0-.9-.05-1.99-.17-2.72l1.07.49h5.43l.21-.3Zm-.08.7h-5.63v1.75h5.63v-1.75Zm0,3.92v-1.79h-5.63v1.79h5.63Zm-5.63.4v1.81h5.63v-1.81h-5.63Z"/>
          <path d="m178.14,16.76c.11-.15.17-.3.28-.3.16,0,1.03.72,1.03.91-.08.11-.28.23-.54.26v4.5c0,.66-.16,1.11-1.39,1.22-.05-.25-.13-.46-.29-.6-.2-.15-.56-.28-1.17-.34v-.2s1.36.09,1.68.09c.25,0,.33-.08.33-.26v-4.58h-2.99v3.77c.03,1.59.05,2.12.11,3.11-.11.2-.5.44-.81.44-.17,0-.32-.13-.32-.26.08-1.14.12-1.72.15-3.44v-3.62h-2.95v2.48c.03,1.59.05,2.12.11,3.11-.11.16-.44.36-.79.36-.15,0-.25-.13-.25-.26.05-.82.08-1.23.11-2.48v-1.38c0-.9-.05-1.99-.17-2.72l1.07.49h2.89v-1.96h-3.11c-.69.01-1.32.08-1.99.19l-.34-.69c.58.07,1.17.09,1.76.11h3.68c0-.68-.04-1.48-.12-2.04,1.43.41,1.43.54,1.21.7l-.21.15v1.19h3.54l.29-.41c.16-.21.29-.42.4-.42.16,0,1.17.82,1.17,1.02-.04.15-.17.21-.34.21h-5.23c.57.26.57.4.37.54l-.19.13v1.28h2.87l.19-.3Z"/>
          <path d="m191.9,18.55c0-.87-.05-1.99-.17-2.72,1.5.41,1.5.54,1.26.7l-.23.15v4.46c.03,1.59.05,2.12.11,3.11-.11.17-.46.37-.79.37-.17,0-.23-.13-.23-.26.03-.21.03-.32.05-.65v-.46h-8.04v.42c.03.42.03.57.05.78-.05.19-.41.4-.73.4-.17,0-.32-.13-.32-.26.08-1.14.12-1.72.15-3.44v-2.54c0-.9-.05-1.99-.17-2.72,1.47.41,1.47.54,1.24.69l-.23.15v6.13h3.56v-7.13c0-.9-.05-1.99-.17-2.72,1.47.42,1.47.56,1.25.7l-.21.15v8.99h3.62v-4.3Z"/>
          <path d="m204.4,21.14c.15-.19.26-.37.37-.37.16,0,1.05.73,1.05.93-.04.15-.15.21-.33.21h-3.92v2.16h3.58l.28-.4c.16-.2.28-.4.38-.4.16,0,1.11.78,1.11.98-.01.13-.15.2-.32.2h-9.01c-.69.01-1.32.08-1.99.19l-.34-.68c.58.07,1.17.09,1.76.11h3.68v-2.16h-1.92c-.69.01-1.32.08-1.99.19l-.34-.69c.58.07,1.17.09,1.76.11h2.49c0-.61-.04-1.35-.12-1.87,1.39.4,1.39.53,1.18.66l-.2.13v1.07h2.56l.28-.37Zm1.31-7.06c.13-.16.24-.33.34-.33.16,0,.91.85.91,1.05-.09.09-.24.12-.49.13-.33.38-.9.9-1.35,1.19l-.09-.07c.17.16.37.32.53.48-.04.15-.15.2-.33.2h-4.4c-.52.78-1.18,1.63-1.79,2.2,1.42-.07,3.15-.17,4.93-.29-.49-.5-1.06-.98-1.52-1.32l.13-.13c3.8,1.36,3.5,3.46,2.53,2.94-.17-.37-.5-.79-.87-1.21-1.77.29-4.04.61-7.07.95-.08.15-.21.24-.33.26l-.45-1.11c.52,0,1.27-.03,2.17-.07.44-.61.91-1.5,1.21-2.23h-.91c-.58.01-1.11.08-1.67.19l-.36-.68c.58.07,1.17.09,1.76.11h5.38l.56-.69s.21.16.45.36c.16-.33.38-.83.52-1.24h-8.41c.01.78-.25,1.34-.56,1.6-.28.26-.73.32-.9.03-.12-.26.03-.56.28-.74.45-.32.83-1.17.78-2.03h.21c.08.28.13.53.16.77h3.66c0-.56-.03-1.23-.11-1.71,1.42.41,1.42.54,1.19.69l-.23.15v.87h3.91l.24-.32Z"/>
          <path d="m217.78,22.92v.94h-6.57v-.69l3.1-3.39c1.23-1.31,1.7-2.15,1.7-3.39s-.7-2.19-2.05-2.19c-.45,0-.83.07-1.26.25l-.4.94c-.17.48-.37.65-.65.65-.23,0-.42-.12-.54-.36.34-1.26,1.67-1.96,3.19-1.96,1.95,0,2.93,1.11,2.93,2.69,0,1.21-.71,2.2-2.25,3.55l-2.91,2.95h5.72Z"/>
          <path d="m224.16,14.59c-.69.01-1.32.08-1.99.19l-.36-.66c.58.07,1.17.09,1.76.11h7.84l.32-.45c.17-.23.3-.45.41-.45.16,0,1.23.87,1.23,1.07-.04.13-.17.2-.34.2h-4.86v8.89c0,.72-.17,1.24-1.56,1.38-.04-.28-.15-.52-.36-.65-.26-.17-.69-.29-1.44-.38v-.2s1.79.12,2.15.12c.28,0,.37-.08.37-.32v-8.83h-3.17Z"/>
          <path d="m237.87,24.04c.03.24.01.32.04.41-.04.19-.36.42-.72.42-.17,0-.32-.13-.32-.26.08-1.14.12-1.72.15-3.44v-5.18c0-.9-.05-1.99-.17-2.72l1.1.52h5.87l.23-.3c.12-.15.21-.3.32-.3.16,0,1.07.72,1.07.91-.11.12-.33.24-.61.29v6.9c.03,1.59.05,2.12.11,3.11-.13.17-.53.41-.85.41-.13,0-.19-.13-.19-.26.03-.13.03-.2.05-.41v-.34h-6.08v.25Zm6.08-9.87h-6.08v2.77h6.08v-2.77Zm0,3.15h-6.08v2.81h6.08v-2.81Zm-6.08,6.08h6.08v-2.87h-6.08v2.87Z"/>
        </g>
        <g>
          <path class="cls-3" d="m45.1,18.44h1.82c.6,0,1.35.1,1.35.8v6.24s-2.05.74-5.75.74-8.66-2.01-8.66-7.57,5.17-7.72,8.99-7.72c1.71,0,3.87.1,3.87,1.05v1.86c-1.45-1.17-2.04-1.38-4.25-1.38s-6.16,1.43-6.16,6.06,5.3,7.38,9.7,5.64v-3.55c0-.74-.04-2.17-.91-2.17Z"/>
          <path class="cls-3" d="m72.79,25.84h4.68c-1.3-.48-1.83-2.01-2.25-3.12-.44-1.11-3.82-9.2-4.2-10.32-.37-1.11-.91-1.11-1.34-1.11h-2.69c1.3.42.59,1.33.38,1.96-.21.64-4.74,11.64-4.74,11.64-1.56-.42-5.48-6.09-5.48-6.09,5.22-1.48,4.41-7.51-.69-7.51h-5.86c1.18.26,1.07,1.48,1.07,2.43v10.01c0,1.38-.43,1.74-1.12,2.11h4.29c-1.18-.53-.87-1.75-.87-2.32v-10.8h2.32c1.23,0,2.15,1.48,2.15,2.49,0,1.63-1.29,2.27-2.58,2.75-1.29.47-.59,1.53,0,2.38.6.84,2.32,3.22,3.34,4.39,1.03,1.16,1.93,1.11,2.42,1.11h3.87c-1.5-.48-.7-1.64-.49-2.21.22-.6,1.19-3.08,1.19-3.08h5.8s.7,1.8,1.35,3.39c.65,1.59.16,1.8-.54,1.9Zm-6.02-6.98l2.21-5.67,2.35,5.67h-4.57Z"/>
          <path class="cls-3" d="m119.88,25.84h4.69c-1.29-.48-1.83-2.01-2.25-3.12-.43-1.11-3.82-9.2-4.2-10.32-.38-1.11-.91-1.11-1.35-1.11h-2.69c1.29.42.59,1.33.38,1.96-.22.64-4.73,11.64-4.73,11.64-.3.69-.74.7-1.01.95h3.86c-1.51-.48-.69-1.64-.49-2.21.21-.6,1.18-3.08,1.18-3.08h5.82s.7,1.8,1.34,3.39c.64,1.59.15,1.8-.55,1.9Zm-6.01-6.98l2.2-5.67,2.37,5.67h-4.57Z"/>
          <path class="cls-3" d="m103.34,26.11c.54-.49,1.03-.85,1.03-2.55v-10c0-.79-.04-1.69-1.03-2.02h4.15c-.43.38-.94.85-.94,1.91v10.11c0,.9-.2,2.23,1,2.55h-4.21Z"/>
          <path class="cls-3" d="m81.07,14.67s-.05,7.99-.05,8.89.12,2.23,1.3,2.55h-3.93c.54-.49.97-.85.97-2.55s.1-9.21.1-10-.1-1.69-1.07-2.02h3.02l9.03,11.17v-9.11c0-.58.11-1.69-1.12-2.12h4.03c-.49.38-1.19.53-1.19,2.07v13.13s-1.11.2-2.95-1.97c-1.83-2.17-8.13-10.06-8.13-10.06Z"/>
          <path class="cls-1" d="m106.77,37.37c-11.83-9.81-16.35-21.36-.17-37.12.5-.48.99-.2.59.26-7.1,7.97-14.99,20.74-.17,36.38.23.25.14.75-.25.49Z"/>
        </g>
      </g>
    </g>
  </g>
</svg>