<svg version="1.1" id="レイヤー_1" xmlns="http://www.w3.org/2000/svg" x="0" y="0" viewBox="0 0 410 66" xml:space="preserve"><style>.st0{fill:#040000}</style><path class="st0" d="M228.4 36c-.1.4-.2 1-.6 1-.1 0-.2-.1-.4-.3l-1.5-2.8c2.3-1.2 6.7-4.5 7.2-4.9l.4 2.7c-.6.4-4.2 3.4-5.1 4.3zm9 2.8c-1.5 0-2.9-.3-3.5-.4l-.7-3c.6.2 1.3.5 2.4.7 1 .3 1.7.3 2 .3.4 0 2.3-.1 2.3-1.8 0-1.5-1.2-3-2.7-4.6-1.3-1.4-2.4-2.6-2.4-4.2 0-1.4 1-2.5 1.4-2.9l2.2 1.6c-.3.3-1 1.1-1 2 0 .8.4 1.3 2.5 3.3 1.2 1.2 2.8 3 2.8 5.3 0 2.8-3 3.7-5.3 3.7zm3.1-16.8c-2-1-4.5-1.9-7.1-2.2l1.3-2.1c2.1.3 5.2 1.2 7.1 2.2l-1.3 2.1zm6.6 13.1c-1.7-3.8-3.5-5.9-4.9-7.4l2.4-.9c1.6 1.7 3.3 3.6 4.9 6.6l-2.4 1.7zM263.4 37c-1.7 1.2-3.7 2-5.8 2-1.5 0-2.9-.6-4-1.5-1.9-1.7-1.9-3.7-1.9-4.6 0-1.7.3-9.6.3-10.9 0-2.7-.2-4-.3-4.8l3.3.5c.2 0 .6.1.6.5 0 .2-.1.3-.8.7-.1 1-.3 2.5-.3 4.7-.2 5.1-.3 7.4-.3 8.2 0 1.3 0 4.7 3.9 4.7 2.9 0 5.9-2.5 7.8-7.4l2 2c-1.7 3.4-3.1 4.9-4.5 5.9zm1.3-12.8c-.6-.6-1.3-1.3-3.2-2.6l1.4-1.3c1.6.9 2.8 2.3 3 2.6l-1.2 1.3zm2.5-2.7c-.8-.9-1.5-1.5-2.8-2.5l1.3-1.3c.8.5 1.8 1.3 3 2.6l-1.5 1.2zM289.7 34.5c-.8-.8-1.8-1.5-2.8-2.1-1.6 3.6-3.9 5.5-5.9 7.1l-2.1-2c2.1-.9 4.5-3 6-6.3-2-1.1-3.5-1.8-6.2-2-2.2 4.2-2.8 5.3-3.7 6.5-.6.8-1.4 1.4-2.6 1.4-2.1 0-3.2-1.8-3.2-3.5 0-3.9 4-6.9 8.1-6.8.4-.9 1.3-3 1.8-4.4.1-.3.6-1.6.7-1.8-.9.2-3.7.7-5.1.6l-1-2.4c4.1 0 5.7-.1 8.5-1.3l1.3 1.6c-.9 1.3-1.2 1.7-2.8 5.2-.1.2-1 2.3-1.2 2.8 2.1.3 4.1 1 6.1 1.9.1-.7.6-2.6.6-4.7 0-.5 0-.9-.1-1.2l3.2.7c.3.1.4.1.4.4 0 .3-.2.5-1 .9-.7 3.7-.8 4.1-1.1 5 1.6.9 2.4 1.5 3.5 2.3l-1.4 2.1zm-16.9-4c-1 .9-1.3 2.1-1.3 2.8 0 .8.5 1.2 1 1.2.4 0 .7-.2.9-.5.7-.9 1.3-1.8 2.8-5-.8.1-2.2.2-3.4 1.5zM304.9 37.2c-2.8.6-5.5 1-10.6 1.6-.2.3-.3.7-.7.7-.3 0-.3-.2-.4-.5l-.4-2.8c2 0 2.6-.1 5.6-.3v-2.8h-.8c-.8 0-2.4 0-4.1.2v-2.6c1.6.2 3.2.2 4.1.2h.8v-2.5h-.7c-1.1 0-1.7 0-3.9.2.1-1.8.1-2.3.1-3.9v-3.8c0-1.6 0-2-.1-4 1.6.1 2.4.2 3.9.2h3.6c1.1 0 1.7 0 3.9-.2-.1 1.8-.1 2.4-.1 4v3.8c0 1.6 0 2 .1 3.9-1.6-.1-2.4-.2-3.9-.2h-.7v2.5c.5 0 2.2 0 3.9-.2v2.6c-1.2-.2-2.7-.2-3.9-.2v2.6c.8-.1 2.8-.3 4.7-.6l-.4 2.1zm-6.4-18.1h-2.3v2.7h2.3v-2.7zm0 4.6h-2.3v2.7h2.3v-2.7zm4.5-4.6h-2.3v2.7h2.3v-2.7zm0 4.6h-2.3v2.7h2.3v-2.7zm12.5 5.9c-.6.9-1.4 2.3-1.8 2.7l-1.9-1.4c.3-.4 1.4-2 2.3-3.4h-2.3v10.8c0 2-1.2 2-3.2 2-.4 0-.6 0-1.2-.1l-1.1-2.7c.2 0 2 .3 2.5.3.6 0 .7-.2.7-1.1v-9.3c-1.3 0-2.5.1-3.7.2v-2.2c1 .1 2.3.1 3.9.1h1.6c-1-1.5-2.3-2.8-3.8-3.8l1.7-1.5c.5.3 1 .6 2 1.4 1.9-1.9 2.1-2.1 2.5-2.6h-2.9c-1.3 0-3.4.1-4.7.2V17c.9.1 1.8.1 3.4.1h3.6c1.5 0 2.6-.1 3.1-.1l1.3 1.6c-.6.5-.7.6-2.3 2.2l-2.4 2.4c.6.7.9 1.1 1.1 1.4l-.9.9c.9 0 2.9-.1 3.7-.3l1.1 1.4c-.8.8-1 1-2.3 3zM342.2 40.6c-1.1-.1-2.9-.3-5.9-1.2-2.4-.8-3.3-1.4-5.1-2.6-.6.4-1.7 1.2-4.1 2.2-2.7 1.1-5.1 1.6-6.3 1.8l-1.7-2.7c2.8-.2 7-.9 10.2-3.1-2.1-2.4-3.3-4.8-3.6-5.7l2.3-.9c.4 1.4 1.5 3.5 3.2 5.1 1.7-1.5 3.3-3.6 4.3-5.2h-7.8c-2 0-4 .1-5.9.3V26c2.2.1 4.2.2 6.1.2h2.3v-3.4h-2.8c-2.6 0-5.5.1-8.1.2v-2.6c2.6.2 6.7.2 8.1.2h2.8c0-1.2 0-1.7-.1-4.5l3.3.3s.3.1.3.4c0 .3-.2.4-.8.7-.1 1.8-.1 2.1-.1 3.1h2.5c.7 0 5.1 0 8.2-.2V23c-3.6-.2-7.9-.2-8.2-.2h-2.5v3.4c2.7 0 3.6-.1 5.3-.3l1.2 1.4c-.6 1-3.2 5-6.5 7.8 2.6 1.9 6.9 2.9 10.6 2.8l-1.2 2.7zM363.3 21.6h-12.6v4c0 8.4-1.4 11.2-3.2 13.9l-2.6-1.4c1.7-2 3.3-4.7 3.3-12.5 0-3.6-.2-5.2-.4-6.3 1.3.1 5.1.1 5.3.1.2 0 1.2.1 1.4.1h2.9c0-.9-.1-2.3-.1-3.1l2.9.2c.7.1.9.1.9.4 0 .2-.2.3-.3.4-.1.1-.5.3-.6.3 0 .2-.1 1.5-.1 1.8h3.2c.9 0 5.8-.2 6.8-.3V22c-.9-.3-5.7-.4-6.8-.4zm.4 5.6h-3.6V30h2.1c.9 0 4.6-.1 5.4-.2 0 .4-.1 2.9-.1 3.3v3.6c0 .9.1 2.8.1 3.7h-2.8c.1-.5.1-.8.1-1.5h-10.7c0 .6 0 .9.1 1.5h-2.7c.1-.8.2-3.3.2-4.1v-3.5c0-.8 0-1.2-.1-3.1 1.3.1 4.1.2 5.9.2v-2.7c0-1-.1-4.1-.1-5l3 .2c.2 0 .7.1.7.4 0 .3-.3.4-1 .7v1.4h3.6c.6 0 2.9-.1 4.2-.2v2.4c-.4.2-4 .1-4.3.1zm1.2 4.9h-10.7v4.8h10.7v-4.8z"/><g><path fill="#054993" d="M21.9 50.8V35.7H8.3V20.8L0 29.1v21.7z"/><path fill="#d41619" d="M13.4 15.7v15.1H27v14.9l8.2-8.3V15.7z"/></g><g><path class="st0" d="M74.5 0h-12L46.8 22.7v17.4l5.7-8.3v33.4h10.2V17z"/><path class="st0" d="M100.6 41h24.1l2.7-9.7h-26.8V20h24.2l2.6-9.5h-26.8V0H90.3v10.5H70.8L68.2 20h22v11.3H68.3L65.6 41h24.7v13.7H68.1l-2.9 10.5h59.6l2.8-10.5h-27z"/></g><g><path class="st0" d="M158.3 18.2h-8V.1h-10.4v18.1h-5.2L132 28.7h7.9v36.5h10.4V28.7h5.2zM188.7 29.8v3.8h-2.4l-1.9 7.9h4.3v13.3h-3.1l-2.8 10.4h4.5c6.4-.3 9.6-3.6 9.9-8.1V41.5h6v13.3h-3.3l-2.8 10.4h5.1c6.4-.3 8.9-3.6 9.2-8.1V33.5h-14v-3.8l-8.7.1z"/><path class="st0" d="M160.8 29.8v3.8H158l-1.9 7.9h4.6v13.3H157l-2.8 10.4h5.1c6.4-.3 9.6-3.6 9.9-8.1V41.5h6v13.3h-3.3l-2.8 10.4h5.1c6.4-.3 8.9-3.6 9.2-8.1V33.5h-14v-3.8l-8.6.1zM188.7 18.2h11.1v-3.9h-13.2V17c0 7.5-6.9 11-12.5 11h-13.4v-9.9h15.7v-3.8h-18.1l2.4-9.2h15.7V0h10.2v5.2h22v15.2c-.3 4.8-2.6 7.6-8.7 7.6h-11.1l-.1-9.8z"/></g><g><path class="st0" d="M227.3 50.6V48h.9c.3 0 .3.1 0 .3v2.3h1.2v.9h-1.2v3.9l1.5-.4v1l-3.4 1.2c0 .3-.1.3-.2.2l-.4-1.2 1.5-.4v-4.2h-1.3v-.9h1.4zm8.7 2.9v4.8c0 .4-.2.6-.6.6H234l-.2-.9h1c.1 0 .2-.1.2-.2v-4.3h-5.5v-.9h7.5v.9h-1zm-5.8-1.1l-.3-1c1.6-.2 2.5-.7 2.8-1.5h-2.5V49h2.6v-1.3h.9c.3 0 .3.1 0 .3v1h2.8v.9h-2.7c.5.7 1.5 1.2 2.9 1.4l-.2 1c-1.5-.2-2.5-.7-3.2-1.5-.7.8-1.7 1.4-3.1 1.6zm1.1 4.8v.4h-.8v-3.3h3.4v2.9h-2.6zm0-.8h1.7v-1.3h-1.7v1.3zM244.4 49.6v2.8h3.8v1.1h-3.8V57h4.9v1.1h-10.7V57h4.6v-3.5h-3.4v-1.1h3.4v-2.8h-4v-1.1h9.7v1.1h-4.5zm1.7 4.2c.6.4 1.2 1.1 1.8 1.9l-1.1.7c-.5-.8-1-1.4-1.6-1.9l.9-.7zM252.1 58.8l-.7-.9c1.1-.6 1.9-1.4 2.5-2.2l.9.5c.2.1.1.2-.1.3-.6.7-1.4 1.5-2.6 2.3zm.6-3.7v.5h-1v-7.2h.9c.3 0 .3.1 0 .3v5.4h9.2v.9h-4.6v4H256v-3.8h-3.3zm1.2-1.5v-5.7h6.3v5.7h-6.3zm.9-4.2h4.3v-.8h-4.3v.8zm0 1.6h4.3v-.8h-4.3v.8zm0 1.8h4.3v-.9h-4.3v.9zm4.2 2.7c.7.7 1.6 1.3 2.9 2l-.6 1c-1.1-.5-2.2-1.3-3.2-2.3l.9-.7zM267.1 55c-1.3 1-2.2 1.9-2.9 2.6l-.8-.8c.9-.9 1.8-1.7 2.8-2.5l.9.7zm1.6 2.4c.4 0 .7-.1.8-.2.2-.2.3-.5.3-1s-.1-.9-.4-1.2c-.4-.4-.8-.7-1.3-.9-.8-.4-1.3-.6-1.4-.8-.2-.2-.2-.4-.2-.7 0-.3.1-.7.4-1.3l1.2.5c-.3.4-.4.6-.4.7 0 .1.2.2.5.4 1 .5 1.7.9 2.1 1.2.5.5.8 1.2.8 2.1s-.2 1.5-.6 1.9c-.4.4-1 .6-1.7.6s-1.4-.2-2.3-.6l.3-1.2c.8.3 1.5.5 1.9.5zm-2-8.2l.6-1c1.1.6 2.2 1 3.3 1.3l-.5 1.1c-1.6-.5-2.7-1-3.4-1.4zm7.3 7.7c-.9-1.4-1.8-2.5-2.5-3.2l.9-.6c1.1 1 1.9 2 2.5 3.1l-.9.7zM284.4 56c-1.4 1.6-3 2.3-4.6 2.3-1.2 0-2.1-.3-2.6-.8-.4-.4-.6-1.3-.6-2.5v-6.7h1c.3.1.3.2.1.4V55c0 .8.1 1.4.4 1.7.4.4.9.5 1.6.5 1.3 0 2.6-.7 3.9-2.2l.8 1zm-2.3-5.7l-.5.6c-.7-.4-1.3-.8-1.9-1.2l.5-.6c.6.4 1.3.8 1.9 1.2zm1-1.1l-.5.6c-.7-.5-1.3-.9-1.9-1.2l.5-.6c.6.4 1.3.8 1.9 1.2zM292.4 58.5l-1-.6c1-1 1.7-2.2 2-3.6-1.2-.4-2.3-.7-3.5-.9-.9 1.9-1.5 3-1.8 3.3-.4.4-.9.6-1.4.6-.4 0-.7-.1-1-.4-.3-.3-.4-.7-.4-1.3 0-.7.3-1.4 1-2 .7-.7 1.7-1.1 2.9-1.1.4-1 .8-2 1.1-2.9-.9.2-1.9.4-2.8.6l-.4-1c1.1-.1 2.1-.3 3.1-.5l.6-.3.8.6c.3.2.3.3 0 .4-.4.8-.9 1.8-1.4 3 1.1.1 2.2.4 3.4.8.1-.8.1-1.8 0-2.9l.9.2c.4.1.4.2.1.4 0 1.1 0 2-.1 2.7.6.2 1.4.6 2.2 1l-.5 1c-.7-.4-1.3-.7-1.9-1-.3 1.6-.9 2.9-1.9 3.9zm-5.4-4.3c-.5.5-.8 1-.8 1.5 0 .2.1.4.2.5.1.1.2.1.4.1.3 0 .6-.2.8-.5.2-.3.6-1.1 1.2-2.3-.7 0-1.3.2-1.8.7zM303.9 57.6l-5.6.8c0 .2-.1.3-.2.1l-.3-1.2 2.6-.2v-1.5h-2.2v-.9h2.2v-1.3h-2.2V48h5.4v5.3h-2.2v1.3h2.2v.9h-2.2v1.4l2.4-.3.1 1zm-3.5-8.8h-1.2v1.5h1.2v-1.5zm0 3.8v-1.4h-1.2v1.4h1.2zm2.2-2.3v-1.5h-1.2v1.5h1.2zm0 2.3v-1.4h-1.2v1.4h1.2zm4.2 2.5c.6-.8 1-1.4 1.2-1.9h-1.4v4.9c0 .6-.3.8-.8.8h-.8l-.2-.9h.7c.1 0 .1 0 .1-.1v-4.7H304v-.9h4.3l.2-.3.8.7c.1.1.1.2-.1.2-.4.9-.9 1.8-1.6 2.7l-.8-.5zm-.6-4.9l.9-1.1h-3v-.9h3.7l.1-.2.7.7c.1.1.1.2-.1.3l-1.7 1.7.5.5-.7.7a9.7 9.7 0 00-1.9-1.7l.6-.6c.3.1.6.3.9.6zM319 56.5c.1 0 .2-.1.2-.2v-3.5h-2.8V59h-1.1v-6.2h-2.5v4.8h-1.1v-5.8h3.7v-1.5h-5v-.9h5v-1.6h1.1c.3 0 .3.1 0 .3v1.3h5.1v.9h-5.1v1.5h3.9v5c0 .5-.3.8-.8.8h-1.3l-.1-1.1h.8zM326.5 55c-1.3 1-2.2 1.9-2.9 2.6l-.8-.8c.9-.9 1.8-1.7 2.8-2.5l.9.7zm1.7 2.4c.4 0 .7-.1.8-.2.2-.2.3-.5.3-1s-.1-.9-.4-1.2c-.4-.4-.8-.7-1.3-.9-.8-.4-1.3-.6-1.4-.8-.2-.2-.2-.4-.2-.7 0-.3.1-.7.4-1.3l1.2.5c-.3.4-.4.6-.4.7 0 .1.2.2.5.4 1 .5 1.7.9 2.1 1.2.5.5.8 1.2.8 2.1s-.2 1.5-.6 1.9c-.4.4-1 .6-1.7.6s-1.4-.2-2.3-.6l.3-1.2c.8.3 1.4.5 1.9.5zm-2.1-8.2l.6-1c1.1.6 2.2 1 3.3 1.3l-.5 1.1c-1.6-.5-2.7-1-3.4-1.4zm7.4 7.7c-.9-1.4-1.8-2.5-2.5-3.2l.9-.6c1.1 1 1.9 2 2.5 3.1l-.9.7zM343.8 56c-1.4 1.6-3 2.3-4.6 2.3-1.2 0-2.1-.3-2.6-.8-.4-.4-.6-1.3-.6-2.5v-6.7h1c.3.1.3.2.1.4V55c0 .8.1 1.4.4 1.7.4.4.9.5 1.6.5 1.3 0 2.6-.7 3.9-2.2l.8 1zm-2.2-5.7l-.5.6c-.7-.4-1.3-.8-1.9-1.2l.5-.6c.6.4 1.2.8 1.9 1.2zm1-1.1l-.5.6c-.7-.5-1.3-.9-1.9-1.2l.5-.6c.6.4 1.2.8 1.9 1.2zM351.9 58.5l-1-.6c1-1 1.7-2.2 2-3.6-1.2-.4-2.3-.7-3.5-.9-.9 1.9-1.5 3-1.8 3.3-.4.4-.9.6-1.4.6-.4 0-.7-.1-1-.4-.3-.3-.4-.7-.4-1.3 0-.7.3-1.4 1-2 .7-.7 1.7-1.1 2.9-1.1.4-1 .8-2 1.1-2.9-.9.2-1.9.4-2.8.6l-.4-1c1.1-.1 2.1-.3 3.1-.5l.6-.3.8.6c.3.2.3.3 0 .4-.4.8-.9 1.8-1.4 3 1.1.1 2.2.4 3.4.8.1-.8.1-1.8 0-2.9l.9.2c.4.1.4.2.1.4 0 1.1 0 2-.1 2.7.6.2 1.4.6 2.2 1l-.5 1c-.7-.4-1.3-.7-1.9-1-.3 1.6-1 2.9-1.9 3.9zm-5.5-4.3c-.5.5-.8 1-.8 1.5 0 .2.1.4.2.5.1.1.2.1.4.1.3 0 .6-.2.8-.5.2-.3.6-1.1 1.2-2.3-.7 0-1.3.2-1.8.7zM363.4 57.6l-5.6.8c0 .2-.1.3-.2.1l-.3-1.2 2.6-.2v-1.5h-2.2v-.9h2.2v-1.3h-2.2V48h5.4v5.3h-2.2v1.3h2.2v.9h-2.2v1.4l2.4-.3.1 1zm-3.5-8.8h-1.2v1.5h1.2v-1.5zm0 3.8v-1.4h-1.2v1.4h1.2zm2.2-2.3v-1.5h-1.2v1.5h1.2zm0 2.3v-1.4h-1.2v1.4h1.2zm4.2 2.5c.6-.8 1-1.4 1.2-1.9h-1.4v4.9c0 .6-.3.8-.8.8h-.9l-.2-.9h.7c.1 0 .1 0 .1-.1v-4.7h-1.6v-.9h4.3l.2-.3.8.7c.1.1.1.2-.1.2-.4.9-.9 1.8-1.6 2.7l-.7-.5zm-.6-4.9l.9-1.1h-3v-.9h3.7l.1-.2.7.7c.1.1.1.2-.1.3l-1.7 1.7.5.5-.7.7a9.7 9.7 0 00-1.9-1.7l.6-.6c.3.1.6.3.9.6zM372.8 49.1h1.1v5.5h1v.9h-1v2.2h-1.1v-2.2h-3.3v-1l3.3-5.4zm0 1.8l-2.2 3.6h2.2v-3.6zM375.5 52.9h5.7v.8h-5.7v-.8zM382.8 49.7c.4-.4.9-.6 1.6-.6.7 0 1.3.2 1.7.6.4.4.6 1 .6 1.7 0 .6-.2 1-.6 1.4-.2.2-.4.3-.6.3v.1c.3.1.6.2.8.5.4.4.6.9.6 1.6s-.2 1.2-.7 1.7c-.4.4-1.1.6-1.9.6-.8 0-1.5-.2-1.9-.6-.5-.5-.7-1-.7-1.7s.2-1.2.6-1.6c.3-.3.5-.4.8-.5v-.1c-.2-.1-.4-.2-.6-.4-.4-.4-.5-.8-.5-1.3.1-.7.3-1.3.8-1.7zm.6 4.5c-.3.3-.4.6-.4 1.1s.1.9.4 1.2c.3.3.6.4 1 .4s.7-.1 1-.4c.3-.3.4-.7.4-1.2s-.1-.9-.4-1.2c-.2-.2-.6-.3-1-.3s-.7.1-1 .4zm.2-3.9c-.3.3-.4.6-.4 1.1 0 .5.1.8.4 1.1.2.2.5.3.8.3.4 0 .7-.1.9-.3.3-.3.4-.6.4-1.1s-.1-.9-.4-1.1c-.2-.2-.5-.3-.8-.3-.4 0-.7.1-.9.3zM387.7 52.9h5.7v.8h-5.7v-.8zM394.4 51.6c0-.8.2-1.4.7-1.9.4-.4 1-.6 1.6-.6.7 0 1.3.2 1.7.6.4.4.6.9.6 1.6 0 .7-.2 1.2-.5 1.5-.2.2-.5.4-.7.4.3.1.6.3.8.5.4.4.6.9.6 1.6 0 .7-.2 1.3-.7 1.8-.5.5-1.1.7-1.9.7-.7 0-1.3-.2-1.7-.7-.5-.5-.7-1-.7-1.6V55h1.1v.3c0 .4.1.8.4 1.1.2.2.5.3.8.3.4 0 .8-.1 1-.4s.4-.7.4-1.2-.1-.8-.4-1.1-.6-.4-.9-.4h-.4v-.8h.3c.3 0 .6-.1.8-.4s.4-.6.4-1.1c0-.4-.1-.8-.4-1-.2-.2-.5-.3-.8-.3-.3 0-.6.1-.8.3-.3.3-.4.7-.4 1.3h-.9zM400.5 52.1c0-1 .3-1.8.8-2.3.4-.4.9-.6 1.5-.6.7 0 1.3.2 1.7.6.4.4.6 1 .6 1.6 0 .8-.2 1.5-.7 2.1-.5.6-.9 1.1-1.4 1.6-.3.3-.5.6-.8.9-.2.3-.4.5-.6.8h3.7v.9h-5.1v-.8c.1-.3.3-.8.8-1.4.8-.9 1.5-1.6 2-2.2.6-.6.8-1.2.8-1.9 0-.4-.1-.7-.4-1-.2-.2-.4-.3-.7-.3-.3 0-.5.1-.7.3-.4.4-.5.9-.5 1.7h-1z"/></g></svg>