<?xml version="1.0" encoding="utf-8"?>
<!-- Generator: Adobe Illustrator 27.0.0, SVG Export Plug-In . SVG Version: 6.00 Build 0)  -->
<svg version="1.1" id="レイヤー_1" xmlns="http://www.w3.org/2000/svg" xmlns:xlink="http://www.w3.org/1999/xlink" x="0px"
	 y="0px" viewBox="0 0 162 57" style="enable-background:new 0 0 162 57;" xml:space="preserve">
<style type="text/css">
	.st0{fill:url(#SVGID_1_);}
	.st1{fill:#FFFFFF;}
</style>
<g>
	<linearGradient id="SVGID_1_" gradientUnits="userSpaceOnUse" x1="0" y1="28.5" x2="162" y2="28.5">
		<stop  offset="0" style="stop-color:#232221"/>
		<stop  offset="0.5018" style="stop-color:#3E3A35"/>
		<stop  offset="1" style="stop-color:#232221"/>
	</linearGradient>
	<rect class="st0" width="162" height="57"/>
	<g>
		<path class="st1" d="M43.2,29.5c0.2,0.5,0.2,1.9-1.2,3.2c-1.3,1.1-2.6,1.6-3.4,1c-0.5-0.3-0.9-1.3,0.3-3.1c0,0,0.2-0.3,0.3-0.1
			c0,0-0.1,0.3-0.2,0.4c0,0.1-0.7,1.8,0,2.1c0.3,0.1,1.2-0.1,2.1-0.9c0.8-0.8,1.9-2,1-2.9c-0.9-0.9-2.5-0.1-3.7,0.4
			c-0.5,0.2-1.1,0.5-1.7,0.9c0,0.6,0,1.2,0.1,1.6c0.1,0.6-0.1,1.6-0.2,1.8c-0.1,0.2-0.4,0.5-0.5,0.5c-0.1,0-0.3,0-0.4-0.3
			c-0.1-0.3-0.4-0.7-0.6-1c-0.3-0.3-1-0.6-1-0.6c-0.5,0.3-0.7,0.5-0.9,0.5c-0.8,0-1.4-1.4-0.5-1.6c0.1,0,0.4,0.1,0.6,0.2
			c0.7-0.2,1.7-0.8,2.8-1.3c0-0.9,0-1.9,0-2.7c-0.6,0.2-1.1,0.4-1.3,0.4c-0.3,0.1-0.9,0-1.2-0.2c-0.4-0.3-0.8-0.6-0.8-0.7
			c-0.1-0.1-0.1-0.2-0.1-0.2c0-0.1,0.4,0.1,0.5,0.1c0.2,0.1,0.8,0.2,1.4,0.2c0.3,0,1-0.2,1.5-0.4c0-0.2,0-0.4,0-0.5
			c0-0.5,0-1.2-0.2-1.7c-0.2-0.5-0.7-0.6-1-0.8c-0.1,0-0.2-0.1-0.2-0.1c0-0.1,0.2-0.2,0.3-0.2c0.6-0.2,1.4,0.1,1.7,0.3
			c0.4,0.3,0.3,0.9,0.2,1c0,0.1,0,0.1,0,0.3c0.1,0.1,0.2,0.3,0.4,0.4c0.3,0.2,0.6,0.3,0.8,0.4c0.2,0,0.6,0,0.6,0.4
			c0,0.3-0.1,0.4-0.4,0.5c-0.1,0-0.7,0.3-1.5,0.5c0,0.7,0,1.7,0,2.5c0.5-0.3,1-0.5,1.4-0.7C39,28.8,42.1,27.4,43.2,29.5z M35.9,31
			c-0.6,0.4-1.1,0.7-1.6,1.1c0.5,0.3,1.2,0.6,1.3,0.7c0.2,0,0.2,0,0.3-0.2C35.9,32.6,35.9,31.9,35.9,31z M36.6,26.5
			c0.1-0.1,0.2-0.1,0.3-0.1c0.2-0.2,0.2-0.2,0-0.4c-0.1-0.1-0.2-0.2-0.2-0.3l0,0.7C36.6,26.4,36.6,26.4,36.6,26.5z M45.1,27.6
			c-0.3,0.2-0.7,0.1-0.8-0.1c-0.4-0.5-0.7-0.8-1.4-1c-0.6-0.1-1.2,0.5-1.2,0.5c-0.1,0-0.1,0-0.2,0c0,0,0-0.1,0-0.2
			c0.5-0.6,0.9-1,1.8-1.1c0.9-0.1,1.5,0.5,1.7,0.7C45.3,26.8,45.3,27.4,45.1,27.6z"/>
		<path class="st1" d="M52.3,22.3c0.1-0.2,0.2-0.3,0.4-0.3c0.2,0,1.1,0.8,1.1,1c-0.1,0.1-0.3,0.3-0.6,0.3v1.5c0,1.5,0,2,0.1,2.8
			c-0.1,0.2-0.6,0.4-0.9,0.4c-0.1,0-0.2-0.2-0.2-0.3c0-0.1,0-0.1,0-0.2v-0.3H49V32c0,1.9,0.1,2.5,0.1,3.7c-0.1,0.2-0.5,0.5-0.9,0.5
			c-0.2,0-0.4-0.2-0.4-0.3c0.1-1.4,0.1-2.1,0.2-4.1v-6.4c0-1.1-0.1-2.4-0.2-3.3l1.2,0.6h3L52.3,22.3z M52.2,23.1H49v1.5h3.2V23.1z
			 M49,26.7h3.2v-1.6H49V26.7z M52.3,33.5c0,0.3,0,0.4,0,0.5c0,0.2-0.5,0.4-0.9,0.4c-0.1,0-0.2-0.2-0.2-0.3c0-0.5,0.1-0.8,0.1-1.5
			v-0.9c0-0.9,0-2.1-0.2-2.8l1.2,0.6h3.5l0.2-0.3c0.1-0.1,0.2-0.3,0.3-0.3c0.2,0,1.1,0.7,1.1,0.9c-0.1,0.1-0.3,0.2-0.6,0.3v1.3
			c0,1.3,0,1.7,0.1,2.5c-0.1,0.2-0.6,0.4-0.9,0.4c-0.2,0-0.2-0.2-0.2-0.3c0-0.1,0-0.2,0.1-0.3v-0.3h-3.7V33.5z M52.3,32.8h3.7v-3
			h-3.7V32.8z M56,27.6c0,0.1-0.4,0.3-0.8,0.3c-0.1,0-0.2-0.2-0.2-0.3c0-0.5,0.1-0.8,0.1-1.6v-1c0-1-0.1-2.1-0.2-2.9l1.2,0.6h3.1
			l0.2-0.3c0.1-0.2,0.2-0.3,0.4-0.3c0.2,0,1.2,0.8,1.2,1c-0.1,0.1-0.4,0.3-0.7,0.3v11.4c0,0.8-0.2,1.3-1.6,1.4
			c0-0.3-0.1-0.6-0.3-0.7c-0.2-0.2-0.6-0.3-1.3-0.4v-0.2c0,0,1.5,0.1,1.8,0.1s0.4-0.1,0.4-0.4v-7.4H56V27.6z M59.4,23.1H56v1.5h3.4
			V23.1z M56,26.7h3.4v-1.6H56V26.7z"/>
		<path class="st1" d="M64.6,24.8c0.1-0.2,0.9,0.1,1.3,0.4c0.3,0.3,0.4,0.6,0.4,0.9c0,0.7-0.7,2.3-0.5,3.8c0.2,1.5,1.1,2.2,1.3,2.4
			c0.3,0.2,0.4,0.2,0.5,0.2c0.1,0,0.2,0,0.3-0.3c0.2-1,0.5-1.7,0.6-1.9c0.1-0.2,0.2-0.3,0.2-0.3s0,0.2,0,0.4c-0.2,1-0.1,1.9-0.1,2.2
			c0,0.3,0.3,0.7,0.3,0.9c0,0.2,0,0.4-0.2,0.5c-0.2,0.1-1,0-2.1-1c-0.4-0.4-1.4-1.5-1.5-3.1c-0.2-1.7,0.2-2.9,0.2-3.3
			c0-0.4,0.1-0.7,0-1c-0.1-0.3-0.3-0.5-0.5-0.7C64.6,24.9,64.6,24.9,64.6,24.8z M71.8,26.7c0-0.1,0-0.1,0.1-0.1
			c0.1,0,1.5-0.5,2.8,0.7c0.6,0.6,1,1.4,1,1.8c0,0.4-0.1,1-0.8,0.8c-0.3-0.1-0.4-0.3-0.4-0.5c-0.1-0.1-0.6-2-1.4-2.4
			c-0.5-0.2-1.1-0.2-1.2-0.2C71.9,26.8,71.8,26.8,71.8,26.7z"/>
		<path class="st1" d="M79.1,28.8L79,28.6c1.7-1,3.7-2.8,5.1-4.5c0.6-0.8,1.1-1.8,1.3-2.6l2,0.6c0,0.2-0.2,0.3-0.6,0.3
			c1.4,2,3.9,3.7,6.6,4.8l0,0.2c-0.4,0.1-0.8,0.4-0.9,0.8c-2.5-1.3-4.9-3.4-5.9-5.7C84.9,24.8,82,27.4,79.1,28.8z M82.7,35.3
			c0,0.3,0,0.4,0,0.5c0,0.2-0.5,0.4-0.9,0.4c-0.2,0-0.3-0.2-0.3-0.3c0-0.6,0.1-0.9,0.1-1.8V33c0-1.1-0.1-2.4-0.2-3.3l1.3,0.6h6.5
			l0.2-0.3c0.1-0.2,0.2-0.3,0.4-0.3c0.2,0,1.2,0.8,1.2,1c-0.1,0.1-0.4,0.3-0.6,0.3v1.6c0,1.6,0,2.1,0.1,3.1c-0.1,0.2-0.7,0.4-1,0.4
			c-0.2,0-0.2-0.2-0.2-0.3c0-0.1,0-0.2,0.1-0.4V35h-6.7V35.3z M84.9,27.8c-0.7,0-1.4,0.1-2.1,0.2l-0.4-0.8c0.7,0.1,1.4,0.1,2.1,0.1
			h3.3l0.3-0.5c0.2-0.2,0.3-0.5,0.4-0.5c0.2,0,1.3,0.9,1.3,1.1c0,0.2-0.2,0.2-0.4,0.2H86H84.9z M82.7,34.6h6.7v-3.8h-6.7V34.6z"/>
		<path class="st1" d="M101.3,35.3c0-0.1,0.1-0.1,0.2-0.2c2-0.5,3.3-1.7,3.9-2.4c0.9-1.1,1.9-3.5,0-4.9c-1.5-1.2-4.3-0.2-5.9,1.6
			c-0.1,2.7,0.1,3.7,0.3,4.4c0.2,0.9-0.1,1.2-0.4,1.3c-0.3,0-0.6-0.3-0.7-0.7c-0.1-0.7-0.4-1.8-0.7-2.8c-0.4,0.6-0.6,1.1-0.7,1.3
			c-0.3,0.5-0.6,0.6-0.8,0.6c-0.2-0.1-0.3-0.2-0.3-0.6c0.1-0.4,0.8-1.3,1.5-2.1c-0.2-0.6-0.4-1.1-0.7-1.7c-0.1-0.2-0.2-0.4-0.3-0.5
			c-0.1-0.1-0.4-0.4-0.3-0.6c0.1-0.1,0.3-0.2,0.5-0.2c0.4,0,0.9-0.1,1.2-0.2c0.3-0.2,0.7-0.5,1-0.7c0-0.7,0.1-1,0.2-1.5
			c0.1-0.6,0.1-0.9,0.1-1.3c0-0.4-0.1-0.9-0.5-1.3c-0.1-0.1-0.3-0.3-0.2-0.3c0.1-0.1,0.4,0,0.8,0.2c0.5,0.2,0.9,0.6,0.9,1
			c0,0.5-0.3,0.8-0.4,1.5c-0.1,0.3-0.1,0.7-0.2,1.1l0.1-0.1c0.3-0.2,0.5-0.1,0.8,0.1c0.3,0.2,0.1,0.8-0.2,1.2
			c-0.1,0.1-0.5,0.8-0.5,0.8c0,0.1,0,0.1,0,0.1c3.3-2.5,5.7-1.4,6.4-0.8c1.4,1.2,1.8,3.5,0.1,5.3c-1.5,1.6-4.1,2.3-5,2.4
			C101.5,35.3,101.4,35.3,101.3,35.3z M98,30.5c0.1-0.1,0.2-0.2,0.3-0.3c0.3-0.4,0.6-0.9,0.8-1.4c0-0.4,0.1-0.8,0.1-1.2
			c-0.6,0.5-0.6,0.7-1.2,0.9c-0.2,0.1-0.6,0.1-0.8,0C97.3,28.9,97.7,29.7,98,30.5z M99,30.2c-0.3,0.3-0.5,0.7-0.7,1
			c0.2,0.5,0.4,0.9,0.5,1.1c0.1,0.2,0.1,0,0.1-0.2C98.9,32,98.9,31.3,99,30.2z"/>
		<path class="st1" d="M124.6,27c0,0.3-0.3,0.5-0.7,0.4c-0.4-0.1-1.1-0.2-1.9-0.2c-0.5,0-1.1,0-1.6,0c-0.1,0.9-0.2,1.9-0.4,2.6
			c-0.2,0.8-0.6,1.6-1.3,1.6c-0.4,0-0.4-0.2-0.4-0.3c-0.1-0.7-0.9-1.6-1-1.6c-0.1-0.1-0.1-0.1-0.1-0.2c0-0.1,0.2,0,0.3,0
			c0.1,0,0.8,0.5,1,0.6c0.2,0.1,0.4,0,0.5,0c0.4-0.4,0.6-1.5,0.7-2.6c-1.1,0.1-2.3,0.4-4.2,1.1c0,1.4,0.1,3.2,0.3,4.2
			c0.1,0.6,0.5,0.9,1,1c0.5,0.1,2.5,0,3.6-0.3c0.5-0.1,1.1-0.1,1.2,0.4c0.1,0.5-0.6,0.6-1,0.7c-0.4,0.1-4.3,0.6-5.2-0.7
			c-0.5-0.7-0.7-4.2-0.7-4.9c0,0,0,0,0,0c0,0-0.1,0-0.1,0.1c-1,0.4-1.4,0.8-1.9,0.8c-0.7,0.1-1.1-0.3-1.4-0.7
			c-0.2-0.4-0.2-0.8-0.1-0.9c0.1-0.1,0.2,0,0.3,0.1c0.1,0.1,0.5,0.4,1.1,0.3c0.2,0,1.1-0.3,2.2-0.6c0-1-0.1-2.2-0.3-2.4
			c-0.5-0.6-0.9-0.5-0.9-0.6c0-0.2,0.1-0.3,0.3-0.3c0.2,0,1.1-0.2,1.6,0.3c0.2,0.1,0.2,0.6,0.2,0.8c0,0.2,0,0.4,0,0.7
			c0,0.1,0,0.6,0,1.3c1.3-0.4,2.8-0.7,4.2-0.9c0-1.1,0-2-0.1-2.3c-0.1-0.6-0.6-0.8-0.7-0.9c-0.1-0.1-0.2-0.1-0.1-0.3
			c0-0.1,0.2-0.1,0.4-0.1c0.3,0,0.8,0.1,1.1,0.3c0.2,0.2,0.5,0.4,0.4,0.8c0,0.2-0.1,0.4-0.2,0.8c0,0,0,0.1,0,0.1
			c0.6,0.3,2.1,1.2,2.8,1.2c0.3,0,0.6-0.1,0.8,0C124.4,26.5,124.6,26.7,124.6,27z M121,25.9c0,0-0.2-0.2-0.4-0.3
			c0,0.3,0,0.7-0.1,1.1c0.2,0,0.3,0,0.5,0c0.2,0,0.8,0,0.8-0.2C121.8,26.4,121.2,26,121,25.9z"/>
	</g>
</g>
</svg>
