<svg version="1.1" id="レイヤー_1" xmlns="http://www.w3.org/2000/svg" x="0" y="0" viewBox="0 0 180 47" style="enable-background:new 0 0 180 47" xml:space="preserve"><style>.st0{fill:#fff}</style><path class="st0" d="M36.9 21.5v-4.1c0-.6-.2-.9-.8-1.1-.2 0-.5-.1-.6-.1-.1 0-.2 0-.2-.1s.1-.2.3-.2c.8 0 2 .1 2.1.1.2 0 1.6-.1 2.2-.1 1.2 0 2.4.1 3.4.8.5.3 1.3 1.3 1.3 2.6 0 1.4-.6 2.8-2.3 4.4 1.5 2 2.8 3.7 3.9 4.8 1 1.1 1.8 1.3 2.3 1.4.4.1.6.1.7.1.1 0 .2.1.2.1 0 .1-.1.2-.5.2h-1.3c-1.1 0-1.5-.1-2-.4-.8-.4-1.5-1.4-2.5-2.8-.8-1-1.7-2.3-2.1-2.8-.1-.1-.1-.1-.2-.1h-2.3c-.1 0-.1.1-.1.2v.5c0 1.8 0 3.3.1 4.1.1.5.2 1 .7 1 .3 0 .7.1.8.1.1 0 .2.1.2.1 0 .1-.1.2-.3.2-1 0-2.2-.1-2.3-.1 0 0-1.2.1-1.8.1-.2 0-.3 0-.3-.2 0-.1 0-.1.2-.1s.4 0 .6-.1c.4-.1.5-.5.5-1 .1-.8.1-2.3.1-4.1v-3.4zm1.5 1.7c0 .1 0 .2.1.2.3.2 1.1.3 2 .3.5 0 1-.1 1.4-.4.7-.5 1.1-1.5 1.1-2.9 0-2.4-1.2-3.8-3.3-3.8-.6 0-1.1.1-1.3.1-.1 0-.2.1-.2.2v6.3zM50.7 22.8v-3.4c0-.5-.2-.8-.7-.9h-.5c-.1 0-.2-.1-.2-.1 0-.1.1-.2.3-.2.4 0 .9 0 1.9.1h3.8c.4 0 .6 0 .7-.1.1 0 .1-.1.2-.1 0 0 .1 0 .1.1s-.1.4-.2.8c0 .3 0 .6-.1 1 0 .2 0 .3-.1.3s-.1-.1-.1-.2c0-.3-.1-.5-.1-.6-.1-.4-.3-.5-1.2-.6h-2.1c-.1 0-.1 0-.1.2v4.3c0 .1 0 .2.1.2.2 0 2.1 0 2.5-.1.4 0 .7-.1.9-.3.1-.1.1-.2.2-.2 0 0 .1 0 .1.1s-.1.5-.1 1c-.1.5-.1.9-.1 1.2 0 .2-.1.2-.1.2-.1 0-.1-.1-.1-.2s0-.3-.1-.5-.2-.5-.9-.6c-.4 0-2-.1-2.3-.1-.1 0-.1.1-.1.1v4c0 .7.1 1.1.5 1.2.3.1.7.2 1.4.2.4 0 1 0 1.4-.1.6-.2.7-.5.8-1.2 0-.2.1-.3.2-.3s.1.2.1.3c0 .1-.2 1.3-.2 1.6-.1.4-.2.4-.8.4h-2.4c-.7 0-1.5-.1-2.2-.1-.4 0-.8.1-1.2.1-.2 0-.3 0-.3-.1s.1-.1.2-.1.2 0 .4-.1c.3-.1.6-.3.6-1.5V22.8zM61.7 25.7c-.1 0-.2.1-.2.2l-.8 2.4c-.2.5-.3 1-.3 1.3 0 .3.2.5.6.5h.1c.2 0 .2.1.2.1 0 .1-.2.1-.3.1-.4 0-1.3-.1-1.5-.1-.2 0-1 .1-1.8.1-.2 0-.3 0-.3-.1s.1-.1.2-.1h.4c.8-.1 1.1-.7 1.5-1.5l3.8-9.9c.2-.5.3-.6.4-.6.1 0 .2.1.4.6.3.6 2.8 7.2 3.8 9.6.6 1.5 1.2 1.7 1.4 1.8.2.1.5.1.6.1.1 0 .2 0 .2.1s-.1.1-.3.1h-2.9c-.4 0-.5 0-.5-.1s.1-.1.1-.1c.1 0 .2-.1.1-.4L65.1 26c0-.1-.1-.1-.2-.1h-3.2zm3.2-.6c.1 0 .1-.1.1-.1l-1.5-4.2c-.1-.3-.1-.3-.2 0L61.9 25v.1h3zM72.5 22.8v-3.5c0-.5-.2-.8-.7-.9h-.5c-.1 0-.2-.1-.2-.1 0-.1.1-.2.3-.2.8 0 2 .1 2 .1.1 0 1.1-.1 2.2-.1 1.7 0 4.7-.2 6.7 1.8.8.8 1.6 2.2 1.6 4.1 0 2-.9 3.6-1.8 4.5-.7.7-2.2 1.8-5 1.8-.7 0-1.6 0-2.4-.1-.7 0-1.3-.1-1.4-.1H71.6c-.2 0-.3 0-.3-.1s.1-.1.2-.1c.2 0 .3 0 .4-.1.3-.1.4-.5.5-.9.1-.7.1-2 .1-3.5v-2.6zm1.6 1.6v3.5c0 .6.1 1.1.2 1.3.2.3.8.7 2.8.7 1.5 0 2.9-.5 3.9-1.5.8-.8 1.2-2.2 1.2-3.8 0-2.1-1-3.4-1.6-4.1-1.6-1.6-3.4-1.8-5.3-1.8-.3 0-.8.1-1 .1-.2.1-.2.2-.2.3v5.3zM106.3 28.2c.1.5.2 1.5.9 1.7.3.1.7.1 1 .1.1 0 .2 0 .2.1s-.1.2-.3.2c-.3 0-2.4-.1-3-.1-.4 0-.6-.1-.6-.2s.1-.1.2-.2c.1 0 .2-.3.1-.5l-.8-8.1-4 8.1c-.4.7-.4.9-.6.9-.1 0-.2-.2-.6-.8-.3-.5-1.8-3.6-1.9-3.7-.1-.2-2-3.9-2.1-4.3l-.7 7.3v.7c0 .2.1.5.5.6.2 0 .3 0 .5.1.2 0 .2.1.2.1 0 .1-.1.2-.3.2-.6 0-1.4-.1-1.6-.1-.2 0-1 .1-1.5.1-.2 0-.3 0-.3-.2 0 0 .1-.1.2-.1h.4c.5 0 .6-.5.7-1.2l1.3-10.4c0-.3.1-.5.2-.5s.2.1.3.3l5.1 9.8 4.8-9.8c.1-.2.2-.3.3-.3.1 0 .2.2.2.5l1.2 9.7zM109.4 24.2c0-2.5 1.9-6.3 6.6-6.3 3.7 0 6.6 2.2 6.6 6 0 3.6-2.7 6.5-6.7 6.5-4.6.1-6.5-3.3-6.5-6.2zm11.4.2c0-3.8-2.3-5.9-4.9-5.9-2.6 0-4.7 1.6-4.7 5.2 0 3.7 2.1 6.1 5.2 6.1 1.3.1 4.4-.6 4.4-5.4zM126.6 22.8v-3.5c0-.5-.2-.8-.8-.9h-.5c-.1 0-.2 0-.2-.1s.1-.1.2-.1c.8 0 2 .1 2 .1.2 0 1.5-.1 2-.1 1.1 0 2.2.1 3.1.7.4.3 1.1 1 1.1 2.3 0 1-.5 2.4-2 3.6 1.4 1.7 2.5 3.1 3.5 4.1.9.9 1.5 1.1 2 1.2h.6c.2 0 .2.1.2.1 0 .1-.1.1-.3.1h-1.3c-.9 0-1.3-.1-1.7-.2-.8-.3-1.4-1.2-2.3-2.5-.7-.9-1.5-1.9-1.8-2.3-.1-.1-.1-.1-.2-.1h-1.9c-.1 0-.1 0-.1.1v.3c0 1.5 0 2.9.1 3.6.1.5.1.8.7.9h.5c.2 0 .2.1.2.1 0 .1-.1.2-.3.2-1 0-2-.1-2.1-.1-.3 0-1.1.1-1.6.1-.2 0-.3 0-.3-.2 0-.1.1-.1.2-.1h.4c.3-.1.4-.3.5-.7.1-.7.1-2.2.1-3.6v-3zm1.4 1.4c0 .1 0 .2.1.2.2.1 1 .2 1.7.2.4 0 .9 0 1.3-.3.6-.4.9-1.2.9-2.4 0-2.1-1.1-3.2-2.8-3.2-.5 0-.9 0-1.1.1-.1 0-.1.1-.1.2v5.2zM139.1 22.8v-3.4c0-.5-.2-.8-.7-.9h-.5c-.1 0-.2-.1-.2-.1 0-.1.1-.2.3-.2.4 0 .9 0 1.9.1h3.8c.4 0 .6 0 .7-.1.1 0 .1-.1.2-.1 0 0 .1 0 .1.1s-.1.4-.2.8c0 .3 0 .6-.1 1 0 .2 0 .3-.1.3s-.1-.1-.1-.2c0-.3-.1-.5-.1-.6-.1-.4-.3-.5-1.2-.6h-2.1c-.1 0-.1 0-.1.2v4.3c0 .1 0 .2.1.2.2 0 2.1 0 2.5-.1.4 0 .7-.1.9-.3.1-.1.1-.2.2-.2 0 0 .1 0 .1.1s-.1.5-.1 1c-.1.5-.1.9-.1 1.2 0 .2-.1.2-.1.2-.1 0-.1-.1-.1-.2s0-.3-.1-.5-.2-.5-.9-.6c-.4 0-2-.1-2.3-.1-.1 0-.1.1-.1.1v4c0 .7.1 1.1.5 1.2.3.1.7.2 1.4.2.4 0 1 0 1.4-.1.6-.2.7-.5.8-1.2 0-.2.1-.3.2-.3s.1.2.1.3c0 .1-.2 1.3-.2 1.6-.1.4-.2.4-.8.4h-2.4c-.7 0-1.5-.1-2.2-.1-.4 0-.8.1-1.2.1-.2 0-.3 0-.3-.1s.1-.1.2-.1.2 0 .4-.1c.3-.1.6-.3.6-1.5V22.8z"/><path class="st0" d="M180 47H0V0h180v47zM.8 46.2h178.5V.8H.8v45.4z"/></svg>